simplerad.ufo
<glyph name="exclam" format="1">
  <advance width="244"/>
  <unicode hex="0021"/>
  <outline>
    <contour>
      <point x="83" y="188" type="curve" smooth="yes"/>
      <point x="83" y="600" type="line" smooth="yes"/>
      <point x="83" y="626"/>
      <point x="96" y="639"/>
      <point x="122" y="639" type="curve" smooth="yes"/>
      <point x="146" y="639"/>
      <point x="158" y="627"/>
      <point x="158" y="603" type="curve" smooth="yes"/>
      <point x="158" y="188" type="line" smooth="yes"/>
      <point x="158" y="163"/>
      <point x="145" y="151"/>
      <point x="120" y="151" type="curve" smooth="yes"/>
      <point x="95" y="151"/>
      <point x="83" y="163"/>
    </contour>
    <contour>
      <point x="60" y="55" type="curve" smooth="yes"/>
      <point x="60" y="86"/>
      <point x="85" y="110"/>
      <point x="116" y="110" type="curve" smooth="yes"/>
      <point x="147" y="110"/>
      <point x="172" y="86"/>
      <point x="172" y="55" type="curve" smooth="yes"/>
      <point x="172" y="26"/>
      <point x="147" y="1"/>
      <point x="116" y="1" type="curve" smooth="yes"/>
      <point x="85" y="1"/>
      <point x="60" y="26"/>
    </contour>
  </outline>
</glyph>
<glyph name="quotedbl" format="1">
  <advance width="500"/>
  <unicode hex="0022"/>
  <outline>
    <contour>
      <point x="175" y="727" type="curve" smooth="yes"/>
      <point x="175" y="517" type="line" smooth="yes"/>
      <point x="175" y="492"/>
      <point x="163" y="479"/>
      <point x="138" y="479" type="curve" smooth="yes"/>
      <point x="113" y="479"/>
      <point x="100" y="492"/>
      <point x="100" y="517" type="curve" smooth="yes"/>
      <point x="100" y="727" type="line" smooth="yes"/>
      <point x="100" y="752"/>
      <point x="113" y="765"/>
      <point x="138" y="765" type="curve" smooth="yes"/>
      <point x="163" y="765"/>
      <point x="175" y="752"/>
    </contour>
    <contour>
      <point x="397" y="727" type="curve" smooth="yes"/>
      <point x="397" y="517" type="line" smooth="yes"/>
      <point x="397" y="492"/>
      <point x="385" y="479"/>
      <point x="360" y="479" type="curve" smooth="yes"/>
      <point x="335" y="479"/>
      <point x="322" y="492"/>
      <point x="322" y="517" type="curve" smooth="yes"/>
      <point x="322" y="727" type="line" smooth="yes"/>
      <point x="322" y="752"/>
      <point x="335" y="765"/>
      <point x="360" y="765" type="curve" smooth="yes"/>
      <point x="385" y="765"/>
      <point x="397" y="752"/>
    </contour>
  </outline>
</glyph>
<glyph name="numbersign" format="1">
  <advance width="653"/>
  <unicode hex="0023"/>
  <outline>
    <contour>
      <point x="171" y="215" type="line"/>
      <point x="171" y="412" type="line"/>
      <point x="48" y="412" type="line" smooth="yes"/>
      <point x="23" y="412"/>
      <point x="11" y="425"/>
      <point x="11" y="450" type="curve" smooth="yes"/>
      <point x="11" y="475"/>
      <point x="23" y="487"/>
      <point x="48" y="487" type="curve" smooth="yes"/>
      <point x="171" y="487" type="line"/>
      <point x="171" y="593" type="line" smooth="yes"/>
      <point x="171" y="619"/>
      <point x="184" y="632"/>
      <point x="210" y="632" type="curve" smooth="yes"/>
      <point x="234" y="632"/>
      <point x="246" y="620"/>
      <point x="246" y="596" type="curve" smooth="yes"/>
      <point x="246" y="487" type="line"/>
      <point x="419" y="487" type="line"/>
      <point x="419" y="593" type="line" smooth="yes"/>
      <point x="419" y="619"/>
      <point x="432" y="632"/>
      <point x="458" y="632" type="curve" smooth="yes"/>
      <point x="482" y="632"/>
      <point x="494" y="620"/>
      <point x="494" y="596" type="curve" smooth="yes"/>
      <point x="494" y="487" type="line"/>
      <point x="596" y="487" type="line" smooth="yes"/>
      <point x="621" y="487"/>
      <point x="634" y="474"/>
      <point x="634" y="449" type="curve" smooth="yes"/>
      <point x="634" y="424"/>
      <point x="621" y="412"/>
      <point x="596" y="412" type="curve" smooth="yes"/>
      <point x="494" y="413" type="line"/>
      <point x="494" y="215" type="line"/>
      <point x="602" y="215" type="line" smooth="yes"/>
      <point x="627" y="215"/>
      <point x="640" y="202"/>
      <point x="640" y="177" type="curve" smooth="yes"/>
      <point x="640" y="152"/>
      <point x="627" y="140"/>
      <point x="602" y="140" type="curve" smooth="yes"/>
      <point x="494" y="139" type="line"/>
      <point x="494" y="2" type="line" smooth="yes"/>
      <point x="494" y="-23"/>
      <point x="482" y="-35"/>
      <point x="457" y="-35" type="curve" smooth="yes"/>
      <point x="432" y="-35"/>
      <point x="419" y="-23"/>
      <point x="419" y="2" type="curve" smooth="yes"/>
      <point x="419" y="139" type="line"/>
      <point x="246" y="139" type="line"/>
      <point x="246" y="2" type="line" smooth="yes"/>
      <point x="246" y="-23"/>
      <point x="233" y="-35"/>
      <point x="208" y="-35" type="curve" smooth="yes"/>
      <point x="183" y="-35"/>
      <point x="171" y="-23"/>
      <point x="171" y="2" type="curve" smooth="yes"/>
      <point x="171" y="139" type="line"/>
      <point x="48" y="140" type="line" smooth="yes"/>
      <point x="23" y="140"/>
      <point x="11" y="152"/>
      <point x="11" y="177" type="curve" smooth="yes"/>
      <point x="11" y="202"/>
      <point x="23" y="215"/>
      <point x="48" y="215" type="curve" smooth="yes"/>
    </contour>
    <contour>
      <point x="419" y="413" type="line"/>
      <point x="246" y="413" type="line"/>
      <point x="246" y="215" type="line"/>
      <point x="419" y="215" type="line"/>
    </contour>
  </outline>
</glyph>
<glyph name="dollar" format="1">
  <advance width="424"/>
  <unicode hex="0024"/>
  <outline>
    <contour>
      <point x="242" y="36" type="curve" smooth="yes"/>
      <point x="283" y="42"/>
      <point x="308" y="62"/>
      <point x="317" y="95" type="curve" smooth="yes"/>
      <point x="320" y="102"/>
      <point x="321" y="110"/>
      <point x="321" y="118" type="curve" smooth="yes"/>
      <point x="321" y="147"/>
      <point x="304" y="176"/>
      <point x="269" y="204" type="curve" smooth="yes"/>
      <point x="249" y="221"/>
      <point x="214" y="243"/>
      <point x="163" y="270" type="curve" smooth="yes"/>
      <point x="116" y="295"/>
      <point x="87" y="314"/>
      <point x="74" y="326" type="curve" smooth="yes"/>
      <point x="56" y="344"/>
      <point x="45" y="355"/>
      <point x="42" y="359" type="curve" smooth="yes"/>
      <point x="31" y="371"/>
      <point x="23" y="384"/>
      <point x="18" y="399" type="curve" smooth="yes"/>
      <point x="9" y="419"/>
      <point x="5" y="440"/>
      <point x="5" y="461" type="curve" smooth="yes"/>
      <point x="5" y="537"/>
      <point x="60" y="603"/>
      <point x="144" y="616" type="curve"/>
      <point x="143" y="675" type="line" smooth="yes"/>
      <point x="143" y="700"/>
      <point x="156" y="713"/>
      <point x="181" y="713" type="curve" smooth="yes"/>
      <point x="206" y="713"/>
      <point x="218" y="700"/>
      <point x="218" y="675" type="curve" smooth="yes"/>
      <point x="219" y="615" type="line"/>
      <point x="273" y="606"/>
      <point x="316" y="563"/>
      <point x="349" y="488" type="curve" smooth="yes"/>
      <point x="351" y="483"/>
      <point x="352" y="477"/>
      <point x="352" y="472" type="curve" smooth="yes"/>
      <point x="352" y="451"/>
      <point x="333" y="435"/>
      <point x="313" y="435" type="curve" smooth="yes"/>
      <point x="298" y="435"/>
      <point x="287" y="443"/>
      <point x="280" y="458" type="curve" smooth="yes"/>
      <point x="260" y="503"/>
      <point x="240" y="530"/>
      <point x="219" y="539" type="curve"/>
      <point x="218" y="459" type="line" smooth="yes"/>
      <point x="218" y="434"/>
      <point x="206" y="422"/>
      <point x="181" y="422" type="curve" smooth="yes"/>
      <point x="156" y="422"/>
      <point x="143" y="434"/>
      <point x="143" y="459" type="curve" smooth="yes"/>
      <point x="144" y="540" type="line"/>
      <point x="102" y="529"/>
      <point x="81" y="503"/>
      <point x="81" y="463" type="curve" smooth="yes"/>
      <point x="81" y="411"/>
      <point x="122" y="376"/>
      <point x="197" y="337" type="curve" smooth="yes"/>
      <point x="241" y="314"/>
      <point x="270" y="297"/>
      <point x="285" y="286" type="curve" smooth="yes"/>
      <point x="359" y="232"/>
      <point x="396" y="175"/>
      <point x="396" y="115" type="curve" smooth="yes"/>
      <point x="396" y="102"/>
      <point x="394" y="88"/>
      <point x="390" y="75" type="curve" smooth="yes"/>
      <point x="369" y="7"/>
      <point x="293" y="-35"/>
      <point x="213" y="-32" type="curve"/>
      <point x="213" y="-89" type="line" smooth="yes"/>
      <point x="213" y="-114"/>
      <point x="200" y="-126"/>
      <point x="175" y="-126" type="curve" smooth="yes"/>
      <point x="150" y="-126"/>
      <point x="138" y="-114"/>
      <point x="138" y="-89" type="curve" smooth="yes"/>
      <point x="138" y="-13" type="line"/>
      <point x="103" y="4"/>
      <point x="76" y="29"/>
      <point x="59" y="64" type="curve" smooth="yes"/>
      <point x="40" y="105"/>
      <point x="30" y="137"/>
      <point x="30" y="161" type="curve" smooth="yes"/>
      <point x="30" y="182"/>
      <point x="48" y="198"/>
      <point x="69" y="198" type="curve" smooth="yes"/>
      <point x="88" y="198"/>
      <point x="99" y="188"/>
      <point x="104" y="169" type="curve" smooth="yes"/>
      <point x="113" y="135"/>
      <point x="124" y="108"/>
      <point x="138" y="88" type="curve"/>
      <point x="138" y="159" type="line" smooth="yes"/>
      <point x="138" y="184"/>
      <point x="150" y="197"/>
      <point x="175" y="197" type="curve" smooth="yes"/>
      <point x="200" y="197"/>
      <point x="213" y="184"/>
      <point x="213" y="159" type="curve" smooth="yes"/>
      <point x="213" y="36" type="line"/>
      <point x="220" y="35"/>
      <point x="230" y="35"/>
    </contour>
  </outline>
</glyph>
<glyph name="percent" format="1">
  <advance width="630"/>
  <unicode hex="0025"/>
  <outline>
    <contour>
      <point x="75" y="29" type="curve" smooth="yes"/>
      <point x="423" y="562" type="line" smooth="yes"/>
      <point x="431" y="574"/>
      <point x="441" y="580"/>
      <point x="454" y="580" type="curve" smooth="yes"/>
      <point x="474" y="580"/>
      <point x="493" y="563"/>
      <point x="493" y="543" type="curve" smooth="yes"/>
      <point x="493" y="536"/>
      <point x="491" y="528"/>
      <point x="486" y="521" type="curve" smooth="yes"/>
      <point x="137" y="-12" type="line" smooth="yes"/>
      <point x="130" y="-23"/>
      <point x="120" y="-29"/>
      <point x="107" y="-29" type="curve" smooth="yes"/>
      <point x="87" y="-29"/>
      <point x="68" y="-12"/>
      <point x="68" y="8" type="curve" smooth="yes"/>
      <point x="68" y="15"/>
      <point x="70" y="22"/>
    </contour>
    <contour>
      <point x="154" y="591" type="curve" smooth="yes"/>
      <point x="191" y="591"/>
      <point x="223" y="578"/>
      <point x="250" y="551" type="curve" smooth="yes"/>
      <point x="277" y="525"/>
      <point x="291" y="493"/>
      <point x="291" y="455" type="curve" smooth="yes"/>
      <point x="291" y="418"/>
      <point x="277" y="386"/>
      <point x="250" y="359" type="curve" smooth="yes"/>
      <point x="223" y="333"/>
      <point x="191" y="320"/>
      <point x="154" y="320" type="curve" smooth="yes"/>
      <point x="116" y="320"/>
      <point x="84" y="333"/>
      <point x="57" y="359" type="curve" smooth="yes"/>
      <point x="30" y="386"/>
      <point x="17" y="418"/>
      <point x="17" y="455" type="curve" smooth="yes"/>
      <point x="17" y="493"/>
      <point x="30" y="525"/>
      <point x="57" y="551" type="curve" smooth="yes"/>
      <point x="84" y="578"/>
      <point x="116" y="591"/>
    </contour>
    <contour>
      <point x="152" y="518" type="curve" smooth="yes"/>
      <point x="117" y="518"/>
      <point x="90" y="490"/>
      <point x="90" y="458" type="curve" smooth="yes"/>
      <point x="90" y="425"/>
      <point x="117" y="397"/>
      <point x="152" y="397" type="curve" smooth="yes"/>
      <point x="185" y="397"/>
      <point x="214" y="425"/>
      <point x="214" y="458" type="curve" smooth="yes"/>
      <point x="214" y="490"/>
      <point x="185" y="518"/>
    </contour>
    <contour>
      <point x="464" y="299" type="curve" smooth="yes"/>
      <point x="505" y="299"/>
      <point x="539" y="284"/>
      <point x="567" y="253" type="curve" smooth="yes"/>
      <point x="595" y="223"/>
      <point x="609" y="187"/>
      <point x="609" y="146" type="curve" smooth="yes"/>
      <point x="609" y="104"/>
      <point x="595" y="68"/>
      <point x="567" y="38" type="curve" smooth="yes"/>
      <point x="539" y="8"/>
      <point x="505" y="-7"/>
      <point x="464" y="-7" type="curve" smooth="yes"/>
      <point x="423" y="-7"/>
      <point x="388" y="8"/>
      <point x="360" y="38" type="curve" smooth="yes"/>
      <point x="332" y="68"/>
      <point x="318" y="104"/>
      <point x="318" y="146" type="curve" smooth="yes"/>
      <point x="318" y="187"/>
      <point x="332" y="223"/>
      <point x="360" y="253" type="curve" smooth="yes"/>
      <point x="388" y="284"/>
      <point x="423" y="299"/>
    </contour>
    <contour>
      <point x="464" y="224" type="curve" smooth="yes"/>
      <point x="425" y="224"/>
      <point x="393" y="190"/>
      <point x="393" y="146" type="curve" smooth="yes"/>
      <point x="393" y="102"/>
      <point x="425" y="68"/>
      <point x="464" y="68" type="curve" smooth="yes"/>
      <point x="501" y="68"/>
      <point x="534" y="102"/>
      <point x="534" y="146" type="curve" smooth="yes"/>
      <point x="534" y="190"/>
      <point x="501" y="224"/>
    </contour>
  </outline>
</glyph>
<glyph name="ampersand" format="1">
  <advance width="509"/>
  <unicode hex="0026"/>
  <outline>
    <contour>
      <point x="345" y="74" type="curve"/>
      <point x="386" y="120" type="line" smooth="yes"/>
      <point x="394" y="129"/>
      <point x="403" y="134"/>
      <point x="414" y="134" type="curve" smooth="yes"/>
      <point x="434" y="134"/>
      <point x="453" y="116"/>
      <point x="453" y="96" type="curve" smooth="yes"/>
      <point x="453" y="87"/>
      <point x="450" y="79"/>
      <point x="443" y="72" type="curve" smooth="yes"/>
      <point x="430" y="56"/>
      <point x="411" y="35"/>
      <point x="387" y="10" type="curve"/>
      <point x="402" y="-14"/>
      <point x="428" y="-53"/>
      <point x="465" y="-107" type="curve" smooth="yes"/>
      <point x="470" y="-114"/>
      <point x="473" y="-122"/>
      <point x="473" y="-130" type="curve" smooth="yes"/>
      <point x="473" y="-150"/>
      <point x="454" y="-167"/>
      <point x="434" y="-167" type="curve" smooth="yes"/>
      <point x="421" y="-167"/>
      <point x="411" y="-162"/>
      <point x="404" y="-151" type="curve" smooth="yes"/>
      <point x="370" y="-102"/>
      <point x="341" y="-60"/>
      <point x="317" y="-24" type="curve"/>
      <point x="294" y="-30" type="line" smooth="yes"/>
      <point x="265" y="-37"/>
      <point x="235" y="-40"/>
      <point x="204" y="-40" type="curve" smooth="yes"/>
      <point x="153" y="-40"/>
      <point x="112" y="-31"/>
      <point x="79" y="-13" type="curve" smooth="yes"/>
      <point x="39" y="10"/>
      <point x="17" y="44"/>
      <point x="14" y="90" type="curve" smooth="yes"/>
      <point x="11" y="130"/>
      <point x="20" y="167"/>
      <point x="41" y="200" type="curve" smooth="yes"/>
      <point x="54" y="221"/>
      <point x="83" y="254"/>
      <point x="127" y="297" type="curve"/>
      <point x="91" y="360" type="line" smooth="yes"/>
      <point x="72" y="391"/>
      <point x="63" y="424"/>
      <point x="63" y="457" type="curve" smooth="yes"/>
      <point x="63" y="504"/>
      <point x="80" y="545"/>
      <point x="114" y="580" type="curve" smooth="yes"/>
      <point x="148" y="615"/>
      <point x="185" y="632"/>
      <point x="225" y="632" type="curve" smooth="yes"/>
      <point x="289" y="632"/>
      <point x="328" y="590"/>
      <point x="342" y="506" type="curve" smooth="yes"/>
      <point x="344" y="495"/>
      <point x="345" y="484"/>
      <point x="345" y="474" type="curve" smooth="yes"/>
      <point x="345" y="439"/>
      <point x="333" y="406"/>
      <point x="309" y="374" type="curve" smooth="yes"/>
      <point x="296" y="357"/>
      <point x="267" y="327"/>
      <point x="222" y="285" type="curve"/>
      <point x="250" y="236"/>
      <point x="291" y="165"/>
    </contour>
    <contour>
      <point x="88" y="96" type="curve" smooth="yes"/>
      <point x="92" y="54"/>
      <point x="132" y="33"/>
      <point x="209" y="33" type="curve" smooth="yes"/>
      <point x="232" y="33"/>
      <point x="255" y="35"/>
      <point x="277" y="40" type="curve"/>
      <point x="258" y="70"/>
      <point x="221" y="134"/>
      <point x="165" y="231" type="curve"/>
      <point x="133" y="201"/>
      <point x="113" y="179"/>
      <point x="104" y="164" type="curve" smooth="yes"/>
      <point x="91" y="145"/>
      <point x="86" y="122"/>
    </contour>
    <contour>
      <point x="241" y="550" type="curve" smooth="yes"/>
      <point x="236" y="555"/>
      <point x="230" y="558"/>
      <point x="222" y="558" type="curve" smooth="yes"/>
      <point x="204" y="558"/>
      <point x="186" y="548"/>
      <point x="167" y="527" type="curve" smooth="yes"/>
      <point x="148" y="506"/>
      <point x="139" y="482"/>
      <point x="139" y="455" type="curve" smooth="yes"/>
      <point x="139" y="435"/>
      <point x="145" y="416"/>
      <point x="156" y="397" type="curve" smooth="yes"/>
      <point x="182" y="351" type="line"/>
      <point x="217" y="385"/>
      <point x="239" y="409"/>
      <point x="250" y="422" type="curve" smooth="yes"/>
      <point x="268" y="445"/>
      <point x="277" y="465"/>
      <point x="277" y="484" type="curve" smooth="yes"/>
      <point x="277" y="505"/>
      <point x="265" y="527"/>
    </contour>
  </outline>
</glyph>
<glyph name="quotesingle" format="1">
  <advance width="244"/>
  <unicode hex="0027"/>
  <outline>
    <contour>
      <point x="161" y="606" type="curve" smooth="yes"/>
      <point x="161" y="445" type="line" smooth="yes"/>
      <point x="161" y="420"/>
      <point x="148" y="407"/>
      <point x="123" y="407" type="curve" smooth="yes"/>
      <point x="98" y="407"/>
      <point x="86" y="420"/>
      <point x="86" y="445" type="curve" smooth="yes"/>
      <point x="86" y="606" type="line" smooth="yes"/>
      <point x="86" y="631"/>
      <point x="98" y="644"/>
      <point x="123" y="644" type="curve" smooth="yes"/>
      <point x="148" y="644"/>
      <point x="161" y="631"/>
    </contour>
  </outline>
</glyph>
<glyph name="parenleft" format="1">
  <advance width="342"/>
  <unicode hex="0028"/>
  <outline>
    <contour>
      <point x="287" y="671" type="curve" smooth="yes"/>
      <point x="230" y="590"/>
      <point x="189" y="521"/>
      <point x="164" y="464" type="curve" smooth="yes"/>
      <point x="135" y="398"/>
      <point x="121" y="335"/>
      <point x="121" y="274" type="curve" smooth="yes"/>
      <point x="121" y="166"/>
      <point x="170" y="40"/>
      <point x="269" y="-105" type="curve" smooth="yes"/>
      <point x="274" y="-112"/>
      <point x="277" y="-120"/>
      <point x="277" y="-128" type="curve" smooth="yes"/>
      <point x="277" y="-148"/>
      <point x="261" y="-163"/>
      <point x="242" y="-163" type="curve" smooth="yes"/>
      <point x="230" y="-163"/>
      <point x="220" y="-157"/>
      <point x="213" y="-146" type="curve" smooth="yes"/>
      <point x="103" y="13"/>
      <point x="48" y="155"/>
      <point x="48" y="278" type="curve" smooth="yes"/>
      <point x="48" y="346"/>
      <point x="63" y="416"/>
      <point x="94" y="489" type="curve" smooth="yes"/>
      <point x="122" y="554"/>
      <point x="166" y="629"/>
      <point x="225" y="714" type="curve" smooth="yes"/>
      <point x="233" y="725"/>
      <point x="243" y="731"/>
      <point x="255" y="731" type="curve" smooth="yes"/>
      <point x="275" y="731"/>
      <point x="294" y="713"/>
      <point x="294" y="693" type="curve" smooth="yes"/>
      <point x="294" y="686"/>
      <point x="292" y="678"/>
    </contour>
  </outline>
</glyph>
<glyph name="parenright" format="1">
  <advance width="342"/>
  <unicode hex="0029"/>
  <outline>
    <contour>
      <point x="53" y="664" type="curve" smooth="yes"/>
      <point x="48" y="671"/>
      <point x="46" y="679"/>
      <point x="46" y="686" type="curve" smooth="yes"/>
      <point x="46" y="706"/>
      <point x="65" y="724"/>
      <point x="85" y="724" type="curve" smooth="yes"/>
      <point x="97" y="724"/>
      <point x="107" y="718"/>
      <point x="115" y="707" type="curve" smooth="yes"/>
      <point x="174" y="622"/>
      <point x="218" y="547"/>
      <point x="245" y="482" type="curve" smooth="yes"/>
      <point x="276" y="409"/>
      <point x="291" y="338"/>
      <point x="291" y="271" type="curve" smooth="yes"/>
      <point x="291" y="148"/>
      <point x="236" y="6"/>
      <point x="127" y="-153" type="curve" smooth="yes"/>
      <point x="119" y="-164"/>
      <point x="109" y="-170"/>
      <point x="98" y="-170" type="curve" smooth="yes"/>
      <point x="79" y="-170"/>
      <point x="62" y="-155"/>
      <point x="62" y="-135" type="curve" smooth="yes"/>
      <point x="62" y="-127"/>
      <point x="65" y="-119"/>
      <point x="70" y="-112" type="curve" smooth="yes"/>
      <point x="169" y="33"/>
      <point x="219" y="159"/>
      <point x="219" y="267" type="curve" smooth="yes"/>
      <point x="219" y="328"/>
      <point x="204" y="391"/>
      <point x="175" y="457" type="curve" smooth="yes"/>
      <point x="150" y="514"/>
      <point x="109" y="583"/>
    </contour>
  </outline>
</glyph>
<glyph name="asterisk" format="1">
  <advance width="406"/>
  <unicode hex="002A"/>
  <outline>
    <contour>
      <point x="116" y="461" type="line"/>
      <point x="46" y="500" type="line" smooth="yes"/>
      <point x="33" y="507"/>
      <point x="27" y="518"/>
      <point x="27" y="532" type="curve" smooth="yes"/>
      <point x="27" y="552"/>
      <point x="43" y="571"/>
      <point x="64" y="571" type="curve" smooth="yes"/>
      <point x="71" y="571"/>
      <point x="77" y="569"/>
      <point x="83" y="566" type="curve" smooth="yes"/>
      <point x="155" y="525" type="line"/>
      <point x="154" y="596" type="line" smooth="yes"/>
      <point x="154" y="621"/>
      <point x="167" y="634"/>
      <point x="192" y="634" type="curve" smooth="yes"/>
      <point x="217" y="634"/>
      <point x="229" y="622"/>
      <point x="229" y="597" type="curve" smooth="yes"/>
      <point x="229" y="592"/>
      <point x="230" y="568"/>
      <point x="231" y="523" type="curve"/>
      <point x="298" y="562" type="line" smooth="yes"/>
      <point x="305" y="565"/>
      <point x="311" y="567"/>
      <point x="317" y="567" type="curve" smooth="yes"/>
      <point x="338" y="567"/>
      <point x="356" y="547"/>
      <point x="356" y="526" type="curve" smooth="yes"/>
      <point x="356" y="512"/>
      <point x="350" y="501"/>
      <point x="337" y="494" type="curve" smooth="yes"/>
      <point x="269" y="457" type="line"/>
      <point x="348" y="413" type="line" smooth="yes"/>
      <point x="361" y="406"/>
      <point x="368" y="395"/>
      <point x="368" y="381" type="curve" smooth="yes"/>
      <point x="368" y="361"/>
      <point x="351" y="342"/>
      <point x="331" y="342" type="curve" smooth="yes"/>
      <point x="324" y="342"/>
      <point x="318" y="344"/>
      <point x="312" y="347" type="curve" smooth="yes"/>
      <point x="229" y="389" type="line"/>
      <point x="229" y="320" type="line" smooth="yes"/>
      <point x="229" y="295"/>
      <point x="217" y="282"/>
      <point x="192" y="282" type="curve" smooth="yes"/>
      <point x="167" y="282"/>
      <point x="154" y="295"/>
      <point x="154" y="320" type="curve" smooth="yes"/>
      <point x="154" y="393" type="line"/>
      <point x="72" y="345" type="line" smooth="yes"/>
      <point x="65" y="341"/>
      <point x="59" y="339"/>
      <point x="52" y="339" type="curve" smooth="yes"/>
      <point x="32" y="339"/>
      <point x="15" y="358"/>
      <point x="15" y="378" type="curve" smooth="yes"/>
      <point x="15" y="392"/>
      <point x="21" y="403"/>
      <point x="34" y="410" type="curve" smooth="yes"/>
    </contour>
  </outline>
</glyph>
<glyph name="plus" format="1">
  <advance width="388"/>
  <unicode hex="002B"/>
  <outline>
    <contour>
      <point x="230" y="419" type="line"/>
      <point x="325" y="419" type="line" smooth="yes"/>
      <point x="350" y="419"/>
      <point x="362" y="406"/>
      <point x="362" y="381" type="curve" smooth="yes"/>
      <point x="362" y="356"/>
      <point x="350" y="344"/>
      <point x="325" y="344" type="curve" smooth="yes"/>
      <point x="230" y="344" type="line"/>
      <point x="230" y="252" type="line" smooth="yes"/>
      <point x="230" y="227"/>
      <point x="217" y="214"/>
      <point x="192" y="214" type="curve" smooth="yes"/>
      <point x="167" y="214"/>
      <point x="155" y="227"/>
      <point x="155" y="252" type="curve" smooth="yes"/>
      <point x="155" y="343" type="line"/>
      <point x="63" y="344" type="line" smooth="yes"/>
      <point x="38" y="344"/>
      <point x="25" y="356"/>
      <point x="25" y="381" type="curve" smooth="yes"/>
      <point x="25" y="406"/>
      <point x="38" y="419"/>
      <point x="63" y="419" type="curve" smooth="yes"/>
      <point x="155" y="419" type="line"/>
      <point x="155" y="508" type="line" smooth="yes"/>
      <point x="155" y="533"/>
      <point x="167" y="546"/>
      <point x="192" y="546" type="curve" smooth="yes"/>
      <point x="217" y="546"/>
      <point x="230" y="533"/>
      <point x="230" y="508" type="curve" smooth="yes"/>
    </contour>
  </outline>
</glyph>
<glyph name="period" format="1">
  <advance width="230"/>
  <unicode hex="002E"/>
  <outline>
    <contour>
      <point x="50" y="60" type="curve" smooth="yes"/>
      <point x="50" y="97"/>
      <point x="79" y="128"/>
      <point x="115" y="128" type="curve" smooth="yes"/>
      <point x="151" y="128"/>
      <point x="180" y="97"/>
      <point x="180" y="60" type="curve" smooth="yes"/>
      <point x="180" y="23"/>
      <point x="151" y="-8"/>
      <point x="115" y="-8" type="curve" smooth="yes"/>
      <point x="79" y="-8"/>
      <point x="50" y="23"/>
    </contour>
  </outline>
</glyph>
<glyph name="one" format="1">
  <advance width="509"/>
  <unicode hex="0031"/>
  <outline>
    <contour>
      <point x="239" y="76" type="line"/>
      <point x="239" y="505" type="line"/>
      <point x="138" y="404" type="line" smooth="yes"/>
      <point x="129" y="395"/>
      <point x="120" y="391"/>
      <point x="109" y="391" type="curve" smooth="yes"/>
      <point x="89" y="391"/>
      <point x="70" y="408"/>
      <point x="70" y="427" type="curve" smooth="yes"/>
      <point x="70" y="436"/>
      <point x="74" y="445"/>
      <point x="81" y="452" type="curve" smooth="yes"/>
      <point x="238" y="609" type="line" smooth="yes"/>
      <point x="255" y="628"/>
      <point x="271" y="637"/>
      <point x="287" y="637" type="curve" smooth="yes"/>
      <point x="304" y="637"/>
      <point x="313" y="625"/>
      <point x="313" y="600" type="curve" smooth="yes"/>
      <point x="314" y="76" type="line"/>
      <point x="449" y="76" type="line" smooth="yes"/>
      <point x="474" y="76"/>
      <point x="486" y="63"/>
      <point x="486" y="38" type="curve" smooth="yes"/>
      <point x="486" y="13"/>
      <point x="474" y="1"/>
      <point x="449" y="1" type="curve" smooth="yes"/>
      <point x="313" y="1" type="line"/>
      <point x="313" y="-24"/>
      <point x="300" y="-37"/>
      <point x="275" y="-37" type="curve" smooth="yes"/>
      <point x="250" y="-37"/>
      <point x="238" y="-24"/>
      <point x="238" y="1" type="curve"/>
      <point x="126" y="1" type="line" smooth="yes"/>
      <point x="101" y="1"/>
      <point x="89" y="13"/>
      <point x="89" y="38" type="curve" smooth="yes"/>
      <point x="89" y="63"/>
      <point x="101" y="76"/>
      <point x="126" y="76" type="curve" smooth="yes"/>
    </contour>
  </outline>
</glyph>
<glyph name="two" format="1">
  <advance width="501"/>
  <unicode hex="0032"/>
  <outline>
    <contour>
      <point x="135" y="1" type="line"/>
      <point x="69" y="-52" type="line" smooth="yes"/>
      <point x="62" y="-58"/>
      <point x="54" y="-61"/>
      <point x="45" y="-61" type="curve" smooth="yes"/>
      <point x="25" y="-61"/>
      <point x="7" y="-42"/>
      <point x="7" y="-22" type="curve" smooth="yes"/>
      <point x="7" y="-11"/>
      <point x="12" y="-1"/>
      <point x="22" y="7" type="curve" smooth="yes"/>
      <point x="71" y="45"/>
      <point x="121" y="83"/>
      <point x="170" y="122" type="curve" smooth="yes"/>
      <point x="235" y="175"/>
      <point x="283" y="223"/>
      <point x="316" y="266" type="curve" smooth="yes"/>
      <point x="359" y="324"/>
      <point x="378" y="380"/>
      <point x="374" y="433" type="curve" smooth="yes"/>
      <point x="371" y="477"/>
      <point x="358" y="511"/>
      <point x="335" y="536" type="curve" smooth="yes"/>
      <point x="315" y="557"/>
      <point x="290" y="568"/>
      <point x="261" y="568" type="curve" smooth="yes"/>
      <point x="230" y="568"/>
      <point x="203" y="556"/>
      <point x="180" y="532" type="curve" smooth="yes"/>
      <point x="155" y="506"/>
      <point x="143" y="472"/>
      <point x="143" y="430" type="curve" smooth="yes"/>
      <point x="143" y="405"/>
      <point x="131" y="393"/>
      <point x="106" y="393" type="curve" smooth="yes"/>
      <point x="81" y="393"/>
      <point x="68" y="405"/>
      <point x="68" y="430" type="curve" smooth="yes"/>
      <point x="68" y="513"/>
      <point x="99" y="574"/>
      <point x="162" y="613" type="curve" smooth="yes"/>
      <point x="221" y="650"/>
      <point x="281" y="654"/>
      <point x="341" y="625" type="curve" smooth="yes"/>
      <point x="406" y="592"/>
      <point x="442" y="530"/>
      <point x="449" y="439" type="curve" smooth="yes"/>
      <point x="450" y="429"/>
      <point x="450" y="419"/>
      <point x="450" y="409" type="curve" smooth="yes"/>
      <point x="450" y="341"/>
      <point x="430" y="279"/>
      <point x="389" y="224" type="curve" smooth="yes"/>
      <point x="359" y="183"/>
      <point x="307" y="133"/>
      <point x="233" y="76" type="curve"/>
      <point x="443" y="76" type="line" smooth="yes"/>
      <point x="468" y="76"/>
      <point x="481" y="63"/>
      <point x="481" y="38" type="curve" smooth="yes"/>
      <point x="481" y="13"/>
      <point x="468" y="1"/>
      <point x="443" y="1" type="curve" smooth="yes"/>
    </contour>
  </outline>
</glyph>
<glyph name="three" format="1">
  <advance width="447"/>
  <unicode hex="0033"/>
  <outline>
    <contour>
      <point x="120" y="530" type="curve" smooth="yes"/>
      <point x="115" y="527"/>
      <point x="109" y="526"/>
      <point x="104" y="526" type="curve" smooth="yes"/>
      <point x="84" y="526"/>
      <point x="68" y="545"/>
      <point x="68" y="565" type="curve" smooth="yes"/>
      <point x="68" y="581"/>
      <point x="76" y="592"/>
      <point x="91" y="599" type="curve" smooth="yes"/>
      <point x="135" y="618"/>
      <point x="175" y="627"/>
      <point x="212" y="627" type="curve" smooth="yes"/>
      <point x="262" y="627"/>
      <point x="301" y="610"/>
      <point x="329" y="577" type="curve" smooth="yes"/>
      <point x="354" y="547"/>
      <point x="367" y="509"/>
      <point x="367" y="464" type="curve" smooth="yes"/>
      <point x="367" y="409"/>
      <point x="349" y="363"/>
      <point x="314" y="326" type="curve"/>
      <point x="347" y="307"/>
      <point x="373" y="282"/>
      <point x="392" y="251" type="curve" smooth="yes"/>
      <point x="412" y="218"/>
      <point x="422" y="184"/>
      <point x="422" y="148" type="curve" smooth="yes"/>
      <point x="422" y="137"/>
      <point x="421" y="127"/>
      <point x="419" y="117" type="curve" smooth="yes"/>
      <point x="411" y="68"/>
      <point x="389" y="31"/>
      <point x="352" y="4" type="curve" smooth="yes"/>
      <point x="319" y="-21"/>
      <point x="279" y="-33"/>
      <point x="233" y="-33" type="curve" smooth="yes"/>
      <point x="188" y="-33"/>
      <point x="147" y="-22"/>
      <point x="108" y="1" type="curve" smooth="yes"/>
      <point x="66" y="26"/>
      <point x="36" y="59"/>
      <point x="17" y="102" type="curve" smooth="yes"/>
      <point x="14" y="107"/>
      <point x="13" y="113"/>
      <point x="13" y="119" type="curve" smooth="yes"/>
      <point x="13" y="139"/>
      <point x="32" y="155"/>
      <point x="52" y="155" type="curve" smooth="yes"/>
      <point x="67" y="155"/>
      <point x="78" y="148"/>
      <point x="85" y="133" type="curve" smooth="yes"/>
      <point x="112" y="72"/>
      <point x="158" y="42"/>
      <point x="221" y="42" type="curve" smooth="yes"/>
      <point x="254" y="42"/>
      <point x="282" y="51"/>
      <point x="306" y="69" type="curve" smooth="yes"/>
      <point x="333" y="89"/>
      <point x="347" y="115"/>
      <point x="347" y="146" type="curve" smooth="yes"/>
      <point x="347" y="177"/>
      <point x="334" y="206"/>
      <point x="309" y="232" type="curve" smooth="yes"/>
      <point x="284" y="258"/>
      <point x="256" y="273"/>
      <point x="224" y="278" type="curve" smooth="yes"/>
      <point x="202" y="278"/>
      <point x="185" y="279"/>
      <point x="174" y="280" type="curve" smooth="yes"/>
      <point x="147" y="282"/>
      <point x="134" y="295"/>
      <point x="134" y="318" type="curve" smooth="yes"/>
      <point x="134" y="338"/>
      <point x="146" y="350"/>
      <point x="169" y="354" type="curve" smooth="yes"/>
      <point x="188" y="357"/>
      <point x="203" y="358"/>
      <point x="216" y="358" type="curve" smooth="yes"/>
      <point x="261" y="371"/>
      <point x="292" y="421"/>
      <point x="292" y="470" type="curve" smooth="yes"/>
      <point x="292" y="517"/>
      <point x="264" y="551"/>
      <point x="209" y="551" type="curve" smooth="yes"/>
      <point x="184" y="551"/>
      <point x="154" y="544"/>
    </contour>
  </outline>
</glyph>
<glyph name="four" format="1">
  <advance width="475"/>
  <unicode hex="0034"/>
  <outline>
    <contour>
      <point x="247" y="480" type="line"/>
      <point x="136" y="332" type="line"/>
      <point x="247" y="333" type="line"/>
    </contour>
    <contour>
      <point x="322" y="582" type="curve" smooth="yes"/>
      <point x="322" y="333" type="line"/>
      <point x="411" y="332" type="line" smooth="yes"/>
      <point x="436" y="332"/>
      <point x="449" y="320"/>
      <point x="449" y="295" type="curve" smooth="yes"/>
      <point x="449" y="270"/>
      <point x="436" y="257"/>
      <point x="411" y="257" type="curve" smooth="yes"/>
      <point x="322" y="258" type="line"/>
      <point x="322" y="1" type="line" smooth="yes"/>
      <point x="322" y="-24"/>
      <point x="310" y="-37"/>
      <point x="285" y="-37" type="curve" smooth="yes"/>
      <point x="260" y="-37"/>
      <point x="247" y="-24"/>
      <point x="247" y="1" type="curve" smooth="yes"/>
      <point x="247" y="258" type="line"/>
      <point x="60" y="257" type="line" smooth="yes"/>
      <point x="33" y="257"/>
      <point x="19" y="268"/>
      <point x="19" y="289" type="curve" smooth="yes"/>
      <point x="19" y="298"/>
      <point x="23" y="308"/>
      <point x="30" y="318" type="curve" smooth="yes"/>
      <point x="242" y="595" type="line" smooth="yes"/>
      <point x="257" y="615"/>
      <point x="273" y="625"/>
      <point x="290" y="625" type="curve" smooth="yes"/>
      <point x="311" y="625"/>
      <point x="322" y="611"/>
    </contour>
  </outline>
</glyph>
<glyph name="five" format="1">
  <advance width="509"/>
  <unicode hex="0035"/>
  <outline>
    <contour>
      <point x="187" y="560" type="line"/>
      <point x="187" y="434" type="line"/>
      <point x="208" y="441"/>
      <point x="234" y="445"/>
      <point x="264" y="445" type="curve" smooth="yes"/>
      <point x="334" y="445"/>
      <point x="389" y="421"/>
      <point x="429" y="374" type="curve" smooth="yes"/>
      <point x="466" y="330"/>
      <point x="485" y="273"/>
      <point x="485" y="203" type="curve" smooth="yes"/>
      <point x="485" y="132"/>
      <point x="465" y="76"/>
      <point x="425" y="33" type="curve" smooth="yes"/>
      <point x="385" y="-10"/>
      <point x="330" y="-31"/>
      <point x="260" y="-31" type="curve" smooth="yes"/>
      <point x="190" y="-31"/>
      <point x="134" y="-12"/>
      <point x="91" y="26" type="curve" smooth="yes"/>
      <point x="46" y="66"/>
      <point x="24" y="121"/>
      <point x="24" y="191" type="curve" smooth="yes"/>
      <point x="24" y="216"/>
      <point x="36" y="229"/>
      <point x="61" y="229" type="curve" smooth="yes"/>
      <point x="86" y="229"/>
      <point x="99" y="216"/>
      <point x="99" y="191" type="curve" smooth="yes"/>
      <point x="99" y="96"/>
      <point x="157" y="44"/>
      <point x="260" y="44" type="curve" smooth="yes"/>
      <point x="356" y="44"/>
      <point x="410" y="102"/>
      <point x="410" y="203" type="curve" smooth="yes"/>
      <point x="410" y="307"/>
      <point x="357" y="370"/>
      <point x="264" y="370" type="curve" smooth="yes"/>
      <point x="236" y="370"/>
      <point x="218" y="367"/>
      <point x="209" y="362" type="curve" smooth="yes"/>
      <point x="206" y="360"/>
      <point x="199" y="352"/>
      <point x="190" y="339" type="curve"/>
      <point x="186" y="308"/>
      <point x="173" y="292"/>
      <point x="151" y="292" type="curve" smooth="yes"/>
      <point x="130" y="292"/>
      <point x="112" y="311"/>
      <point x="112" y="335" type="curve" smooth="yes"/>
      <point x="112" y="592" type="line" smooth="yes"/>
      <point x="112" y="621"/>
      <point x="126" y="635"/>
      <point x="154" y="635" type="curve" smooth="yes"/>
      <point x="420" y="635" type="line" smooth="yes"/>
      <point x="445" y="635"/>
      <point x="458" y="623"/>
      <point x="458" y="598" type="curve" smooth="yes"/>
      <point x="458" y="573"/>
      <point x="445" y="560"/>
      <point x="420" y="560" type="curve" smooth="yes"/>
    </contour>
  </outline>
</glyph>
<glyph name="six" format="1">
  <advance width="489"/>
  <unicode hex="0036"/>
  <outline>
    <contour>
      <point x="351" y="560" type="curve" smooth="yes"/>
      <point x="290" y="539"/>
      <point x="235" y="489"/>
      <point x="184" y="410" type="curve" smooth="yes"/>
      <point x="134" y="332"/>
      <point x="109" y="258"/>
      <point x="109" y="189" type="curve" smooth="yes"/>
      <point x="109" y="105"/>
      <point x="149" y="59"/>
      <point x="228" y="50" type="curve" smooth="yes"/>
      <point x="235" y="49"/>
      <point x="241" y="48"/>
      <point x="247" y="48" type="curve" smooth="yes"/>
      <point x="286" y="48"/>
      <point x="318" y="62"/>
      <point x="343" y="90" type="curve" smooth="yes"/>
      <point x="366" y="115"/>
      <point x="377" y="143"/>
      <point x="377" y="176" type="curve" smooth="yes"/>
      <point x="377" y="199"/>
      <point x="371" y="218"/>
      <point x="359" y="234" type="curve" smooth="yes"/>
      <point x="345" y="251"/>
      <point x="326" y="260"/>
      <point x="301" y="263" type="curve" smooth="yes"/>
      <point x="265" y="267"/>
      <point x="250" y="259"/>
      <point x="219" y="222" type="curve" smooth="yes"/>
      <point x="211" y="213"/>
      <point x="201" y="208"/>
      <point x="190" y="208" type="curve" smooth="yes"/>
      <point x="170" y="208"/>
      <point x="151" y="225"/>
      <point x="151" y="246" type="curve" smooth="yes"/>
      <point x="151" y="254"/>
      <point x="154" y="262"/>
      <point x="160" y="269" type="curve" smooth="yes"/>
      <point x="198" y="316"/>
      <point x="243" y="340"/>
      <point x="294" y="340" type="curve" smooth="yes"/>
      <point x="365" y="340"/>
      <point x="427" y="289"/>
      <point x="451" y="204" type="curve" smooth="yes"/>
      <point x="454" y="190"/>
      <point x="456" y="176"/>
      <point x="456" y="163" type="curve" smooth="yes"/>
      <point x="456" y="111"/>
      <point x="433" y="66"/>
      <point x="387" y="29" type="curve" smooth="yes"/>
      <point x="342" y="-8"/>
      <point x="293" y="-26"/>
      <point x="240" y="-26" type="curve" smooth="yes"/>
      <point x="113" y="-26"/>
      <point x="34" y="57"/>
      <point x="34" y="184" type="curve" smooth="yes"/>
      <point x="34" y="271"/>
      <point x="63" y="360"/>
      <point x="121" y="451" type="curve" smooth="yes"/>
      <point x="181" y="544"/>
      <point x="249" y="604"/>
      <point x="326" y="631" type="curve" smooth="yes"/>
      <point x="331" y="632"/>
      <point x="335" y="633"/>
      <point x="340" y="633" type="curve" smooth="yes"/>
      <point x="361" y="633"/>
      <point x="376" y="615"/>
      <point x="376" y="594" type="curve" smooth="yes"/>
      <point x="376" y="577"/>
      <point x="368" y="566"/>
    </contour>
  </outline>
</glyph>
<glyph name="seven" format="1">
  <advance width="569"/>
  <unicode hex="0037"/>
  <outline>
    <contour>
      <point x="143" y="631" type="curve" smooth="yes"/>
      <point x="503" y="631" type="line" smooth="yes"/>
      <point x="530" y="631"/>
      <point x="543" y="620"/>
      <point x="543" y="599" type="curve" smooth="yes"/>
      <point x="543" y="591"/>
      <point x="541" y="583"/>
      <point x="536" y="575" type="curve" smooth="yes"/>
      <point x="100" y="-163" type="line" smooth="yes"/>
      <point x="93" y="-176"/>
      <point x="82" y="-182"/>
      <point x="69" y="-182" type="curve" smooth="yes"/>
      <point x="49" y="-182"/>
      <point x="30" y="-166"/>
      <point x="30" y="-145" type="curve" smooth="yes"/>
      <point x="30" y="-138"/>
      <point x="32" y="-132"/>
      <point x="36" y="-125" type="curve" smooth="yes"/>
      <point x="438" y="556" type="line"/>
      <point x="143" y="556" type="line" smooth="yes"/>
      <point x="118" y="556"/>
      <point x="106" y="569"/>
      <point x="106" y="594" type="curve" smooth="yes"/>
      <point x="106" y="619"/>
      <point x="118" y="631"/>
    </contour>
  </outline>
</glyph>
<glyph name="eight" format="1">
  <advance width="484"/>
  <unicode hex="0038"/>
  <outline>
    <contour>
      <point x="65" y="468" type="curve" smooth="yes"/>
      <point x="65" y="513"/>
      <point x="81" y="552"/>
      <point x="112" y="585" type="curve" smooth="yes"/>
      <point x="143" y="618"/>
      <point x="182" y="635"/>
      <point x="227" y="635" type="curve" smooth="yes"/>
      <point x="272" y="635"/>
      <point x="310" y="618"/>
      <point x="341" y="585" type="curve" smooth="yes"/>
      <point x="372" y="552"/>
      <point x="388" y="513"/>
      <point x="388" y="468" type="curve" smooth="yes"/>
      <point x="388" y="435"/>
      <point x="380" y="407"/>
      <point x="365" y="382" type="curve"/>
      <point x="392" y="359"/>
      <point x="414" y="332"/>
      <point x="431" y="299" type="curve" smooth="yes"/>
      <point x="449" y="263"/>
      <point x="458" y="227"/>
      <point x="458" y="192" type="curve" smooth="yes"/>
      <point x="458" y="129"/>
      <point x="437" y="74"/>
      <point x="394" y="28" type="curve" smooth="yes"/>
      <point x="351" y="-17"/>
      <point x="299" y="-40"/>
      <point x="238" y="-40" type="curve" smooth="yes"/>
      <point x="177" y="-40"/>
      <point x="126" y="-17"/>
      <point x="83" y="28" type="curve" smooth="yes"/>
      <point x="40" y="74"/>
      <point x="19" y="129"/>
      <point x="19" y="192" type="curve" smooth="yes"/>
      <point x="19" y="259"/>
      <point x="45" y="318"/>
      <point x="97" y="367" type="curve"/>
      <point x="76" y="395"/>
      <point x="65" y="429"/>
    </contour>
    <contour>
      <point x="94" y="192" type="curve" smooth="yes"/>
      <point x="94" y="148"/>
      <point x="108" y="111"/>
      <point x="137" y="80" type="curve" smooth="yes"/>
      <point x="166" y="50"/>
      <point x="199" y="35"/>
      <point x="238" y="35" type="curve" smooth="yes"/>
      <point x="277" y="35"/>
      <point x="311" y="50"/>
      <point x="340" y="80" type="curve" smooth="yes"/>
      <point x="369" y="111"/>
      <point x="383" y="148"/>
      <point x="383" y="192" type="curve" smooth="yes"/>
      <point x="383" y="253"/>
      <point x="361" y="298"/>
      <point x="318" y="329" type="curve"/>
      <point x="291" y="310"/>
      <point x="260" y="301"/>
      <point x="227" y="301" type="curve" smooth="yes"/>
      <point x="199" y="301"/>
      <point x="173" y="308"/>
      <point x="150" y="321" type="curve"/>
      <point x="113" y="288"/>
      <point x="94" y="245"/>
    </contour>
    <contour>
      <point x="227" y="560" type="curve" smooth="yes"/>
      <point x="180" y="560"/>
      <point x="140" y="520"/>
      <point x="140" y="468" type="curve" smooth="yes"/>
      <point x="140" y="416"/>
      <point x="180" y="376"/>
      <point x="227" y="376" type="curve" smooth="yes"/>
      <point x="274" y="376"/>
      <point x="313" y="416"/>
      <point x="313" y="468" type="curve" smooth="yes"/>
      <point x="313" y="520"/>
      <point x="274" y="560"/>
    </contour>
  </outline>
</glyph>
<glyph name="nine" format="1">
  <advance width="489"/>
  <unicode hex="0039"/>
  <outline>
    <contour>
      <point x="93" y="-55" type="curve" smooth="yes"/>
      <point x="158" y="-33"/>
      <point x="220" y="29"/>
      <point x="281" y="132" type="curve" smooth="yes"/>
      <point x="342" y="235"/>
      <point x="372" y="328"/>
      <point x="372" y="411" type="curve" smooth="yes"/>
      <point x="372" y="495"/>
      <point x="337" y="541"/>
      <point x="266" y="549" type="curve" smooth="yes"/>
      <point x="259" y="550"/>
      <point x="253" y="550"/>
      <point x="247" y="550" type="curve" smooth="yes"/>
      <point x="208" y="550"/>
      <point x="175" y="536"/>
      <point x="150" y="509" type="curve" smooth="yes"/>
      <point x="128" y="484"/>
      <point x="117" y="456"/>
      <point x="117" y="423" type="curve" smooth="yes"/>
      <point x="117" y="400"/>
      <point x="123" y="380"/>
      <point x="135" y="365" type="curve" smooth="yes"/>
      <point x="149" y="348"/>
      <point x="168" y="338"/>
      <point x="193" y="336" type="curve" smooth="yes"/>
      <point x="229" y="332"/>
      <point x="244" y="338"/>
      <point x="275" y="377" type="curve" smooth="yes"/>
      <point x="283" y="386"/>
      <point x="293" y="391"/>
      <point x="304" y="391" type="curve" smooth="yes"/>
      <point x="324" y="391"/>
      <point x="343" y="373"/>
      <point x="343" y="353" type="curve" smooth="yes"/>
      <point x="343" y="345"/>
      <point x="340" y="337"/>
      <point x="334" y="329" type="curve" smooth="yes"/>
      <point x="296" y="282"/>
      <point x="251" y="259"/>
      <point x="200" y="259" type="curve" smooth="yes"/>
      <point x="129" y="259"/>
      <point x="67" y="310"/>
      <point x="43" y="395" type="curve" smooth="yes"/>
      <point x="40" y="409"/>
      <point x="38" y="423"/>
      <point x="38" y="436" type="curve" smooth="yes"/>
      <point x="38" y="488"/>
      <point x="61" y="533"/>
      <point x="108" y="571" type="curve" smooth="yes"/>
      <point x="153" y="607"/>
      <point x="201" y="625"/>
      <point x="254" y="625" type="curve" smooth="yes"/>
      <point x="316" y="625"/>
      <point x="364" y="605"/>
      <point x="397" y="564" type="curve" smooth="yes"/>
      <point x="429" y="527"/>
      <point x="445" y="477"/>
      <point x="445" y="414" type="curve" smooth="yes"/>
      <point x="445" y="311"/>
      <point x="411" y="203"/>
      <point x="343" y="90" type="curve" smooth="yes"/>
      <point x="274" y="-26"/>
      <point x="198" y="-98"/>
      <point x="117" y="-126" type="curve" smooth="yes"/>
      <point x="114" y="-127"/>
      <point x="110" y="-128"/>
      <point x="106" y="-128" type="curve" smooth="yes"/>
      <point x="85" y="-128"/>
      <point x="69" y="-108"/>
      <point x="69" y="-87" type="curve" smooth="yes"/>
      <point x="69" y="-72"/>
      <point x="77" y="-61"/>
    </contour>
  </outline>
</glyph>
<glyph name="colon" format="1">
  <advance width="276"/>
  <unicode hex="003A"/>
  <outline>
    <contour>
      <point x="42" y="84" type="curve" smooth="yes"/>
      <point x="42" y="139"/>
      <point x="83" y="182"/>
      <point x="135" y="182" type="curve" smooth="yes"/>
      <point x="186" y="182"/>
      <point x="227" y="139"/>
      <point x="227" y="84" type="curve" smooth="yes"/>
      <point x="227" y="31"/>
      <point x="186" y="-14"/>
      <point x="135" y="-14" type="curve" smooth="yes"/>
      <point x="83" y="-14"/>
      <point x="42" y="31"/>
    </contour>
    <contour>
      <point x="42" y="384" type="curve" smooth="yes"/>
      <point x="42" y="439"/>
      <point x="83" y="482"/>
      <point x="135" y="482" type="curve" smooth="yes"/>
      <point x="186" y="482"/>
      <point x="227" y="439"/>
      <point x="227" y="384" type="curve" smooth="yes"/>
      <point x="227" y="331"/>
      <point x="186" y="286"/>
      <point x="135" y="286" type="curve" smooth="yes"/>
      <point x="83" y="286"/>
      <point x="42" y="331"/>
    </contour>
  </outline>
</glyph>
<glyph name="semicolon" format="1">
  <advance width="276"/>
  <unicode hex="003B"/>
  <outline>
    <contour>
      <point x="42" y="84" type="curve" smooth="yes"/>
      <point x="42" y="139"/>
      <point x="83" y="182"/>
      <point x="135" y="182" type="curve" smooth="yes"/>
      <point x="186" y="182"/>
      <point x="227" y="139"/>
      <point x="227" y="84" type="curve" smooth="yes"/>
      <point x="227" y="53"/>
      <point x="213" y="18"/>
      <point x="185" y="-21" type="curve" smooth="yes"/>
      <point x="154" y="-64"/>
      <point x="122" y="-86"/>
      <point x="89" y="-86" type="curve"/>
      <point x="94" y="-76"/>
      <point x="100" y="-61"/>
      <point x="106" y="-41" type="curve" smooth="yes"/>
      <point x="112" y="-22"/>
      <point x="115" y="-8"/>
      <point x="115" y="1" type="curve"/>
      <point x="74" y="1"/>
      <point x="42" y="43"/>
    </contour>
    <contour>
      <point x="42" y="384" type="curve" smooth="yes"/>
      <point x="42" y="439"/>
      <point x="83" y="482"/>
      <point x="135" y="482" type="curve" smooth="yes"/>
      <point x="186" y="482"/>
      <point x="227" y="439"/>
      <point x="227" y="384" type="curve" smooth="yes"/>
      <point x="227" y="331"/>
      <point x="186" y="286"/>
      <point x="135" y="286" type="curve" smooth="yes"/>
      <point x="83" y="286"/>
      <point x="42" y="331"/>
    </contour>
  </outline>
</glyph>
<glyph name="less" format="1">
  <advance width="386"/>
  <unicode hex="003C"/>
  <outline>
    <contour>
      <point x="323" y="531" type="curve" smooth="yes"/>
      <point x="113" y="321" type="line"/>
      <point x="323" y="111" type="line" smooth="yes"/>
      <point x="330" y="103"/>
      <point x="334" y="94"/>
      <point x="334" y="85" type="curve" smooth="yes"/>
      <point x="334" y="64"/>
      <point x="316" y="46"/>
      <point x="296" y="46" type="curve" smooth="yes"/>
      <point x="286" y="46"/>
      <point x="277" y="50"/>
      <point x="270" y="58" type="curve" smooth="yes"/>
      <point x="86" y="232" type="line" smooth="yes"/>
      <point x="45" y="271"/>
      <point x="25" y="301"/>
      <point x="25" y="321" type="curve" smooth="yes"/>
      <point x="25" y="341"/>
      <point x="45" y="371"/>
      <point x="86" y="410" type="curve" smooth="yes"/>
      <point x="270" y="584" type="line" smooth="yes"/>
      <point x="277" y="591"/>
      <point x="286" y="595"/>
      <point x="296" y="595" type="curve" smooth="yes"/>
      <point x="316" y="595"/>
      <point x="334" y="577"/>
      <point x="334" y="557" type="curve" smooth="yes"/>
      <point x="334" y="547"/>
      <point x="330" y="538"/>
    </contour>
  </outline>
</glyph>
<glyph name="equal" format="1">
  <advance width="657"/>
  <unicode hex="003D"/>
  <outline>
    <contour>
      <point x="144" y="534" type="curve" smooth="yes"/>
      <point x="513" y="534" type="line" smooth="yes"/>
      <point x="538" y="534"/>
      <point x="550" y="522"/>
      <point x="550" y="497" type="curve" smooth="yes"/>
      <point x="550" y="472"/>
      <point x="538" y="459"/>
      <point x="513" y="459" type="curve" smooth="yes"/>
      <point x="144" y="459" type="line" smooth="yes"/>
      <point x="119" y="459"/>
      <point x="106" y="472"/>
      <point x="106" y="497" type="curve" smooth="yes"/>
      <point x="106" y="522"/>
      <point x="119" y="534"/>
    </contour>
    <contour>
      <point x="144" y="332" type="curve" smooth="yes"/>
      <point x="513" y="332" type="line" smooth="yes"/>
      <point x="538" y="332"/>
      <point x="550" y="320"/>
      <point x="550" y="295" type="curve" smooth="yes"/>
      <point x="550" y="270"/>
      <point x="538" y="257"/>
      <point x="513" y="257" type="curve" smooth="yes"/>
      <point x="144" y="257" type="line" smooth="yes"/>
      <point x="119" y="257"/>
      <point x="106" y="270"/>
      <point x="106" y="295" type="curve" smooth="yes"/>
      <point x="106" y="320"/>
      <point x="119" y="332"/>
    </contour>
  </outline>
</glyph>
<glyph name="greater" format="1">
  <advance width="391"/>
  <unicode hex="003E"/>
  <outline>
    <contour>
      <point x="52" y="531" type="line" smooth="yes"/>
      <point x="44" y="538"/>
      <point x="40" y="547"/>
      <point x="40" y="557" type="curve" smooth="yes"/>
      <point x="40" y="577"/>
      <point x="58" y="595"/>
      <point x="79" y="595" type="curve" smooth="yes"/>
      <point x="88" y="595"/>
      <point x="97" y="591"/>
      <point x="105" y="584" type="curve" smooth="yes"/>
      <point x="289" y="410" type="line" smooth="yes"/>
      <point x="330" y="371"/>
      <point x="350" y="341"/>
      <point x="350" y="321" type="curve" smooth="yes"/>
      <point x="350" y="301"/>
      <point x="330" y="271"/>
      <point x="289" y="232" type="curve" smooth="yes"/>
      <point x="105" y="58" type="line" smooth="yes"/>
      <point x="97" y="50"/>
      <point x="88" y="46"/>
      <point x="79" y="46" type="curve" smooth="yes"/>
      <point x="58" y="46"/>
      <point x="40" y="64"/>
      <point x="40" y="85" type="curve" smooth="yes"/>
      <point x="40" y="94"/>
      <point x="44" y="103"/>
      <point x="52" y="111" type="curve" smooth="yes"/>
      <point x="262" y="321" type="line"/>
    </contour>
  </outline>
</glyph>
<glyph name="question" format="1">
  <advance width="449"/>
  <unicode hex="003F"/>
  <outline>
    <contour>
      <point x="22" y="470" type="curve" smooth="yes"/>
      <point x="25" y="533"/>
      <point x="46" y="582"/>
      <point x="84" y="616" type="curve" smooth="yes"/>
      <point x="117" y="646"/>
      <point x="159" y="661"/>
      <point x="208" y="661" type="curve" smooth="yes"/>
      <point x="267" y="661"/>
      <point x="318" y="642"/>
      <point x="361" y="604" type="curve" smooth="yes"/>
      <point x="407" y="562"/>
      <point x="428" y="510"/>
      <point x="423" y="448" type="curve" smooth="yes"/>
      <point x="419" y="401"/>
      <point x="401" y="360"/>
      <point x="369" y="327" type="curve" smooth="yes"/>
      <point x="337" y="294"/>
      <point x="298" y="274"/>
      <point x="253" y="267" type="curve"/>
      <point x="253" y="142" type="line" smooth="yes"/>
      <point x="253" y="117"/>
      <point x="240" y="104"/>
      <point x="215" y="104" type="curve" smooth="yes"/>
      <point x="190" y="104"/>
      <point x="178" y="117"/>
      <point x="178" y="142" type="curve" smooth="yes"/>
      <point x="178" y="303" type="line" smooth="yes"/>
      <point x="178" y="322"/>
      <point x="192" y="335"/>
      <point x="220" y="342" type="curve" smooth="yes"/>
      <point x="265" y="353"/>
      <point x="291" y="361"/>
      <point x="299" y="366" type="curve" smooth="yes"/>
      <point x="328" y="383"/>
      <point x="345" y="412"/>
      <point x="348" y="453" type="curve" smooth="yes"/>
      <point x="351" y="491"/>
      <point x="338" y="523"/>
      <point x="307" y="550" type="curve" smooth="yes"/>
      <point x="279" y="575"/>
      <point x="246" y="587"/>
      <point x="209" y="587" type="curve" smooth="yes"/>
      <point x="179" y="587"/>
      <point x="154" y="578"/>
      <point x="134" y="559" type="curve" smooth="yes"/>
      <point x="111" y="538"/>
      <point x="99" y="507"/>
      <point x="97" y="466" type="curve" smooth="yes"/>
      <point x="96" y="442"/>
      <point x="83" y="430"/>
      <point x="60" y="430" type="curve" smooth="yes"/>
      <point x="33" y="430"/>
      <point x="21" y="443"/>
    </contour>
    <contour>
      <point x="152" y="15" type="curve" smooth="yes"/>
      <point x="152" y="48"/>
      <point x="182" y="76"/>
      <point x="218" y="76" type="curve" smooth="yes"/>
      <point x="255" y="76"/>
      <point x="285" y="48"/>
      <point x="285" y="15" type="curve" smooth="yes"/>
      <point x="285" y="-18"/>
      <point x="255" y="-45"/>
      <point x="218" y="-45" type="curve" smooth="yes"/>
      <point x="182" y="-45"/>
      <point x="152" y="-18"/>
    </contour>
  </outline>
</glyph>
<glyph name="at" format="1">
  <advance width="697"/>
  <unicode hex="0040"/>
  <outline>
    <contour>
      <point x="374" y="442" type="curve" smooth="yes"/>
      <point x="363" y="485"/>
      <point x="337" y="507"/>
      <point x="296" y="507" type="curve" smooth="yes"/>
      <point x="253" y="507"/>
      <point x="215" y="475"/>
      <point x="204" y="419" type="curve" smooth="yes"/>
      <point x="203" y="411"/>
      <point x="202" y="403"/>
      <point x="202" y="396" type="curve" smooth="yes"/>
      <point x="202" y="363"/>
      <point x="215" y="336"/>
      <point x="240" y="317" type="curve" smooth="yes"/>
      <point x="265" y="298"/>
      <point x="296" y="291"/>
      <point x="331" y="295" type="curve" smooth="yes"/>
      <point x="411" y="304"/>
      <point x="451" y="341"/>
      <point x="451" y="406" type="curve" smooth="yes"/>
      <point x="451" y="496" type="line" smooth="yes"/>
      <point x="451" y="506"/>
      <point x="451" y="511"/>
      <point x="451" y="510" type="curve" smooth="yes"/>
      <point x="451" y="508"/>
      <point x="451" y="506"/>
      <point x="450" y="505" type="curve" smooth="yes"/>
      <point x="450" y="518" type="line" smooth="yes"/>
      <point x="451" y="538"/>
      <point x="461" y="548"/>
      <point x="480" y="548" type="curve" smooth="yes"/>
      <point x="501" y="548"/>
      <point x="511" y="538"/>
      <point x="510" y="517" type="curve" smooth="yes"/>
      <point x="510" y="504" type="line" smooth="yes"/>
      <point x="511" y="505"/>
      <point x="511" y="507"/>
      <point x="511" y="509" type="curve" smooth="yes"/>
      <point x="511" y="510"/>
      <point x="511" y="505"/>
      <point x="511" y="496" type="curve" smooth="yes"/>
      <point x="511" y="406" type="line" smooth="yes"/>
      <point x="511" y="350"/>
      <point x="491" y="307"/>
      <point x="452" y="276" type="curve" smooth="yes"/>
      <point x="416" y="248"/>
      <point x="370" y="234"/>
      <point x="313" y="234" type="curve" smooth="yes"/>
      <point x="261" y="234"/>
      <point x="219" y="252"/>
      <point x="186" y="287" type="curve" smooth="yes"/>
      <point x="156" y="319"/>
      <point x="141" y="358"/>
      <point x="141" y="403" type="curve" smooth="yes"/>
      <point x="141" y="478"/>
      <point x="189" y="544"/>
      <point x="281" y="567" type="curve" smooth="yes"/>
      <point x="287" y="568"/>
      <point x="294" y="569"/>
      <point x="301" y="569" type="curve" smooth="yes"/>
      <point x="328" y="569"/>
      <point x="357" y="556"/>
      <point x="387" y="529" type="curve" smooth="yes"/>
      <point x="418" y="502"/>
      <point x="433" y="476"/>
      <point x="433" y="449" type="curve" smooth="yes"/>
      <point x="433" y="430"/>
      <point x="423" y="420"/>
      <point x="402" y="420" type="curve" smooth="yes"/>
      <point x="387" y="420"/>
      <point x="378" y="427"/>
    </contour>
    <contour>
      <point x="343" y="728" type="curve" smooth="yes"/>
      <point x="434" y="728"/>
      <point x="511" y="697"/>
      <point x="575" y="635" type="curve" smooth="yes"/>
      <point x="639" y="573"/>
      <point x="671" y="498"/>
      <point x="671" y="409" type="curve" smooth="yes"/>
      <point x="671" y="321"/>
      <point x="639" y="246"/>
      <point x="575" y="183" type="curve" smooth="yes"/>
      <point x="511" y="121"/>
      <point x="434" y="90"/>
      <point x="343" y="90" type="curve" smooth="yes"/>
      <point x="252" y="90"/>
      <point x="175" y="121"/>
      <point x="110" y="183" type="curve" smooth="yes"/>
      <point x="46" y="246"/>
      <point x="14" y="321"/>
      <point x="14" y="409" type="curve" smooth="yes"/>
      <point x="14" y="498"/>
      <point x="46" y="573"/>
      <point x="110" y="635" type="curve" smooth="yes"/>
      <point x="175" y="697"/>
      <point x="252" y="728"/>
    </contour>
    <contour>
      <point x="343" y="672" type="curve" smooth="yes"/>
      <point x="268" y="672"/>
      <point x="203" y="646"/>
      <point x="150" y="595" type="curve" smooth="yes"/>
      <point x="97" y="544"/>
      <point x="70" y="482"/>
      <point x="70" y="409" type="curve" smooth="yes"/>
      <point x="70" y="337"/>
      <point x="97" y="275"/>
      <point x="150" y="224" type="curve" smooth="yes"/>
      <point x="203" y="173"/>
      <point x="268" y="147"/>
      <point x="343" y="147" type="curve" smooth="yes"/>
      <point x="418" y="147"/>
      <point x="482" y="173"/>
      <point x="535" y="224" type="curve" smooth="yes"/>
      <point x="588" y="275"/>
      <point x="615" y="337"/>
      <point x="615" y="409" type="curve" smooth="yes"/>
      <point x="615" y="482"/>
      <point x="588" y="544"/>
      <point x="535" y="595" type="curve" smooth="yes"/>
      <point x="482" y="646"/>
      <point x="418" y="672"/>
    </contour>
  </outline>
</glyph>
<glyph name="B" format="1">
  <advance width="535"/>
  <unicode hex="0042"/>
  <outline>
    <contour>
      <point x="187" y="521" type="curve"/>
      <point x="187" y="304" type="line"/>
      <point x="276" y="304"/>
      <point x="337" y="317"/>
      <point x="369" y="344" type="curve" smooth="yes"/>
      <point x="389" y="361"/>
      <point x="399" y="388"/>
      <point x="400" y="425" type="curve" smooth="yes"/>
      <point x="401" y="488"/>
      <point x="330" y="520"/>
    </contour>
    <contour>
      <point x="112" y="1" type="curve" smooth="yes"/>
      <point x="112" y="225" type="line"/>
      <point x="103" y="218"/>
      <point x="94" y="214"/>
      <point x="83" y="214" type="curve" smooth="yes"/>
      <point x="58" y="214"/>
      <point x="37" y="236"/>
      <point x="37" y="263" type="curve" smooth="yes"/>
      <point x="37" y="291"/>
      <point x="58" y="313"/>
      <point x="83" y="313" type="curve" smooth="yes"/>
      <point x="94" y="313"/>
      <point x="103" y="310"/>
      <point x="111" y="303" type="curve"/>
      <point x="111" y="517" type="line"/>
      <point x="102" y="516"/>
      <point x="78" y="516"/>
      <point x="37" y="517" type="curve" smooth="yes"/>
      <point x="13" y="517"/>
      <point x="1" y="529"/>
      <point x="1" y="553" type="curve" smooth="yes"/>
      <point x="1" y="579"/>
      <point x="14" y="592"/>
      <point x="39" y="592" type="curve" smooth="yes"/>
      <point x="68" y="591"/>
      <point x="93" y="591"/>
      <point x="112" y="592" type="curve"/>
      <point x="111" y="619"/>
      <point x="124" y="632"/>
      <point x="150" y="632" type="curve" smooth="yes"/>
      <point x="175" y="632"/>
      <point x="187" y="619"/>
      <point x="187" y="594" type="curve"/>
      <point x="280" y="595"/>
      <point x="346" y="588"/>
      <point x="387" y="571" type="curve" smooth="yes"/>
      <point x="446" y="546"/>
      <point x="476" y="497"/>
      <point x="475" y="424" type="curve" smooth="yes"/>
      <point x="474" y="359"/>
      <point x="444" y="308"/>
      <point x="383" y="272" type="curve"/>
      <point x="475" y="235"/>
      <point x="521" y="163"/>
      <point x="521" y="58" type="curve" smooth="yes"/>
      <point x="521" y="-42"/>
      <point x="477" y="-111"/>
      <point x="388" y="-150" type="curve" smooth="yes"/>
      <point x="319" y="-180"/>
      <point x="209" y="-195"/>
      <point x="60" y="-195" type="curve" smooth="yes"/>
      <point x="35" y="-195"/>
      <point x="22" y="-183"/>
      <point x="22" y="-158" type="curve" smooth="yes"/>
      <point x="22" y="-133"/>
      <point x="35" y="-120"/>
      <point x="60" y="-120" type="curve" smooth="yes"/>
      <point x="193" y="-120"/>
      <point x="289" y="-108"/>
      <point x="348" y="-83" type="curve" smooth="yes"/>
      <point x="413" y="-56"/>
      <point x="446" y="-9"/>
      <point x="446" y="58" type="curve" smooth="yes"/>
      <point x="446" y="113"/>
      <point x="421" y="156"/>
      <point x="370" y="187" type="curve" smooth="yes"/>
      <point x="323" y="216"/>
      <point x="262" y="230"/>
      <point x="187" y="229" type="curve"/>
      <point x="187" y="1" type="line" smooth="yes"/>
      <point x="187" y="-24"/>
      <point x="174" y="-37"/>
      <point x="149" y="-37" type="curve" smooth="yes"/>
      <point x="124" y="-37"/>
      <point x="112" y="-24"/>
    </contour>
  </outline>
</glyph>
<glyph name="C" format="1">
  <advance width="485"/>
  <unicode hex="0043"/>
  <outline>
    <contour>
      <point x="455" y="47" type="curve" smooth="yes"/>
      <point x="412" y="-25"/>
      <point x="340" y="-61"/>
      <point x="240" y="-61" type="curve" smooth="yes"/>
      <point x="163" y="-61"/>
      <point x="104" y="-28"/>
      <point x="63" y="38" type="curve" smooth="yes"/>
      <point x="26" y="98"/>
      <point x="7" y="178"/>
      <point x="7" y="279" type="curve" smooth="yes"/>
      <point x="7" y="380"/>
      <point x="28" y="463"/>
      <point x="69" y="529" type="curve" smooth="yes"/>
      <point x="114" y="601"/>
      <point x="175" y="637"/>
      <point x="252" y="637" type="curve" smooth="yes"/>
      <point x="318" y="637"/>
      <point x="377" y="603"/>
      <point x="430" y="536" type="curve" smooth="yes"/>
      <point x="436" y="529"/>
      <point x="439" y="521"/>
      <point x="439" y="512" type="curve" smooth="yes"/>
      <point x="439" y="492"/>
      <point x="420" y="474"/>
      <point x="400" y="474" type="curve" smooth="yes"/>
      <point x="389" y="474"/>
      <point x="379" y="479"/>
      <point x="371" y="489" type="curve" smooth="yes"/>
      <point x="334" y="538"/>
      <point x="294" y="562"/>
      <point x="252" y="562" type="curve" smooth="yes"/>
      <point x="202" y="562"/>
      <point x="161" y="536"/>
      <point x="129" y="484" type="curve" smooth="yes"/>
      <point x="98" y="433"/>
      <point x="82" y="364"/>
      <point x="82" y="279" type="curve" smooth="yes"/>
      <point x="82" y="108"/>
      <point x="140" y="14"/>
      <point x="240" y="14" type="curve" smooth="yes"/>
      <point x="275" y="14"/>
      <point x="302" y="18"/>
      <point x="321" y="25" type="curve" smooth="yes"/>
      <point x="350" y="36"/>
      <point x="373" y="56"/>
      <point x="390" y="85" type="curve" smooth="yes"/>
      <point x="397" y="98"/>
      <point x="408" y="104"/>
      <point x="421" y="104" type="curve" smooth="yes"/>
      <point x="441" y="104"/>
      <point x="460" y="87"/>
      <point x="460" y="67" type="curve" smooth="yes"/>
      <point x="460" y="60"/>
      <point x="458" y="54"/>
    </contour>
  </outline>
</glyph>
<glyph name="D" format="1">
  <advance width="523"/>
  <unicode hex="0044"/>
  <outline>
    <contour>
      <point x="432" y="269" type="curve" smooth="yes"/>
      <point x="432" y="430"/>
      <point x="350" y="515"/>
      <point x="187" y="525" type="curve"/>
      <point x="187" y="-3" type="line" smooth="yes"/>
      <point x="187" y="-27"/>
      <point x="175" y="-39"/>
      <point x="151" y="-39" type="curve" smooth="yes"/>
      <point x="125" y="-39"/>
      <point x="112" y="-26"/>
      <point x="112" y="1" type="curve" smooth="yes"/>
      <point x="112" y="526" type="line"/>
      <point x="40" y="525" type="line" smooth="yes"/>
      <point x="15" y="525"/>
      <point x="2" y="538"/>
      <point x="2" y="563" type="curve" smooth="yes"/>
      <point x="2" y="588"/>
      <point x="15" y="600"/>
      <point x="40" y="600" type="curve" smooth="yes"/>
      <point x="113" y="601" type="line"/>
      <point x="118" y="618"/>
      <point x="130" y="627"/>
      <point x="149" y="627" type="curve" smooth="yes"/>
      <point x="168" y="627"/>
      <point x="180" y="618"/>
      <point x="185" y="601" type="curve"/>
      <point x="299" y="594"/>
      <point x="383" y="557"/>
      <point x="438" y="491" type="curve" smooth="yes"/>
      <point x="485" y="434"/>
      <point x="508" y="360"/>
      <point x="507" y="269" type="curve" smooth="yes"/>
      <point x="505" y="118"/>
      <point x="474" y="6"/>
      <point x="413" y="-67" type="curve" smooth="yes"/>
      <point x="342" y="-150"/>
      <point x="225" y="-192"/>
      <point x="60" y="-192" type="curve" smooth="yes"/>
      <point x="35" y="-192"/>
      <point x="22" y="-180"/>
      <point x="22" y="-155" type="curve" smooth="yes"/>
      <point x="22" y="-130"/>
      <point x="35" y="-117"/>
      <point x="60" y="-117" type="curve" smooth="yes"/>
      <point x="308" y="-117"/>
      <point x="432" y="12"/>
    </contour>
  </outline>
</glyph>
<glyph name="E" format="1">
  <advance width="502"/>
  <unicode hex="0045"/>
  <outline>
    <contour>
      <point x="186" y="0" type="line"/>
      <point x="186" y="-4" type="line" smooth="yes"/>
      <point x="186" y="-29"/>
      <point x="173" y="-42"/>
      <point x="147" y="-42" type="curve" smooth="yes"/>
      <point x="122" y="-42"/>
      <point x="110" y="-30"/>
      <point x="111" y="-6" type="curve" smooth="yes"/>
      <point x="111" y="0" type="line"/>
      <point x="65" y="0" type="line" smooth="yes"/>
      <point x="40" y="0"/>
      <point x="27" y="13"/>
      <point x="27" y="38" type="curve" smooth="yes"/>
      <point x="27" y="63"/>
      <point x="40" y="75"/>
      <point x="65" y="75" type="curve" smooth="yes"/>
      <point x="111" y="75" type="line"/>
      <point x="111" y="514" type="line"/>
      <point x="66" y="514" type="line" smooth="yes"/>
      <point x="41" y="514"/>
      <point x="29" y="526"/>
      <point x="29" y="551" type="curve" smooth="yes"/>
      <point x="29" y="576"/>
      <point x="41" y="589"/>
      <point x="66" y="589" type="curve" smooth="yes"/>
      <point x="111" y="589" type="line"/>
      <point x="113" y="610"/>
      <point x="125" y="620"/>
      <point x="148" y="620" type="curve" smooth="yes"/>
      <point x="171" y="620"/>
      <point x="183" y="610"/>
      <point x="186" y="589" type="curve"/>
      <point x="396" y="588" type="line" smooth="yes"/>
      <point x="421" y="588"/>
      <point x="434" y="576"/>
      <point x="434" y="551" type="curve" smooth="yes"/>
      <point x="434" y="526"/>
      <point x="421" y="513"/>
      <point x="396" y="513" type="curve" smooth="yes"/>
      <point x="186" y="514" type="line"/>
      <point x="186" y="341" type="line"/>
      <point x="391" y="340" type="line" smooth="yes"/>
      <point x="416" y="340"/>
      <point x="428" y="328"/>
      <point x="428" y="303" type="curve" smooth="yes"/>
      <point x="428" y="278"/>
      <point x="416" y="265"/>
      <point x="391" y="265" type="curve" smooth="yes"/>
      <point x="186" y="265" type="line"/>
      <point x="186" y="75" type="line"/>
      <point x="442" y="75" type="line" smooth="yes"/>
      <point x="467" y="75"/>
      <point x="480" y="63"/>
      <point x="480" y="38" type="curve" smooth="yes"/>
      <point x="480" y="13"/>
      <point x="467" y="0"/>
      <point x="442" y="0" type="curve" smooth="yes"/>
    </contour>
  </outline>
</glyph>
<glyph name="F" format="1">
  <advance width="443"/>
  <unicode hex="0046"/>
  <outline>
    <contour>
      <point x="383" y="521" type="curve" smooth="yes"/>
      <point x="172" y="521" type="line"/>
      <point x="172" y="348" type="line"/>
      <point x="377" y="348" type="line" smooth="yes"/>
      <point x="402" y="348"/>
      <point x="414" y="335"/>
      <point x="414" y="310" type="curve" smooth="yes"/>
      <point x="414" y="285"/>
      <point x="402" y="273"/>
      <point x="377" y="273" type="curve" smooth="yes"/>
      <point x="172" y="273" type="line"/>
      <point x="172" y="5" type="line" smooth="yes"/>
      <point x="172" y="-21"/>
      <point x="159" y="-34"/>
      <point x="133" y="-34" type="curve" smooth="yes"/>
      <point x="109" y="-34"/>
      <point x="97" y="-22"/>
      <point x="97" y="2" type="curve" smooth="yes"/>
      <point x="97" y="521" type="line"/>
      <point x="52" y="521" type="line" smooth="yes"/>
      <point x="27" y="521"/>
      <point x="14" y="534"/>
      <point x="14" y="559" type="curve" smooth="yes"/>
      <point x="14" y="584"/>
      <point x="26" y="596"/>
      <point x="51" y="596" type="curve" smooth="yes"/>
      <point x="99" y="596" type="line"/>
      <point x="101" y="618"/>
      <point x="113" y="629"/>
      <point x="135" y="629" type="curve" smooth="yes"/>
      <point x="158" y="629"/>
      <point x="170" y="618"/>
      <point x="172" y="596" type="curve"/>
      <point x="383" y="596" type="line" smooth="yes"/>
      <point x="408" y="596"/>
      <point x="420" y="583"/>
      <point x="420" y="558" type="curve" smooth="yes"/>
      <point x="420" y="533"/>
      <point x="408" y="521"/>
    </contour>
  </outline>
</glyph>
<glyph name="G" format="1">
  <advance width="549"/>
  <unicode hex="0047"/>
  <outline>
    <contour>
      <point x="476" y="195" type="line"/>
      <point x="476" y="-4" type="line" smooth="yes"/>
      <point x="476" y="-28"/>
      <point x="464" y="-40"/>
      <point x="440" y="-40" type="curve" smooth="yes"/>
      <point x="414" y="-40"/>
      <point x="401" y="-27"/>
      <point x="401" y="-2" type="curve" smooth="yes"/>
      <point x="401" y="16" type="line"/>
      <point x="360" y="-16"/>
      <point x="306" y="-32"/>
      <point x="239" y="-32" type="curve" smooth="yes"/>
      <point x="162" y="-32"/>
      <point x="103" y="1"/>
      <point x="62" y="67" type="curve" smooth="yes"/>
      <point x="25" y="127"/>
      <point x="6" y="207"/>
      <point x="6" y="308" type="curve" smooth="yes"/>
      <point x="6" y="409"/>
      <point x="27" y="492"/>
      <point x="68" y="558" type="curve" smooth="yes"/>
      <point x="113" y="629"/>
      <point x="174" y="665"/>
      <point x="251" y="665" type="curve" smooth="yes"/>
      <point x="317" y="665"/>
      <point x="376" y="631"/>
      <point x="429" y="564" type="curve" smooth="yes"/>
      <point x="435" y="557"/>
      <point x="438" y="549"/>
      <point x="438" y="541" type="curve" smooth="yes"/>
      <point x="438" y="521"/>
      <point x="419" y="503"/>
      <point x="399" y="503" type="curve" smooth="yes"/>
      <point x="388" y="503"/>
      <point x="378" y="508"/>
      <point x="370" y="518" type="curve" smooth="yes"/>
      <point x="333" y="566"/>
      <point x="293" y="590"/>
      <point x="251" y="590" type="curve" smooth="yes"/>
      <point x="201" y="590"/>
      <point x="160" y="564"/>
      <point x="128" y="513" type="curve" smooth="yes"/>
      <point x="97" y="462"/>
      <point x="81" y="393"/>
      <point x="81" y="308" type="curve" smooth="yes"/>
      <point x="81" y="136"/>
      <point x="139" y="43"/>
      <point x="239" y="43" type="curve" smooth="yes"/>
      <point x="313" y="43"/>
      <point x="367" y="71"/>
      <point x="401" y="128" type="curve"/>
      <point x="401" y="195" type="line"/>
      <point x="261" y="195" type="line" smooth="yes"/>
      <point x="236" y="195"/>
      <point x="223" y="208"/>
      <point x="223" y="233" type="curve" smooth="yes"/>
      <point x="223" y="258"/>
      <point x="235" y="270"/>
      <point x="260" y="270" type="curve" smooth="yes"/>
      <point x="495" y="270" type="line" smooth="yes"/>
      <point x="520" y="270"/>
      <point x="533" y="257"/>
      <point x="533" y="232" type="curve" smooth="yes"/>
      <point x="533" y="207"/>
      <point x="521" y="195"/>
      <point x="496" y="195" type="curve" smooth="yes"/>
    </contour>
  </outline>
</glyph>
<glyph name="H" format="1">
  <advance width="508"/>
  <unicode hex="0048"/>
  <outline>
    <contour>
      <point x="307" y="365" type="line"/>
      <point x="307" y="590" type="line" smooth="yes"/>
      <point x="307" y="614"/>
      <point x="319" y="626"/>
      <point x="343" y="626" type="curve" smooth="yes"/>
      <point x="369" y="626"/>
      <point x="382" y="613"/>
      <point x="382" y="587" type="curve" smooth="yes"/>
      <point x="382" y="365" type="line"/>
      <point x="457" y="365" type="line" smooth="yes"/>
      <point x="482" y="365"/>
      <point x="495" y="352"/>
      <point x="495" y="327" type="curve" smooth="yes"/>
      <point x="495" y="302"/>
      <point x="482" y="290"/>
      <point x="457" y="290" type="curve" smooth="yes"/>
      <point x="382" y="290" type="line"/>
      <point x="382" y="-159" type="line" smooth="yes"/>
      <point x="382" y="-185"/>
      <point x="369" y="-198"/>
      <point x="343" y="-198" type="curve" smooth="yes"/>
      <point x="319" y="-198"/>
      <point x="307" y="-186"/>
      <point x="307" y="-162" type="curve" smooth="yes"/>
      <point x="307" y="290" type="line"/>
      <point x="123" y="290" type="line"/>
      <point x="123" y="6" type="line" smooth="yes"/>
      <point x="123" y="-20"/>
      <point x="110" y="-33"/>
      <point x="84" y="-33" type="curve" smooth="yes"/>
      <point x="60" y="-33"/>
      <point x="48" y="-21"/>
      <point x="48" y="4" type="curve" smooth="yes"/>
      <point x="49" y="289" type="line"/>
      <point x="24" y="289"/>
      <point x="11" y="302"/>
      <point x="11" y="327" type="curve" smooth="yes"/>
      <point x="11" y="352"/>
      <point x="24" y="365"/>
      <point x="49" y="365" type="curve"/>
      <point x="48" y="595" type="line" smooth="yes"/>
      <point x="48" y="620"/>
      <point x="61" y="633"/>
      <point x="87" y="633" type="curve" smooth="yes"/>
      <point x="111" y="633"/>
      <point x="123" y="621"/>
      <point x="123" y="596" type="curve" smooth="yes"/>
      <point x="123" y="365" type="line"/>
    </contour>
  </outline>
</glyph>
<glyph name="I" format="1">
  <advance width="379"/>
  <unicode hex="0049"/>
  <outline>
    <contour>
      <point x="217" y="554" type="line"/>
      <point x="217" y="76" type="line"/>
      <point x="325" y="76" type="line" smooth="yes"/>
      <point x="350" y="76"/>
      <point x="362" y="63"/>
      <point x="362" y="38" type="curve" smooth="yes"/>
      <point x="362" y="13"/>
      <point x="350" y="1"/>
      <point x="325" y="1" type="curve" smooth="yes"/>
      <point x="54" y="1" type="line" smooth="yes"/>
      <point x="29" y="1"/>
      <point x="16" y="13"/>
      <point x="16" y="38" type="curve" smooth="yes"/>
      <point x="16" y="63"/>
      <point x="29" y="76"/>
      <point x="54" y="76" type="curve" smooth="yes"/>
      <point x="142" y="76" type="line"/>
      <point x="142" y="554" type="line"/>
      <point x="51" y="554" type="line" smooth="yes"/>
      <point x="26" y="554"/>
      <point x="13" y="567"/>
      <point x="13" y="592" type="curve" smooth="yes"/>
      <point x="13" y="617"/>
      <point x="26" y="629"/>
      <point x="51" y="629" type="curve" smooth="yes"/>
      <point x="322" y="629" type="line" smooth="yes"/>
      <point x="347" y="629"/>
      <point x="359" y="617"/>
      <point x="359" y="592" type="curve" smooth="yes"/>
      <point x="359" y="567"/>
      <point x="347" y="554"/>
      <point x="322" y="554" type="curve" smooth="yes"/>
    </contour>
  </outline>
</glyph>
<glyph name="J" format="1">
  <advance width="475"/>
  <unicode hex="004A"/>
  <outline>
    <contour>
      <point x="311" y="123" type="curve"/>
      <point x="311" y="529" type="line"/>
      <point x="126" y="528" type="line" smooth="yes"/>
      <point x="101" y="528"/>
      <point x="89" y="541"/>
      <point x="89" y="566" type="curve" smooth="yes"/>
      <point x="89" y="591"/>
      <point x="101" y="603"/>
      <point x="126" y="603" type="curve" smooth="yes"/>
      <point x="311" y="604" type="line"/>
      <point x="310" y="629"/>
      <point x="323" y="641"/>
      <point x="348" y="641" type="curve" smooth="yes"/>
      <point x="373" y="641"/>
      <point x="386" y="629"/>
      <point x="386" y="604" type="curve"/>
      <point x="423" y="603" type="line" smooth="yes"/>
      <point x="448" y="603"/>
      <point x="461" y="591"/>
      <point x="461" y="566" type="curve" smooth="yes"/>
      <point x="461" y="541"/>
      <point x="448" y="528"/>
      <point x="423" y="528" type="curve" smooth="yes"/>
      <point x="386" y="529" type="line"/>
      <point x="386" y="116" type="line"/>
      <point x="377" y="69"/>
      <point x="355" y="29"/>
      <point x="320" y="-3" type="curve" smooth="yes"/>
      <point x="285" y="-35"/>
      <point x="244" y="-51"/>
      <point x="197" y="-51" type="curve" smooth="yes"/>
      <point x="143" y="-51"/>
      <point x="97" y="-31"/>
      <point x="60" y="8" type="curve" smooth="yes"/>
      <point x="23" y="48"/>
      <point x="5" y="96"/>
      <point x="5" y="151" type="curve" smooth="yes"/>
      <point x="5" y="196"/>
      <point x="12" y="228"/>
      <point x="25" y="249" type="curve" smooth="yes"/>
      <point x="34" y="263"/>
      <point x="46" y="270"/>
      <point x="60" y="270" type="curve" smooth="yes"/>
      <point x="83" y="270"/>
      <point x="103" y="248"/>
      <point x="103" y="224" type="curve" smooth="yes"/>
      <point x="103" y="217"/>
      <point x="101" y="210"/>
      <point x="97" y="203" type="curve" smooth="yes"/>
      <point x="86" y="182"/>
      <point x="80" y="165"/>
      <point x="80" y="151" type="curve" smooth="yes"/>
      <point x="80" y="115"/>
      <point x="91" y="85"/>
      <point x="114" y="60" type="curve" smooth="yes"/>
      <point x="137" y="36"/>
      <point x="165" y="24"/>
      <point x="197" y="24" type="curve" smooth="yes"/>
      <point x="250" y="24"/>
      <point x="299" y="66"/>
    </contour>
  </outline>
</glyph>
<glyph name="K" format="1">
  <advance width="440"/>
  <unicode hex="004B"/>
  <outline>
    <contour>
      <point x="414" y="534" type="curve" smooth="yes"/>
      <point x="305" y="424" type="line"/>
      <point x="305" y="-169" type="line" smooth="yes"/>
      <point x="305" y="-194"/>
      <point x="292" y="-207"/>
      <point x="267" y="-207" type="curve" smooth="yes"/>
      <point x="242" y="-207"/>
      <point x="230" y="-194"/>
      <point x="230" y="-169" type="curve" smooth="yes"/>
      <point x="230" y="348" type="line"/>
      <point x="106" y="224" type="line"/>
      <point x="106" y="6" type="line" smooth="yes"/>
      <point x="106" y="-19"/>
      <point x="93" y="-32"/>
      <point x="67" y="-32" type="curve" smooth="yes"/>
      <point x="43" y="-32"/>
      <point x="31" y="-20"/>
      <point x="31" y="4" type="curve" smooth="yes"/>
      <point x="31" y="595" type="line" smooth="yes"/>
      <point x="31" y="620"/>
      <point x="43" y="632"/>
      <point x="68" y="632" type="curve" smooth="yes"/>
      <point x="93" y="632"/>
      <point x="106" y="620"/>
      <point x="106" y="595" type="curve" smooth="yes"/>
      <point x="106" y="327" type="line"/>
      <point x="360" y="582" type="line" smooth="yes"/>
      <point x="369" y="590"/>
      <point x="378" y="594"/>
      <point x="389" y="594" type="curve" smooth="yes"/>
      <point x="408" y="594"/>
      <point x="426" y="578"/>
      <point x="426" y="559" type="curve" smooth="yes"/>
      <point x="426" y="550"/>
      <point x="422" y="542"/>
    </contour>
  </outline>
</glyph>
<glyph name="L" format="1">
  <advance width="385"/>
  <unicode hex="004C"/>
  <outline>
    <contour>
      <point x="141" y="558" type="line"/>
      <point x="141" y="74" type="line"/>
      <point x="324" y="74" type="line" smooth="yes"/>
      <point x="349" y="74"/>
      <point x="362" y="62"/>
      <point x="362" y="37" type="curve" smooth="yes"/>
      <point x="362" y="12"/>
      <point x="349" y="-1"/>
      <point x="324" y="-1" type="curve" smooth="yes"/>
      <point x="47" y="-1" type="line" smooth="yes"/>
      <point x="22" y="-1"/>
      <point x="10" y="12"/>
      <point x="10" y="37" type="curve" smooth="yes"/>
      <point x="10" y="62"/>
      <point x="22" y="75"/>
      <point x="47" y="74" type="curve" smooth="yes"/>
      <point x="66" y="74" type="line"/>
      <point x="66" y="558" type="line"/>
      <point x="39" y="557" type="line" smooth="yes"/>
      <point x="14" y="557"/>
      <point x="1" y="569"/>
      <point x="1" y="594" type="curve" smooth="yes"/>
      <point x="1" y="619"/>
      <point x="14" y="632"/>
      <point x="39" y="632" type="curve" smooth="yes"/>
      <point x="174" y="632" type="line" smooth="yes"/>
      <point x="199" y="632"/>
      <point x="212" y="620"/>
      <point x="212" y="595" type="curve" smooth="yes"/>
      <point x="212" y="570"/>
      <point x="199" y="557"/>
      <point x="174" y="557" type="curve" smooth="yes"/>
    </contour>
  </outline>
</glyph>
<glyph name="M" format="1">
  <advance width="455"/>
  <unicode hex="004D"/>
  <outline>
    <contour>
      <point x="198" y="334" type="line"/>
      <point x="349" y="600" type="line"/>
      <point x="352" y="622"/>
      <point x="364" y="633"/>
      <point x="387" y="633" type="curve" smooth="yes"/>
      <point x="412" y="633"/>
      <point x="424" y="621"/>
      <point x="424" y="597" type="curve" smooth="yes"/>
      <point x="423" y="-153" type="line" smooth="yes"/>
      <point x="423" y="-179"/>
      <point x="410" y="-192"/>
      <point x="384" y="-192" type="curve" smooth="yes"/>
      <point x="360" y="-192"/>
      <point x="348" y="-180"/>
      <point x="348" y="-156" type="curve" smooth="yes"/>
      <point x="349" y="450" type="line"/>
      <point x="236" y="249" type="line"/>
      <point x="276" y="159" type="line" smooth="yes"/>
      <point x="279" y="154"/>
      <point x="280" y="148"/>
      <point x="280" y="143" type="curve" smooth="yes"/>
      <point x="280" y="122"/>
      <point x="261" y="106"/>
      <point x="240" y="106" type="curve" smooth="yes"/>
      <point x="225" y="106"/>
      <point x="214" y="114"/>
      <point x="207" y="129" type="curve" smooth="yes"/>
      <point x="89" y="397" type="line"/>
      <point x="89" y="3" type="line" smooth="yes"/>
      <point x="89" y="-22"/>
      <point x="76" y="-35"/>
      <point x="51" y="-35" type="curve" smooth="yes"/>
      <point x="26" y="-35"/>
      <point x="14" y="-22"/>
      <point x="14" y="3" type="curve" smooth="yes"/>
      <point x="14" y="564" type="line"/>
      <point x="9" y="576" type="line" smooth="yes"/>
      <point x="6" y="581"/>
      <point x="5" y="587"/>
      <point x="5" y="593" type="curve" smooth="yes"/>
      <point x="5" y="612"/>
      <point x="15" y="624"/>
      <point x="35" y="629" type="curve" smooth="yes"/>
      <point x="40" y="631"/>
      <point x="45" y="632"/>
      <point x="50" y="632" type="curve" smooth="yes"/>
      <point x="76" y="632"/>
      <point x="89" y="619"/>
      <point x="89" y="594" type="curve" smooth="yes"/>
      <point x="89" y="576" type="line"/>
    </contour>
  </outline>
</glyph>
<glyph name="N" format="1">
  <advance width="395"/>
  <unicode hex="004E"/>
  <outline>
    <contour>
      <point x="288" y="45" type="line"/>
      <point x="106" y="372" type="line"/>
      <point x="106" y="-161" type="line" smooth="yes"/>
      <point x="106" y="-187"/>
      <point x="93" y="-200"/>
      <point x="67" y="-200" type="curve" smooth="yes"/>
      <point x="43" y="-200"/>
      <point x="31" y="-188"/>
      <point x="31" y="-164" type="curve" smooth="yes"/>
      <point x="31" y="588" type="line" smooth="yes"/>
      <point x="31" y="613"/>
      <point x="43" y="626"/>
      <point x="68" y="626" type="curve" smooth="yes"/>
      <point x="93" y="626"/>
      <point x="106" y="613"/>
      <point x="106" y="588" type="curve" smooth="yes"/>
      <point x="106" y="527" type="line"/>
      <point x="288" y="200" type="line"/>
      <point x="287" y="594" type="line" smooth="yes"/>
      <point x="287" y="619"/>
      <point x="300" y="631"/>
      <point x="325" y="631" type="curve" smooth="yes"/>
      <point x="350" y="631"/>
      <point x="362" y="619"/>
      <point x="362" y="594" type="curve" smooth="yes"/>
      <point x="362" y="6" type="line" smooth="yes"/>
      <point x="362" y="-20"/>
      <point x="349" y="-33"/>
      <point x="323" y="-33" type="curve" smooth="yes"/>
      <point x="299" y="-33"/>
      <point x="287" y="-21"/>
      <point x="287" y="3" type="curve" smooth="yes"/>
    </contour>
  </outline>
</glyph>
<glyph name="O" format="1">
  <advance width="403"/>
  <unicode hex="004F"/>
  <outline>
    <contour>
      <point x="203" y="635" type="curve" smooth="yes"/>
      <point x="267" y="635"/>
      <point x="315" y="601"/>
      <point x="347" y="534" type="curve" smooth="yes"/>
      <point x="374" y="477"/>
      <point x="387" y="399"/>
      <point x="387" y="300" type="curve" smooth="yes"/>
      <point x="387" y="87"/>
      <point x="327" y="-20"/>
      <point x="206" y="-20" type="curve" smooth="yes"/>
      <point x="141" y="-20"/>
      <point x="92" y="9"/>
      <point x="59" y="67" type="curve" smooth="yes"/>
      <point x="30" y="119"/>
      <point x="16" y="192"/>
      <point x="16" y="285" type="curve" smooth="yes"/>
      <point x="16" y="383"/>
      <point x="30" y="463"/>
      <point x="58" y="526" type="curve" smooth="yes"/>
      <point x="91" y="599"/>
      <point x="140" y="635"/>
    </contour>
    <contour>
      <point x="203" y="560" type="curve" smooth="yes"/>
      <point x="170" y="560"/>
      <point x="144" y="536"/>
      <point x="123" y="489" type="curve" smooth="yes"/>
      <point x="102" y="439"/>
      <point x="91" y="371"/>
      <point x="91" y="285" type="curve" smooth="yes"/>
      <point x="91" y="132"/>
      <point x="129" y="55"/>
      <point x="206" y="55" type="curve" smooth="yes"/>
      <point x="277" y="55"/>
      <point x="312" y="137"/>
      <point x="312" y="300" type="curve" smooth="yes"/>
      <point x="312" y="387"/>
      <point x="302" y="452"/>
      <point x="281" y="497" type="curve" smooth="yes"/>
      <point x="262" y="539"/>
      <point x="236" y="560"/>
    </contour>
  </outline>
</glyph>
<glyph name="P" format="1">
  <advance width="509"/>
  <unicode hex="0050"/>
  <outline>
    <contour>
      <point x="46" y="667" type="curve" smooth="yes"/>
      <point x="200" y="668" type="line"/>
      <point x="256" y="666" type="line" smooth="yes"/>
      <point x="321" y="662"/>
      <point x="376" y="638"/>
      <point x="421" y="595" type="curve" smooth="yes"/>
      <point x="467" y="552"/>
      <point x="490" y="501"/>
      <point x="490" y="440" type="curve" smooth="yes"/>
      <point x="490" y="375"/>
      <point x="464" y="320"/>
      <point x="412" y="277" type="curve" smooth="yes"/>
      <point x="361" y="234"/>
      <point x="295" y="213"/>
      <point x="216" y="212" type="curve"/>
      <point x="215" y="8" type="line" smooth="yes"/>
      <point x="215" y="-18"/>
      <point x="202" y="-31"/>
      <point x="177" y="-31" type="curve" smooth="yes"/>
      <point x="153" y="-31"/>
      <point x="141" y="-19"/>
      <point x="141" y="6" type="curve" smooth="yes"/>
      <point x="141" y="211" type="line"/>
      <point x="132" y="203"/>
      <point x="122" y="199"/>
      <point x="113" y="199" type="curve" smooth="yes"/>
      <point x="88" y="199"/>
      <point x="68" y="222"/>
      <point x="68" y="247" type="curve" smooth="yes"/>
      <point x="68" y="274"/>
      <point x="88" y="296"/>
      <point x="113" y="296" type="curve" smooth="yes"/>
      <point x="122" y="296"/>
      <point x="132" y="292"/>
      <point x="141" y="283" type="curve"/>
      <point x="141" y="593" type="line"/>
      <point x="46" y="592" type="line" smooth="yes"/>
      <point x="21" y="592"/>
      <point x="9" y="605"/>
      <point x="9" y="630" type="curve" smooth="yes"/>
      <point x="9" y="655"/>
      <point x="21" y="667"/>
    </contour>
    <contour>
      <point x="415" y="440" type="curve" smooth="yes"/>
      <point x="415" y="477"/>
      <point x="401" y="510"/>
      <point x="372" y="539" type="curve" smooth="yes"/>
      <point x="343" y="568"/>
      <point x="307" y="586"/>
      <point x="263" y="591" type="curve" smooth="yes"/>
      <point x="216" y="593" type="line"/>
      <point x="216" y="287" type="line"/>
      <point x="275" y="287"/>
      <point x="324" y="303"/>
      <point x="362" y="334" type="curve" smooth="yes"/>
      <point x="397" y="363"/>
      <point x="415" y="399"/>
    </contour>
  </outline>
</glyph>
<glyph name="Q" format="1">
  <advance width="509"/>
  <unicode hex="0051"/>
  <outline>
    <contour>
      <point x="198" y="-19" type="curve" smooth="yes"/>
      <point x="133" y="-19"/>
      <point x="85" y="10"/>
      <point x="52" y="68" type="curve" smooth="yes"/>
      <point x="23" y="120"/>
      <point x="8" y="193"/>
      <point x="8" y="286" type="curve" smooth="yes"/>
      <point x="8" y="386"/>
      <point x="22" y="468"/>
      <point x="49" y="533" type="curve" smooth="yes"/>
      <point x="82" y="610"/>
      <point x="130" y="649"/>
      <point x="193" y="649" type="curve" smooth="yes"/>
      <point x="257" y="649"/>
      <point x="305" y="613"/>
      <point x="338" y="542" type="curve" smooth="yes"/>
      <point x="366" y="481"/>
      <point x="380" y="400"/>
      <point x="380" y="301" type="curve" smooth="yes"/>
      <point x="380" y="211"/>
      <point x="368" y="138"/>
      <point x="343" y="82" type="curve"/>
      <point x="466" y="-141" type="line" smooth="yes"/>
      <point x="469" y="-148"/>
      <point x="471" y="-154"/>
      <point x="471" y="-160" type="curve" smooth="yes"/>
      <point x="471" y="-181"/>
      <point x="452" y="-197"/>
      <point x="432" y="-197" type="curve" smooth="yes"/>
      <point x="418" y="-197"/>
      <point x="407" y="-190"/>
      <point x="400" y="-177" type="curve" smooth="yes"/>
      <point x="295" y="15" type="line"/>
      <point x="269" y="-8"/>
      <point x="237" y="-19"/>
    </contour>
    <contour>
      <point x="305" y="301" type="curve" smooth="yes"/>
      <point x="305" y="388"/>
      <point x="294" y="456"/>
      <point x="273" y="505" type="curve" smooth="yes"/>
      <point x="252" y="551"/>
      <point x="226" y="574"/>
      <point x="193" y="574" type="curve" smooth="yes"/>
      <point x="161" y="574"/>
      <point x="135" y="548"/>
      <point x="114" y="495" type="curve" smooth="yes"/>
      <point x="93" y="442"/>
      <point x="83" y="373"/>
      <point x="83" y="286" type="curve" smooth="yes"/>
      <point x="83" y="133"/>
      <point x="121" y="56"/>
      <point x="198" y="56" type="curve" smooth="yes"/>
      <point x="221" y="56"/>
      <point x="241" y="65"/>
      <point x="257" y="84" type="curve"/>
      <point x="150" y="280" type="line" smooth="yes"/>
      <point x="147" y="287"/>
      <point x="145" y="293"/>
      <point x="145" y="299" type="curve" smooth="yes"/>
      <point x="145" y="320"/>
      <point x="164" y="336"/>
      <point x="184" y="336" type="curve" smooth="yes"/>
      <point x="198" y="336"/>
      <point x="209" y="329"/>
      <point x="216" y="316" type="curve" smooth="yes"/>
      <point x="294" y="173" type="line"/>
      <point x="301" y="208"/>
      <point x="305" y="251"/>
    </contour>
  </outline>
</glyph>
<glyph name="R" format="1">
  <advance width="509"/>
  <unicode hex="0052"/>
  <outline>
    <contour>
      <point x="216" y="593" type="line"/>
      <point x="216" y="288" type="line"/>
      <point x="238" y="288" type="line" smooth="yes"/>
      <point x="288" y="288"/>
      <point x="330" y="303"/>
      <point x="364" y="333" type="curve" smooth="yes"/>
      <point x="398" y="364"/>
      <point x="415" y="399"/>
      <point x="415" y="440" type="curve" smooth="yes"/>
      <point x="415" y="477"/>
      <point x="401" y="510"/>
      <point x="373" y="539" type="curve" smooth="yes"/>
      <point x="345" y="569"/>
      <point x="309" y="587"/>
      <point x="266" y="593" type="curve"/>
    </contour>
    <contour>
      <point x="490" y="440" type="curve" smooth="yes"/>
      <point x="490" y="375"/>
      <point x="464" y="321"/>
      <point x="412" y="276" type="curve"/>
      <point x="412" y="-153" type="line" smooth="yes"/>
      <point x="412" y="-178"/>
      <point x="399" y="-191"/>
      <point x="374" y="-191" type="curve" smooth="yes"/>
      <point x="349" y="-191"/>
      <point x="337" y="-178"/>
      <point x="337" y="-153" type="curve" smooth="yes"/>
      <point x="337" y="232" type="line"/>
      <point x="306" y="219"/>
      <point x="273" y="213"/>
      <point x="238" y="213" type="curve" smooth="yes"/>
      <point x="216" y="213" type="line"/>
      <point x="215" y="8" type="line" smooth="yes"/>
      <point x="215" y="-18"/>
      <point x="202" y="-31"/>
      <point x="176" y="-31" type="curve" smooth="yes"/>
      <point x="152" y="-31"/>
      <point x="140" y="-19"/>
      <point x="140" y="5" type="curve" smooth="yes"/>
      <point x="141" y="224" type="line"/>
      <point x="132" y="210"/>
      <point x="119" y="203"/>
      <point x="104" y="203" type="curve" smooth="yes"/>
      <point x="79" y="203"/>
      <point x="58" y="224"/>
      <point x="58" y="251" type="curve" smooth="yes"/>
      <point x="58" y="278"/>
      <point x="79" y="299"/>
      <point x="104" y="299" type="curve" smooth="yes"/>
      <point x="119" y="299"/>
      <point x="132" y="292"/>
      <point x="141" y="279" type="curve"/>
      <point x="141" y="593" type="line"/>
      <point x="46" y="592" type="line" smooth="yes"/>
      <point x="21" y="592"/>
      <point x="9" y="605"/>
      <point x="9" y="630" type="curve" smooth="yes"/>
      <point x="9" y="655"/>
      <point x="21" y="667"/>
      <point x="46" y="667" type="curve" smooth="yes"/>
      <point x="205" y="668" type="line"/>
      <point x="263" y="666" type="line" smooth="yes"/>
      <point x="326" y="660"/>
      <point x="380" y="636"/>
      <point x="424" y="593" type="curve" smooth="yes"/>
      <point x="468" y="550"/>
      <point x="490" y="499"/>
    </contour>
  </outline>
</glyph>
<glyph name="S" format="1">
  <advance width="424"/>
  <unicode hex="0053"/>
  <outline>
    <contour>
      <point x="280" y="458" type="curve" smooth="yes"/>
      <point x="255" y="515"/>
      <point x="225" y="544"/>
      <point x="189" y="544" type="curve" smooth="yes"/>
      <point x="182" y="544"/>
      <point x="173" y="543"/>
      <point x="161" y="542" type="curve" smooth="yes"/>
      <point x="110" y="537"/>
      <point x="82" y="502"/>
      <point x="82" y="461" type="curve" smooth="yes"/>
      <point x="82" y="410"/>
      <point x="122" y="376"/>
      <point x="197" y="337" type="curve" smooth="yes"/>
      <point x="241" y="314"/>
      <point x="270" y="297"/>
      <point x="285" y="286" type="curve" smooth="yes"/>
      <point x="359" y="232"/>
      <point x="396" y="175"/>
      <point x="396" y="115" type="curve" smooth="yes"/>
      <point x="396" y="102"/>
      <point x="394" y="88"/>
      <point x="390" y="75" type="curve" smooth="yes"/>
      <point x="369" y="10"/>
      <point x="298" y="-32"/>
      <point x="221" y="-32" type="curve" smooth="yes"/>
      <point x="144" y="-32"/>
      <point x="90" y="0"/>
      <point x="59" y="64" type="curve" smooth="yes"/>
      <point x="40" y="105"/>
      <point x="30" y="137"/>
      <point x="30" y="161" type="curve" smooth="yes"/>
      <point x="30" y="182"/>
      <point x="48" y="198"/>
      <point x="69" y="198" type="curve" smooth="yes"/>
      <point x="88" y="198"/>
      <point x="99" y="188"/>
      <point x="104" y="169" type="curve" smooth="yes"/>
      <point x="126" y="80"/>
      <point x="167" y="35"/>
      <point x="226" y="35" type="curve" smooth="yes"/>
      <point x="231" y="35"/>
      <point x="237" y="35"/>
      <point x="242" y="36" type="curve" smooth="yes"/>
      <point x="283" y="42"/>
      <point x="308" y="62"/>
      <point x="317" y="95" type="curve" smooth="yes"/>
      <point x="320" y="102"/>
      <point x="321" y="110"/>
      <point x="321" y="118" type="curve" smooth="yes"/>
      <point x="321" y="147"/>
      <point x="304" y="176"/>
      <point x="269" y="204" type="curve" smooth="yes"/>
      <point x="249" y="221"/>
      <point x="214" y="243"/>
      <point x="163" y="270" type="curve" smooth="yes"/>
      <point x="116" y="295"/>
      <point x="87" y="314"/>
      <point x="74" y="326" type="curve" smooth="yes"/>
      <point x="56" y="344"/>
      <point x="45" y="355"/>
      <point x="42" y="359" type="curve" smooth="yes"/>
      <point x="31" y="371"/>
      <point x="23" y="384"/>
      <point x="18" y="399" type="curve" smooth="yes"/>
      <point x="10" y="419"/>
      <point x="6" y="439"/>
      <point x="6" y="460" type="curve" smooth="yes"/>
      <point x="6" y="500"/>
      <point x="19" y="535"/>
      <point x="46" y="564" type="curve" smooth="yes"/>
      <point x="73" y="594"/>
      <point x="109" y="612"/>
      <point x="152" y="617" type="curve" smooth="yes"/>
      <point x="163" y="618"/>
      <point x="173" y="619"/>
      <point x="183" y="619" type="curve" smooth="yes"/>
      <point x="256" y="619"/>
      <point x="311" y="575"/>
      <point x="349" y="488" type="curve" smooth="yes"/>
      <point x="351" y="483"/>
      <point x="352" y="477"/>
      <point x="352" y="472" type="curve" smooth="yes"/>
      <point x="352" y="451"/>
      <point x="333" y="435"/>
      <point x="313" y="435" type="curve" smooth="yes"/>
      <point x="298" y="435"/>
      <point x="287" y="443"/>
    </contour>
  </outline>
</glyph>
<glyph name="T" format="1">
  <advance width="478"/>
  <unicode hex="0054"/>
  <outline>
    <contour>
      <point x="48" y="611" type="curve" smooth="yes"/>
      <point x="205" y="612" type="line"/>
      <point x="210" y="627"/>
      <point x="222" y="634"/>
      <point x="239" y="634" type="curve" smooth="yes"/>
      <point x="256" y="634"/>
      <point x="268" y="627"/>
      <point x="274" y="612" type="curve"/>
      <point x="430" y="612" type="line" smooth="yes"/>
      <point x="455" y="612"/>
      <point x="467" y="599"/>
      <point x="467" y="574" type="curve" smooth="yes"/>
      <point x="467" y="549"/>
      <point x="455" y="537"/>
      <point x="430" y="537" type="curve" smooth="yes"/>
      <point x="277" y="537" type="line"/>
      <point x="277" y="8" type="line" smooth="yes"/>
      <point x="277" y="-18"/>
      <point x="264" y="-31"/>
      <point x="238" y="-31" type="curve" smooth="yes"/>
      <point x="214" y="-31"/>
      <point x="202" y="-19"/>
      <point x="202" y="5" type="curve" smooth="yes"/>
      <point x="202" y="537" type="line"/>
      <point x="48" y="536" type="line" smooth="yes"/>
      <point x="23" y="536"/>
      <point x="10" y="549"/>
      <point x="10" y="574" type="curve" smooth="yes"/>
      <point x="10" y="599"/>
      <point x="23" y="611"/>
    </contour>
  </outline>
</glyph>
<glyph name="U" format="1">
  <advance width="447"/>
  <unicode hex="0055"/>
  <outline>
    <contour>
      <point x="226" y="-40" type="curve" smooth="yes"/>
      <point x="182" y="-40"/>
      <point x="144" y="-25"/>
      <point x="112" y="6" type="curve" smooth="yes"/>
      <point x="80" y="37"/>
      <point x="61" y="74"/>
      <point x="56" y="118" type="curve"/>
      <point x="56" y="536" type="line" smooth="yes"/>
      <point x="56" y="561"/>
      <point x="68" y="574"/>
      <point x="93" y="574" type="curve" smooth="yes"/>
      <point x="118" y="574"/>
      <point x="131" y="562"/>
      <point x="131" y="537" type="curve" smooth="yes"/>
      <point x="131" y="117" type="line"/>
      <point x="142" y="69"/>
      <point x="178" y="35"/>
      <point x="226" y="35" type="curve" smooth="yes"/>
      <point x="278" y="35"/>
      <point x="321" y="75"/>
      <point x="326" y="126" type="curve"/>
      <point x="326" y="604" type="line" smooth="yes"/>
      <point x="326" y="629"/>
      <point x="338" y="642"/>
      <point x="363" y="642" type="curve" smooth="yes"/>
      <point x="388" y="642"/>
      <point x="401" y="629"/>
      <point x="401" y="604" type="curve" smooth="yes"/>
      <point x="401" y="126" type="line" smooth="yes"/>
      <point x="398" y="79"/>
      <point x="380" y="40"/>
      <point x="346" y="8" type="curve" smooth="yes"/>
      <point x="313" y="-24"/>
      <point x="273" y="-40"/>
    </contour>
  </outline>
</glyph>
<glyph name="V" format="1">
  <advance width="319"/>
  <unicode hex="0056"/>
  <outline>
    <contour>
      <point x="115" y="38" type="line"/>
      <point x="17" y="591" type="line" smooth="yes"/>
      <point x="13" y="616"/>
      <point x="32" y="635"/>
      <point x="55" y="635" type="curve" smooth="yes"/>
      <point x="76" y="635"/>
      <point x="88" y="625"/>
      <point x="91" y="604" type="curve" smooth="yes"/>
      <point x="157" y="227" type="line"/>
      <point x="224" y="600" type="line" smooth="yes"/>
      <point x="227" y="621"/>
      <point x="239" y="632"/>
      <point x="260" y="632" type="curve" smooth="yes"/>
      <point x="283" y="632"/>
      <point x="302" y="614"/>
      <point x="298" y="587" type="curve" smooth="yes"/>
      <point x="198" y="25" type="line" smooth="yes"/>
      <point x="192" y="-8"/>
      <point x="177" y="-25"/>
      <point x="154" y="-25" type="curve" smooth="yes"/>
      <point x="135" y="-25"/>
      <point x="123" y="-14"/>
      <point x="120" y="9" type="curve" smooth="yes"/>
    </contour>
  </outline>
</glyph>
<glyph name="W" format="1">
  <advance width="509"/>
  <unicode hex="0057"/>
  <outline>
    <contour>
      <point x="260" y="372" type="line"/>
      <point x="196" y="9" type="line" smooth="yes"/>
      <point x="191" y="-16"/>
      <point x="179" y="-28"/>
      <point x="158" y="-28" type="curve" smooth="yes"/>
      <point x="137" y="-28"/>
      <point x="124" y="-16"/>
      <point x="120" y="9" type="curve" smooth="yes"/>
      <point x="17" y="591" type="line" smooth="yes"/>
      <point x="13" y="616"/>
      <point x="32" y="635"/>
      <point x="55" y="635" type="curve" smooth="yes"/>
      <point x="75" y="635"/>
      <point x="87" y="625"/>
      <point x="91" y="604" type="curve" smooth="yes"/>
      <point x="159" y="229" type="line"/>
      <point x="224" y="600" type="line" smooth="yes"/>
      <point x="228" y="625"/>
      <point x="240" y="637"/>
      <point x="261" y="637" type="curve" smooth="yes"/>
      <point x="282" y="637"/>
      <point x="294" y="625"/>
      <point x="298" y="600" type="curve" smooth="yes"/>
      <point x="301" y="576" type="line"/>
      <point x="361" y="234" type="line"/>
      <point x="427" y="605" type="line" smooth="yes"/>
      <point x="431" y="626"/>
      <point x="443" y="636"/>
      <point x="463" y="636" type="curve" smooth="yes"/>
      <point x="487" y="636"/>
      <point x="506" y="619"/>
      <point x="501" y="592" type="curve" smooth="yes"/>
      <point x="400" y="19" type="line" smooth="yes"/>
      <point x="395" y="-8"/>
      <point x="382" y="-21"/>
      <point x="359" y="-21" type="curve" smooth="yes"/>
      <point x="339" y="-21"/>
      <point x="327" y="-10"/>
      <point x="323" y="13" type="curve" smooth="yes"/>
    </contour>
  </outline>
</glyph>
<glyph name="X" format="1">
  <advance width="474"/>
  <unicode hex="0058"/>
  <outline>
    <contour>
      <point x="369" y="-148" type="curve" smooth="yes"/>
      <point x="205" y="183" type="line"/>
      <point x="93" y="-21" type="line" smooth="yes"/>
      <point x="86" y="-34"/>
      <point x="75" y="-41"/>
      <point x="61" y="-41" type="curve" smooth="yes"/>
      <point x="41" y="-41"/>
      <point x="22" y="-24"/>
      <point x="22" y="-4" type="curve" smooth="yes"/>
      <point x="22" y="3"/>
      <point x="24" y="9"/>
      <point x="27" y="15" type="curve" smooth="yes"/>
      <point x="164" y="265" type="line"/>
      <point x="5" y="583" type="line" smooth="yes"/>
      <point x="2" y="589"/>
      <point x="1" y="595"/>
      <point x="1" y="601" type="curve" smooth="yes"/>
      <point x="1" y="621"/>
      <point x="20" y="637"/>
      <point x="40" y="637" type="curve" smooth="yes"/>
      <point x="55" y="637"/>
      <point x="65" y="630"/>
      <point x="72" y="616" type="curve" smooth="yes"/>
      <point x="207" y="343" type="line"/>
      <point x="358" y="618" type="line" smooth="yes"/>
      <point x="365" y="631"/>
      <point x="376" y="637"/>
      <point x="390" y="637" type="curve" smooth="yes"/>
      <point x="410" y="637"/>
      <point x="429" y="621"/>
      <point x="429" y="600" type="curve" smooth="yes"/>
      <point x="429" y="594"/>
      <point x="427" y="588"/>
      <point x="424" y="581" type="curve" smooth="yes"/>
      <point x="249" y="263" type="line"/>
      <point x="436" y="-114" type="line" smooth="yes"/>
      <point x="439" y="-120"/>
      <point x="440" y="-126"/>
      <point x="440" y="-132" type="curve" smooth="yes"/>
      <point x="440" y="-152"/>
      <point x="421" y="-169"/>
      <point x="401" y="-169" type="curve" smooth="yes"/>
      <point x="386" y="-169"/>
      <point x="376" y="-162"/>
    </contour>
  </outline>
</glyph>
<glyph name="Z" format="1">
  <advance width="561"/>
  <unicode hex="005A"/>
  <outline>
    <contour>
      <point x="45" y="609" type="curve" smooth="yes"/>
      <point x="472" y="609" type="line" smooth="yes"/>
      <point x="499" y="609"/>
      <point x="513" y="598"/>
      <point x="513" y="577" type="curve" smooth="yes"/>
      <point x="513" y="568"/>
      <point x="510" y="559"/>
      <point x="503" y="550" type="curve" smooth="yes"/>
      <point x="164" y="70" type="line"/>
      <point x="498" y="70" type="line" smooth="yes"/>
      <point x="523" y="70"/>
      <point x="535" y="57"/>
      <point x="535" y="32" type="curve" smooth="yes"/>
      <point x="535" y="7"/>
      <point x="523" y="-5"/>
      <point x="498" y="-5" type="curve" smooth="yes"/>
      <point x="91" y="-5" type="line" smooth="yes"/>
      <point x="64" y="-5"/>
      <point x="51" y="6"/>
      <point x="51" y="27" type="curve" smooth="yes"/>
      <point x="51" y="36"/>
      <point x="54" y="45"/>
      <point x="61" y="54" type="curve" smooth="yes"/>
      <point x="400" y="534" type="line"/>
      <point x="45" y="534" type="line" smooth="yes"/>
      <point x="20" y="534"/>
      <point x="8" y="547"/>
      <point x="8" y="572" type="curve" smooth="yes"/>
      <point x="8" y="597"/>
      <point x="20" y="609"/>
    </contour>
  </outline>
</glyph>
<glyph name="bracketleft" format="1">
  <advance width="447"/>
  <unicode hex="005B"/>
  <outline>
    <contour>
      <point x="282" y="-100" type="curve" smooth="yes"/>
      <point x="153" y="-100" type="line" smooth="yes"/>
      <point x="133" y="-100"/>
      <point x="116" y="-83"/>
      <point x="116" y="-63" type="curve" smooth="yes"/>
      <point x="116" y="707" type="line" smooth="yes"/>
      <point x="116" y="727"/>
      <point x="133" y="745"/>
      <point x="153" y="745" type="curve" smooth="yes"/>
      <point x="282" y="745" type="line" smooth="yes"/>
      <point x="307" y="745"/>
      <point x="319" y="732"/>
      <point x="319" y="707" type="curve" smooth="yes"/>
      <point x="319" y="682"/>
      <point x="307" y="670"/>
      <point x="282" y="670" type="curve" smooth="yes"/>
      <point x="191" y="670" type="line"/>
      <point x="191" y="-25" type="line"/>
      <point x="282" y="-25" type="line" smooth="yes"/>
      <point x="307" y="-25"/>
      <point x="319" y="-38"/>
      <point x="319" y="-63" type="curve" smooth="yes"/>
      <point x="319" y="-88"/>
      <point x="307" y="-100"/>
    </contour>
  </outline>
</glyph>
<glyph name="backslash" format="1">
  <advance width="447"/>
  <unicode hex="005C"/>
  <outline>
    <contour>
      <point x="119" y="728" type="curve" smooth="yes"/>
      <point x="359" y="19" type="line" smooth="yes"/>
      <point x="360" y="14"/>
      <point x="361" y="10"/>
      <point x="361" y="5" type="curve" smooth="yes"/>
      <point x="361" y="-15"/>
      <point x="342" y="-31"/>
      <point x="322" y="-31" type="curve" smooth="yes"/>
      <point x="305" y="-31"/>
      <point x="293" y="-22"/>
      <point x="287" y="-5" type="curve" smooth="yes"/>
      <point x="48" y="704" type="line" smooth="yes"/>
      <point x="47" y="709"/>
      <point x="46" y="713"/>
      <point x="46" y="718" type="curve" smooth="yes"/>
      <point x="46" y="738"/>
      <point x="65" y="754"/>
      <point x="85" y="754" type="curve" smooth="yes"/>
      <point x="102" y="754"/>
      <point x="114" y="745"/>
    </contour>
  </outline>
</glyph>
<glyph name="bracketright" format="1">
  <advance width="429"/>
  <unicode hex="005D"/>
  <outline>
    <contour>
      <point x="116" y="-100" type="line" smooth="yes"/>
      <point x="91" y="-100"/>
      <point x="78" y="-88"/>
      <point x="78" y="-63" type="curve" smooth="yes"/>
      <point x="78" y="-38"/>
      <point x="91" y="-25"/>
      <point x="116" y="-25" type="curve" smooth="yes"/>
      <point x="207" y="-25" type="line"/>
      <point x="206" y="670" type="line"/>
      <point x="116" y="670" type="line" smooth="yes"/>
      <point x="91" y="670"/>
      <point x="78" y="682"/>
      <point x="78" y="707" type="curve" smooth="yes"/>
      <point x="78" y="732"/>
      <point x="91" y="745"/>
      <point x="116" y="745" type="curve" smooth="yes"/>
      <point x="244" y="745" type="line" smooth="yes"/>
      <point x="264" y="745"/>
      <point x="281" y="727"/>
      <point x="281" y="707" type="curve" smooth="yes"/>
      <point x="282" y="-63" type="line" smooth="yes"/>
      <point x="282" y="-83"/>
      <point x="264" y="-100"/>
      <point x="244" y="-100" type="curve" smooth="yes"/>
    </contour>
  </outline>
</glyph>
<glyph name="asciicircum" format="1">
  <advance width="667"/>
  <unicode hex="005E"/>
  <outline>
    <contour>
      <point x="78" y="271" type="curve" smooth="yes"/>
      <point x="294" y="695" type="line" smooth="yes"/>
      <point x="303" y="712"/>
      <point x="314" y="720"/>
      <point x="328" y="720" type="curve" smooth="yes"/>
      <point x="341" y="720"/>
      <point x="352" y="712"/>
      <point x="361" y="695" type="curve" smooth="yes"/>
      <point x="577" y="274" type="line" smooth="yes"/>
      <point x="580" y="268"/>
      <point x="582" y="262"/>
      <point x="582" y="256" type="curve" smooth="yes"/>
      <point x="582" y="236"/>
      <point x="563" y="219"/>
      <point x="543" y="219" type="curve" smooth="yes"/>
      <point x="528" y="219"/>
      <point x="518" y="226"/>
      <point x="511" y="240" type="curve" smooth="yes"/>
      <point x="328" y="596" type="line"/>
      <point x="145" y="237" type="line" smooth="yes"/>
      <point x="138" y="224"/>
      <point x="127" y="217"/>
      <point x="113" y="217" type="curve" smooth="yes"/>
      <point x="93" y="217"/>
      <point x="74" y="233"/>
      <point x="74" y="253" type="curve" smooth="yes"/>
      <point x="74" y="259"/>
      <point x="75" y="265"/>
    </contour>
  </outline>
</glyph>
<glyph name="underscore" format="1">
  <advance width="533"/>
  <unicode hex="005F"/>
  <outline>
    <contour>
      <point x="42" y="1" type="curve" smooth="yes"/>
      <point x="489" y="1" type="line" smooth="yes"/>
      <point x="514" y="1"/>
      <point x="527" y="-12"/>
      <point x="527" y="-37" type="curve" smooth="yes"/>
      <point x="527" y="-62"/>
      <point x="514" y="-74"/>
      <point x="489" y="-74" type="curve" smooth="yes"/>
      <point x="42" y="-74" type="line" smooth="yes"/>
      <point x="17" y="-74"/>
      <point x="5" y="-62"/>
      <point x="5" y="-37" type="curve" smooth="yes"/>
      <point x="5" y="-12"/>
      <point x="17" y="1"/>
    </contour>
  </outline>
</glyph>
<glyph name="grave" format="1">
  <advance width="591"/>
  <unicode hex="0060"/>
  <outline>
    <contour>
      <point x="365" y="686" type="line" smooth="yes"/>
      <point x="369" y="681"/>
      <point x="371" y="675"/>
      <point x="371" y="669" type="curve" smooth="yes"/>
      <point x="371" y="654"/>
      <point x="364" y="646"/>
      <point x="351" y="646" type="curve" smooth="yes"/>
      <point x="346" y="646"/>
      <point x="341" y="648"/>
      <point x="336" y="652" type="curve" smooth="yes"/>
      <point x="200" y="770" type="line" smooth="yes"/>
      <point x="197" y="773"/>
      <point x="196" y="776"/>
      <point x="196" y="781" type="curve" smooth="yes"/>
      <point x="196" y="792"/>
      <point x="204" y="806"/>
      <point x="220" y="823" type="curve" smooth="yes"/>
      <point x="236" y="840"/>
      <point x="249" y="848"/>
      <point x="260" y="848" type="curve" smooth="yes"/>
      <point x="264" y="848"/>
      <point x="267" y="846"/>
      <point x="269" y="843" type="curve" smooth="yes"/>
    </contour>
  </outline>
</glyph>
<glyph name="b" format="1">
  <advance width="507"/>
  <unicode hex="0062"/>
  <outline>
    <contour>
      <point x="194" y="234" type="curve" smooth="yes"/>
      <point x="189" y="215"/>
      <point x="178" y="206"/>
      <point x="159" y="206" type="curve" smooth="yes"/>
      <point x="138" y="206"/>
      <point x="120" y="221"/>
      <point x="120" y="242" type="curve" smooth="yes"/>
      <point x="120" y="276"/>
      <point x="139" y="310"/>
      <point x="177" y="343" type="curve" smooth="yes"/>
      <point x="215" y="376"/>
      <point x="251" y="393"/>
      <point x="286" y="393" type="curve" smooth="yes"/>
      <point x="295" y="393"/>
      <point x="303" y="392"/>
      <point x="311" y="390" type="curve" smooth="yes"/>
      <point x="398" y="369"/>
      <point x="453" y="323"/>
      <point x="476" y="251" type="curve" smooth="yes"/>
      <point x="497" y="184"/>
      <point x="486" y="122"/>
      <point x="442" y="64" type="curve" smooth="yes"/>
      <point x="395" y="2"/>
      <point x="328" y="-27"/>
      <point x="240" y="-24" type="curve" smooth="yes"/>
      <point x="178" y="-21"/>
      <point x="128" y="-4"/>
      <point x="90" y="28" type="curve" smooth="yes"/>
      <point x="45" y="65"/>
      <point x="22" y="119"/>
      <point x="22" y="189" type="curve" smooth="yes"/>
      <point x="22" y="302" type="line" smooth="yes"/>
      <point x="22" y="407"/>
      <point x="21" y="503"/>
      <point x="20" y="589" type="curve" smooth="yes"/>
      <point x="19" y="614"/>
      <point x="39" y="630"/>
      <point x="62" y="630" type="curve" smooth="yes"/>
      <point x="86" y="630"/>
      <point x="98" y="618"/>
      <point x="98" y="595" type="curve" smooth="yes"/>
      <point x="99" y="578"/>
      <point x="99" y="529"/>
      <point x="98" y="448" type="curve" smooth="yes"/>
      <point x="97" y="353"/>
      <point x="97" y="305"/>
      <point x="97" y="302" type="curve" smooth="yes"/>
      <point x="97" y="189" type="line" smooth="yes"/>
      <point x="97" y="157"/>
      <point x="111" y="127"/>
      <point x="138" y="98" type="curve" smooth="yes"/>
      <point x="169" y="67"/>
      <point x="205" y="51"/>
      <point x="248" y="51" type="curve" smooth="yes"/>
      <point x="292" y="50"/>
      <point x="329" y="61"/>
      <point x="359" y="83" type="curve" smooth="yes"/>
      <point x="392" y="107"/>
      <point x="408" y="140"/>
      <point x="408" y="181" type="curve" smooth="yes"/>
      <point x="408" y="190"/>
      <point x="407" y="199"/>
      <point x="406" y="208" type="curve" smooth="yes"/>
      <point x="400" y="243"/>
      <point x="386" y="270"/>
      <point x="363" y="290" type="curve" smooth="yes"/>
      <point x="343" y="308"/>
      <point x="320" y="317"/>
      <point x="293" y="317" type="curve" smooth="yes"/>
      <point x="270" y="317"/>
      <point x="250" y="310"/>
      <point x="233" y="296" type="curve" smooth="yes"/>
      <point x="214" y="281"/>
      <point x="201" y="261"/>
    </contour>
  </outline>
</glyph>
<glyph name="c" format="1">
  <advance width="368"/>
  <unicode hex="0063"/>
  <outline>
    <contour>
      <point x="319" y="18" type="curve" smooth="yes"/>
      <point x="274" y="-3"/>
      <point x="233" y="-14"/>
      <point x="194" y="-14" type="curve" smooth="yes"/>
      <point x="137" y="-14"/>
      <point x="92" y="7"/>
      <point x="57" y="50" type="curve" smooth="yes"/>
      <point x="26" y="89"/>
      <point x="10" y="135"/>
      <point x="10" y="190" type="curve" smooth="yes"/>
      <point x="10" y="240"/>
      <point x="23" y="283"/>
      <point x="50" y="320" type="curve" smooth="yes"/>
      <point x="80" y="361"/>
      <point x="122" y="387"/>
      <point x="176" y="397" type="curve" smooth="yes"/>
      <point x="185" y="398"/>
      <point x="194" y="399"/>
      <point x="203" y="399" type="curve" smooth="yes"/>
      <point x="261" y="399"/>
      <point x="306" y="367"/>
      <point x="339" y="303" type="curve" smooth="yes"/>
      <point x="342" y="298"/>
      <point x="344" y="292"/>
      <point x="344" y="287" type="curve" smooth="yes"/>
      <point x="344" y="268"/>
      <point x="332" y="259"/>
      <point x="309" y="259" type="curve" smooth="yes"/>
      <point x="290" y="259"/>
      <point x="276" y="267"/>
      <point x="267" y="284" type="curve" smooth="yes"/>
      <point x="251" y="313"/>
      <point x="227" y="328"/>
      <point x="195" y="328" type="curve" smooth="yes"/>
      <point x="170" y="328"/>
      <point x="147" y="318"/>
      <point x="127" y="299" type="curve" smooth="yes"/>
      <point x="105" y="277"/>
      <point x="90" y="246"/>
      <point x="83" y="207" type="curve" smooth="yes"/>
      <point x="82" y="198"/>
      <point x="81" y="190"/>
      <point x="81" y="181" type="curve" smooth="yes"/>
      <point x="81" y="145"/>
      <point x="92" y="113"/>
      <point x="114" y="86" type="curve" smooth="yes"/>
      <point x="137" y="59"/>
      <point x="165" y="45"/>
      <point x="198" y="45" type="curve" smooth="yes"/>
      <point x="228" y="45"/>
      <point x="259" y="57"/>
      <point x="290" y="81" type="curve" smooth="yes"/>
      <point x="299" y="85"/>
      <point x="307" y="87"/>
      <point x="314" y="87" type="curve" smooth="yes"/>
      <point x="338" y="87"/>
      <point x="350" y="77"/>
      <point x="350" y="56" type="curve" smooth="yes"/>
      <point x="350" y="40"/>
      <point x="340" y="27"/>
    </contour>
  </outline>
</glyph>
<glyph name="d" format="1">
  <advance width="509"/>
  <unicode hex="0064"/>
  <outline>
    <contour>
      <point x="300" y="235" type="curve" smooth="yes"/>
      <point x="285" y="289"/>
      <point x="253" y="316"/>
      <point x="202" y="316" type="curve" smooth="yes"/>
      <point x="175" y="316"/>
      <point x="152" y="307"/>
      <point x="131" y="289" type="curve" smooth="yes"/>
      <point x="108" y="268"/>
      <point x="94" y="241"/>
      <point x="87" y="206" type="curve" smooth="yes"/>
      <point x="86" y="196"/>
      <point x="85" y="186"/>
      <point x="85" y="177" type="curve" smooth="yes"/>
      <point x="85" y="100"/>
      <point x="145" y="50"/>
      <point x="225" y="50" type="curve" smooth="yes"/>
      <point x="274" y="50"/>
      <point x="314" y="60"/>
      <point x="344" y="81" type="curve" smooth="yes"/>
      <point x="379" y="106"/>
      <point x="396" y="142"/>
      <point x="396" y="189" type="curve" smooth="yes"/>
      <point x="396" y="595" type="line" smooth="yes"/>
      <point x="396" y="620"/>
      <point x="408" y="632"/>
      <point x="433" y="632" type="curve" smooth="yes"/>
      <point x="458" y="632"/>
      <point x="471" y="619"/>
      <point x="471" y="594" type="curve" smooth="yes"/>
      <point x="471" y="189" type="line" smooth="yes"/>
      <point x="471" y="120"/>
      <point x="446" y="66"/>
      <point x="397" y="27" type="curve" smooth="yes"/>
      <point x="352" y="-8"/>
      <point x="294" y="-25"/>
      <point x="223" y="-25" type="curve" smooth="yes"/>
      <point x="144" y="-25"/>
      <point x="84" y="6"/>
      <point x="43" y="68" type="curve" smooth="yes"/>
      <point x="5" y="127"/>
      <point x="-2" y="190"/>
      <point x="21" y="255" type="curve" smooth="yes"/>
      <point x="46" y="326"/>
      <point x="100" y="371"/>
      <point x="183" y="390" type="curve" smooth="yes"/>
      <point x="191" y="392"/>
      <point x="199" y="393"/>
      <point x="208" y="393" type="curve" smooth="yes"/>
      <point x="243" y="393"/>
      <point x="279" y="376"/>
      <point x="317" y="343" type="curve" smooth="yes"/>
      <point x="355" y="310"/>
      <point x="374" y="276"/>
      <point x="374" y="243" type="curve" smooth="yes"/>
      <point x="374" y="222"/>
      <point x="355" y="207"/>
      <point x="335" y="207" type="curve" smooth="yes"/>
      <point x="316" y="207"/>
      <point x="305" y="216"/>
    </contour>
  </outline>
</glyph>
<glyph name="e" format="1">
  <advance width="458"/>
  <unicode hex="0065"/>
  <outline>
    <contour>
      <point x="164" y="277" type="curve" smooth="yes"/>
      <point x="363" y="278" type="line"/>
      <point x="338" y="324"/>
      <point x="296" y="347"/>
      <point x="237" y="347" type="curve" smooth="yes"/>
      <point x="196" y="347"/>
      <point x="161" y="332"/>
      <point x="132" y="303" type="curve" smooth="yes"/>
      <point x="103" y="274"/>
      <point x="89" y="240"/>
      <point x="89" y="200" type="curve" smooth="yes"/>
      <point x="89" y="159"/>
      <point x="103" y="125"/>
      <point x="132" y="96" type="curve" smooth="yes"/>
      <point x="161" y="67"/>
      <point x="196" y="53"/>
      <point x="237" y="53" type="curve" smooth="yes"/>
      <point x="288" y="53"/>
      <point x="328" y="73"/>
      <point x="358" y="114" type="curve" smooth="yes"/>
      <point x="365" y="125"/>
      <point x="375" y="130"/>
      <point x="387" y="130" type="curve" smooth="yes"/>
      <point x="407" y="130"/>
      <point x="426" y="112"/>
      <point x="426" y="92" type="curve" smooth="yes"/>
      <point x="426" y="85"/>
      <point x="423" y="77"/>
      <point x="418" y="70" type="curve" smooth="yes"/>
      <point x="373" y="9"/>
      <point x="313" y="-22"/>
      <point x="237" y="-22" type="curve" smooth="yes"/>
      <point x="176" y="-22"/>
      <point x="123" y="0"/>
      <point x="79" y="43" type="curve" smooth="yes"/>
      <point x="36" y="86"/>
      <point x="14" y="139"/>
      <point x="14" y="200" type="curve" smooth="yes"/>
      <point x="14" y="261"/>
      <point x="36" y="314"/>
      <point x="80" y="357" type="curve" smooth="yes"/>
      <point x="124" y="400"/>
      <point x="177" y="422"/>
      <point x="238" y="422" type="curve" smooth="yes"/>
      <point x="294" y="422"/>
      <point x="341" y="406"/>
      <point x="380" y="373" type="curve" smooth="yes"/>
      <point x="419" y="341"/>
      <point x="442" y="299"/>
      <point x="451" y="246" type="curve" smooth="yes"/>
      <point x="455" y="222"/>
      <point x="439" y="202"/>
      <point x="414" y="202" type="curve" smooth="yes"/>
      <point x="164" y="202" type="line" smooth="yes"/>
      <point x="139" y="202"/>
      <point x="126" y="215"/>
      <point x="126" y="240" type="curve" smooth="yes"/>
      <point x="126" y="265"/>
      <point x="139" y="277"/>
    </contour>
  </outline>
</glyph>
<glyph name="f" format="1">
  <advance width="429"/>
  <unicode hex="0066"/>
  <outline>
    <contour>
      <point x="189" y="579" type="curve"/>
      <point x="190" y="396" type="line"/>
      <point x="267" y="396" type="line" smooth="yes"/>
      <point x="292" y="396"/>
      <point x="305" y="383"/>
      <point x="305" y="358" type="curve" smooth="yes"/>
      <point x="305" y="333"/>
      <point x="292" y="321"/>
      <point x="267" y="321" type="curve" smooth="yes"/>
      <point x="190" y="321" type="line"/>
      <point x="190" y="-51" type="line" smooth="yes"/>
      <point x="190" y="-76"/>
      <point x="177" y="-89"/>
      <point x="152" y="-89" type="curve" smooth="yes"/>
      <point x="127" y="-89"/>
      <point x="115" y="-76"/>
      <point x="115" y="-51" type="curve" smooth="yes"/>
      <point x="115" y="321" type="line"/>
      <point x="45" y="321" type="line" smooth="yes"/>
      <point x="20" y="321"/>
      <point x="8" y="333"/>
      <point x="8" y="358" type="curve" smooth="yes"/>
      <point x="8" y="383"/>
      <point x="20" y="396"/>
      <point x="45" y="396" type="curve" smooth="yes"/>
      <point x="115" y="396" type="line"/>
      <point x="115" y="576" type="line" smooth="yes"/>
      <point x="115" y="605"/>
      <point x="129" y="633"/>
      <point x="157" y="658" type="curve" smooth="yes"/>
      <point x="185" y="683"/>
      <point x="217" y="696"/>
      <point x="253" y="696" type="curve" smooth="yes"/>
      <point x="290" y="696"/>
      <point x="324" y="686"/>
      <point x="353" y="665" type="curve" smooth="yes"/>
      <point x="386" y="642"/>
      <point x="403" y="612"/>
      <point x="403" y="574" type="curve" smooth="yes"/>
      <point x="403" y="537" type="line" smooth="yes"/>
      <point x="403" y="512"/>
      <point x="390" y="499"/>
      <point x="365" y="499" type="curve" smooth="yes"/>
      <point x="340" y="499"/>
      <point x="328" y="512"/>
      <point x="328" y="537" type="curve" smooth="yes"/>
      <point x="328" y="574" type="line" smooth="yes"/>
      <point x="328" y="585"/>
      <point x="322" y="595"/>
      <point x="310" y="604" type="curve" smooth="yes"/>
      <point x="295" y="615"/>
      <point x="276" y="621"/>
      <point x="253" y="621" type="curve" smooth="yes"/>
      <point x="229" y="621"/>
      <point x="196" y="602"/>
    </contour>
  </outline>
</glyph>
<glyph name="g" format="1">
  <advance width="492"/>
  <unicode hex="0067"/>
  <outline>
    <contour>
      <point x="342" y="44" type="curve" smooth="yes"/>
      <point x="307" y="21"/>
      <point x="268" y="10"/>
      <point x="226" y="10" type="curve" smooth="yes"/>
      <point x="163" y="10"/>
      <point x="113" y="27"/>
      <point x="75" y="61" type="curve" smooth="yes"/>
      <point x="34" y="98"/>
      <point x="14" y="149"/>
      <point x="14" y="214" type="curve" smooth="yes"/>
      <point x="14" y="280"/>
      <point x="38" y="329"/>
      <point x="86" y="361" type="curve" smooth="yes"/>
      <point x="126" y="388"/>
      <point x="178" y="401"/>
      <point x="241" y="401" type="curve" smooth="yes"/>
      <point x="304" y="401"/>
      <point x="357" y="381"/>
      <point x="400" y="340" type="curve" smooth="yes"/>
      <point x="444" y="297"/>
      <point x="466" y="243"/>
      <point x="466" y="178" type="curve" smooth="yes"/>
      <point x="466" y="-86" type="line" smooth="yes"/>
      <point x="466" y="-123"/>
      <point x="445" y="-157"/>
      <point x="403" y="-186" type="curve" smooth="yes"/>
      <point x="361" y="-215"/>
      <point x="314" y="-230"/>
      <point x="262" y="-230" type="curve" smooth="yes"/>
      <point x="213" y="-230"/>
      <point x="167" y="-221"/>
      <point x="126" y="-204" type="curve" smooth="yes"/>
      <point x="70" y="-181"/>
      <point x="42" y="-149"/>
      <point x="42" y="-106" type="curve" smooth="yes"/>
      <point x="42" y="-71"/>
      <point x="58" y="-46"/>
      <point x="90" y="-29" type="curve" smooth="yes"/>
      <point x="117" y="-15"/>
      <point x="150" y="-8"/>
      <point x="191" y="-8" type="curve" smooth="yes"/>
      <point x="221" y="-8"/>
      <point x="247" y="-11"/>
      <point x="270" y="-18" type="curve" smooth="yes"/>
      <point x="287" y="-23"/>
      <point x="296" y="-35"/>
      <point x="296" y="-53" type="curve" smooth="yes"/>
      <point x="296" y="-73"/>
      <point x="281" y="-92"/>
      <point x="260" y="-92" type="curve" smooth="yes"/>
      <point x="256" y="-92"/>
      <point x="252" y="-91"/>
      <point x="248" y="-90" type="curve" smooth="yes"/>
      <point x="231" y="-85"/>
      <point x="209" y="-82"/>
      <point x="184" y="-82" type="curve" smooth="yes"/>
      <point x="147" y="-82"/>
      <point x="125" y="-90"/>
      <point x="117" y="-106" type="curve"/>
      <point x="117" y="-121"/>
      <point x="139" y="-133"/>
      <point x="182" y="-143" type="curve" smooth="yes"/>
      <point x="215" y="-151"/>
      <point x="241" y="-155"/>
      <point x="262" y="-155" type="curve" smooth="yes"/>
      <point x="300" y="-155"/>
      <point x="332" y="-145"/>
      <point x="359" y="-125" type="curve" smooth="yes"/>
      <point x="380" y="-109"/>
      <point x="391" y="-96"/>
      <point x="391" y="-86" type="curve" smooth="yes"/>
      <point x="391" y="178" type="line" smooth="yes"/>
      <point x="391" y="222"/>
      <point x="377" y="258"/>
      <point x="348" y="285" type="curve" smooth="yes"/>
      <point x="319" y="312"/>
      <point x="284" y="326"/>
      <point x="241" y="326" type="curve" smooth="yes"/>
      <point x="140" y="326"/>
      <point x="89" y="289"/>
      <point x="89" y="214" type="curve" smooth="yes"/>
      <point x="89" y="128"/>
      <point x="135" y="85"/>
      <point x="226" y="85" type="curve" smooth="yes"/>
      <point x="253" y="85"/>
      <point x="279" y="92"/>
      <point x="302" y="107" type="curve" smooth="yes"/>
      <point x="309" y="112"/>
      <point x="316" y="114"/>
      <point x="323" y="114" type="curve" smooth="yes"/>
      <point x="343" y="114"/>
      <point x="360" y="95"/>
      <point x="360" y="75" type="curve" smooth="yes"/>
      <point x="360" y="62"/>
      <point x="354" y="51"/>
    </contour>
  </outline>
</glyph>
<glyph name="h" format="1">
  <advance width="339"/>
  <unicode hex="0068"/>
  <outline>
    <contour>
      <point x="103" y="600" type="curve" smooth="yes"/>
      <point x="103" y="341" type="line"/>
      <point x="171" y="341" type="line" smooth="yes"/>
      <point x="212" y="341"/>
      <point x="248" y="327"/>
      <point x="277" y="299" type="curve" smooth="yes"/>
      <point x="307" y="271"/>
      <point x="322" y="237"/>
      <point x="322" y="197" type="curve" smooth="yes"/>
      <point x="322" y="-198" type="line" smooth="yes"/>
      <point x="322" y="-223"/>
      <point x="310" y="-236"/>
      <point x="285" y="-236" type="curve" smooth="yes"/>
      <point x="260" y="-236"/>
      <point x="247" y="-223"/>
      <point x="247" y="-198" type="curve" smooth="yes"/>
      <point x="247" y="197" type="line" smooth="yes"/>
      <point x="247" y="233"/>
      <point x="214" y="266"/>
      <point x="171" y="266" type="curve" smooth="yes"/>
      <point x="103" y="266" type="line"/>
      <point x="103" y="4" type="line" smooth="yes"/>
      <point x="103" y="-23"/>
      <point x="91" y="-37"/>
      <point x="67" y="-37" type="curve" smooth="yes"/>
      <point x="47" y="-37"/>
      <point x="28" y="-21"/>
      <point x="28" y="4" type="curve" smooth="yes"/>
      <point x="28" y="600" type="line" smooth="yes"/>
      <point x="28" y="625"/>
      <point x="40" y="638"/>
      <point x="65" y="638" type="curve" smooth="yes"/>
      <point x="90" y="638"/>
      <point x="103" y="625"/>
    </contour>
  </outline>
</glyph>
<glyph name="i" format="1">
  <advance width="152"/>
  <unicode hex="0069"/>
  <outline>
    <contour>
      <point x="112" y="370" type="curve" smooth="yes"/>
      <point x="112" y="4" type="line" smooth="yes"/>
      <point x="112" y="-20"/>
      <point x="99" y="-32"/>
      <point x="73" y="-32" type="curve" smooth="yes"/>
      <point x="49" y="-32"/>
      <point x="37" y="-20"/>
      <point x="37" y="4" type="curve" smooth="yes"/>
      <point x="37" y="370" type="line" smooth="yes"/>
      <point x="37" y="395"/>
      <point x="49" y="407"/>
      <point x="74" y="407" type="curve" smooth="yes"/>
      <point x="99" y="407"/>
      <point x="112" y="395"/>
    </contour>
    <contour>
      <point x="25" y="484" type="curve" smooth="yes"/>
      <point x="25" y="513"/>
      <point x="49" y="537"/>
      <point x="78" y="537" type="curve" smooth="yes"/>
      <point x="109" y="537"/>
      <point x="132" y="513"/>
      <point x="132" y="484" type="curve" smooth="yes"/>
      <point x="132" y="453"/>
      <point x="109" y="430"/>
      <point x="78" y="430" type="curve" smooth="yes"/>
      <point x="49" y="430"/>
      <point x="25" y="453"/>
    </contour>
  </outline>
</glyph>
<glyph name="j" format="1">
  <advance width="322"/>
  <unicode hex="006A"/>
  <outline>
    <contour>
      <point x="201" y="-74" type="curve" smooth="yes"/>
      <point x="201" y="370" type="line" smooth="yes"/>
      <point x="201" y="395"/>
      <point x="214" y="407"/>
      <point x="239" y="407" type="curve" smooth="yes"/>
      <point x="264" y="407"/>
      <point x="276" y="395"/>
      <point x="276" y="370" type="curve" smooth="yes"/>
      <point x="276" y="-74" type="line" smooth="yes"/>
      <point x="276" y="-109"/>
      <point x="263" y="-139"/>
      <point x="236" y="-162" type="curve" smooth="yes"/>
      <point x="209" y="-186"/>
      <point x="178" y="-198"/>
      <point x="142" y="-198" type="curve" smooth="yes"/>
      <point x="106" y="-198"/>
      <point x="75" y="-186"/>
      <point x="48" y="-162" type="curve" smooth="yes"/>
      <point x="21" y="-139"/>
      <point x="8" y="-109"/>
      <point x="8" y="-74" type="curve" smooth="yes"/>
      <point x="8" y="-49"/>
      <point x="20" y="-37"/>
      <point x="45" y="-37" type="curve" smooth="yes"/>
      <point x="70" y="-37"/>
      <point x="83" y="-49"/>
      <point x="83" y="-74" type="curve" smooth="yes"/>
      <point x="83" y="-99"/>
      <point x="107" y="-123"/>
      <point x="142" y="-123" type="curve" smooth="yes"/>
      <point x="177" y="-123"/>
      <point x="201" y="-99"/>
    </contour>
    <contour>
      <point x="189" y="484" type="curve" smooth="yes"/>
      <point x="189" y="513"/>
      <point x="214" y="537"/>
      <point x="243" y="537" type="curve" smooth="yes"/>
      <point x="272" y="537"/>
      <point x="296" y="513"/>
      <point x="296" y="484" type="curve" smooth="yes"/>
      <point x="296" y="453"/>
      <point x="272" y="430"/>
      <point x="243" y="430" type="curve" smooth="yes"/>
      <point x="214" y="430"/>
      <point x="189" y="453"/>
    </contour>
  </outline>
</glyph>
<glyph name="k" format="1">
  <advance width="348"/>
  <unicode hex="006B"/>
  <outline>
    <contour>
      <point x="103" y="237" type="line"/>
      <point x="103" y="-2" type="line" smooth="yes"/>
      <point x="103" y="-29"/>
      <point x="91" y="-43"/>
      <point x="67" y="-43" type="curve" smooth="yes"/>
      <point x="47" y="-43"/>
      <point x="28" y="-27"/>
      <point x="28" y="-2" type="curve" smooth="yes"/>
      <point x="28" y="600" type="line" smooth="yes"/>
      <point x="28" y="625"/>
      <point x="40" y="638"/>
      <point x="65" y="638" type="curve" smooth="yes"/>
      <point x="90" y="638"/>
      <point x="103" y="625"/>
      <point x="103" y="600" type="curve" smooth="yes"/>
      <point x="103" y="312" type="line"/>
      <point x="181" y="312" type="line"/>
      <point x="245" y="408" type="line" smooth="yes"/>
      <point x="252" y="419"/>
      <point x="262" y="425"/>
      <point x="275" y="425" type="curve" smooth="yes"/>
      <point x="295" y="425"/>
      <point x="314" y="408"/>
      <point x="314" y="388" type="curve" smooth="yes"/>
      <point x="314" y="381"/>
      <point x="312" y="373"/>
      <point x="307" y="366" type="curve" smooth="yes"/>
      <point x="296" y="345"/>
      <point x="274" y="313"/>
      <point x="243" y="268" type="curve"/>
      <point x="319" y="-180" type="line" smooth="yes"/>
      <point x="323" y="-207"/>
      <point x="304" y="-224"/>
      <point x="281" y="-224" type="curve" smooth="yes"/>
      <point x="260" y="-224"/>
      <point x="248" y="-214"/>
      <point x="245" y="-193" type="curve" smooth="yes"/>
      <point x="173" y="237" type="line"/>
    </contour>
  </outline>
</glyph>
<glyph name="l" format="1">
  <advance width="138"/>
  <unicode hex="006C"/>
  <outline>
    <contour>
      <point x="103" y="600" type="curve" smooth="yes"/>
      <point x="103" y="-57" type="line" smooth="yes"/>
      <point x="103" y="-82"/>
      <point x="90" y="-94"/>
      <point x="65" y="-94" type="curve" smooth="yes"/>
      <point x="40" y="-94"/>
      <point x="28" y="-82"/>
      <point x="28" y="-57" type="curve" smooth="yes"/>
      <point x="28" y="600" type="line" smooth="yes"/>
      <point x="28" y="625"/>
      <point x="40" y="638"/>
      <point x="65" y="638" type="curve" smooth="yes"/>
      <point x="90" y="638"/>
      <point x="103" y="625"/>
    </contour>
  </outline>
</glyph>
<glyph name="m" format="1">
  <advance width="648"/>
  <unicode hex="006D"/>
  <outline>
    <contour>
      <point x="184" y="406" type="curve" smooth="yes"/>
      <point x="241" y="406"/>
      <point x="284" y="388"/>
      <point x="315" y="353" type="curve"/>
      <point x="349" y="388"/>
      <point x="393" y="406"/>
      <point x="446" y="406" type="curve" smooth="yes"/>
      <point x="491" y="406"/>
      <point x="529" y="392"/>
      <point x="561" y="364" type="curve" smooth="yes"/>
      <point x="594" y="336"/>
      <point x="610" y="301"/>
      <point x="610" y="258" type="curve" smooth="yes"/>
      <point x="610" y="-146" type="line" smooth="yes"/>
      <point x="610" y="-172"/>
      <point x="597" y="-185"/>
      <point x="571" y="-185" type="curve" smooth="yes"/>
      <point x="547" y="-185"/>
      <point x="535" y="-173"/>
      <point x="535" y="-149" type="curve" smooth="yes"/>
      <point x="535" y="258" type="line" smooth="yes"/>
      <point x="535" y="297"/>
      <point x="499" y="331"/>
      <point x="446" y="331" type="curve" smooth="yes"/>
      <point x="390" y="331"/>
      <point x="349" y="294"/>
      <point x="349" y="257" type="curve" smooth="yes"/>
      <point x="349" y="4" type="line" smooth="yes"/>
      <point x="349" y="-21"/>
      <point x="336" y="-34"/>
      <point x="311" y="-34" type="curve" smooth="yes"/>
      <point x="286" y="-34"/>
      <point x="274" y="-21"/>
      <point x="274" y="4" type="curve" smooth="yes"/>
      <point x="274" y="262" type="line" smooth="yes"/>
      <point x="274" y="301"/>
      <point x="239" y="331"/>
      <point x="184" y="331" type="curve" smooth="yes"/>
      <point x="128" y="331"/>
      <point x="89" y="299"/>
      <point x="89" y="262" type="curve" smooth="yes"/>
      <point x="89" y="4" type="line" smooth="yes"/>
      <point x="89" y="-21"/>
      <point x="77" y="-34"/>
      <point x="52" y="-34" type="curve" smooth="yes"/>
      <point x="27" y="-34"/>
      <point x="14" y="-21"/>
      <point x="14" y="4" type="curve" smooth="yes"/>
      <point x="14" y="262" type="line" smooth="yes"/>
      <point x="14" y="305"/>
      <point x="32" y="340"/>
      <point x="67" y="368" type="curve" smooth="yes"/>
      <point x="100" y="393"/>
      <point x="139" y="406"/>
    </contour>
  </outline>
</glyph>
<glyph name="n" format="1">
  <advance width="377"/>
  <unicode hex="006E"/>
  <outline>
    <contour>
      <point x="14" y="2" type="curve" smooth="yes"/>
      <point x="14" y="260" type="line" smooth="yes"/>
      <point x="14" y="303"/>
      <point x="32" y="339"/>
      <point x="67" y="368" type="curve" smooth="yes"/>
      <point x="100" y="395"/>
      <point x="139" y="409"/>
      <point x="184" y="409" type="curve" smooth="yes"/>
      <point x="229" y="409"/>
      <point x="267" y="395"/>
      <point x="299" y="367" type="curve" smooth="yes"/>
      <point x="332" y="339"/>
      <point x="348" y="303"/>
      <point x="348" y="260" type="curve" smooth="yes"/>
      <point x="348" y="-162" type="line" smooth="yes"/>
      <point x="348" y="-187"/>
      <point x="336" y="-200"/>
      <point x="311" y="-200" type="curve" smooth="yes"/>
      <point x="286" y="-200"/>
      <point x="273" y="-187"/>
      <point x="273" y="-162" type="curve" smooth="yes"/>
      <point x="273" y="260" type="line" smooth="yes"/>
      <point x="273" y="300"/>
      <point x="237" y="334"/>
      <point x="184" y="334" type="curve" smooth="yes"/>
      <point x="128" y="334"/>
      <point x="89" y="299"/>
      <point x="89" y="260" type="curve" smooth="yes"/>
      <point x="89" y="2" type="line" smooth="yes"/>
      <point x="89" y="-23"/>
      <point x="76" y="-35"/>
      <point x="51" y="-35" type="curve" smooth="yes"/>
      <point x="26" y="-35"/>
      <point x="14" y="-23"/>
    </contour>
  </outline>
</glyph>
<glyph name="o" format="1">
  <advance width="481"/>
  <unicode hex="006F"/>
  <outline>
    <contour>
      <point x="241" y="430" type="curve" smooth="yes"/>
      <point x="303" y="430"/>
      <point x="356" y="408"/>
      <point x="400" y="364" type="curve" smooth="yes"/>
      <point x="444" y="321"/>
      <point x="466" y="268"/>
      <point x="466" y="205" type="curve" smooth="yes"/>
      <point x="466" y="143"/>
      <point x="444" y="90"/>
      <point x="400" y="46" type="curve" smooth="yes"/>
      <point x="356" y="3"/>
      <point x="303" y="-19"/>
      <point x="241" y="-19" type="curve" smooth="yes"/>
      <point x="179" y="-19"/>
      <point x="126" y="3"/>
      <point x="82" y="46" type="curve" smooth="yes"/>
      <point x="38" y="90"/>
      <point x="16" y="143"/>
      <point x="16" y="205" type="curve" smooth="yes"/>
      <point x="16" y="268"/>
      <point x="38" y="321"/>
      <point x="82" y="364" type="curve" smooth="yes"/>
      <point x="126" y="408"/>
      <point x="179" y="430"/>
    </contour>
    <contour>
      <point x="241" y="355" type="curve" smooth="yes"/>
      <point x="200" y="355"/>
      <point x="164" y="340"/>
      <point x="135" y="311" type="curve" smooth="yes"/>
      <point x="106" y="282"/>
      <point x="91" y="246"/>
      <point x="91" y="205" type="curve" smooth="yes"/>
      <point x="91" y="164"/>
      <point x="106" y="128"/>
      <point x="135" y="99" type="curve" smooth="yes"/>
      <point x="164" y="70"/>
      <point x="200" y="56"/>
      <point x="241" y="56" type="curve" smooth="yes"/>
      <point x="282" y="56"/>
      <point x="318" y="70"/>
      <point x="347" y="99" type="curve" smooth="yes"/>
      <point x="376" y="128"/>
      <point x="391" y="164"/>
      <point x="391" y="205" type="curve" smooth="yes"/>
      <point x="391" y="246"/>
      <point x="376" y="282"/>
      <point x="347" y="311" type="curve" smooth="yes"/>
      <point x="318" y="340"/>
      <point x="282" y="355"/>
    </contour>
  </outline>
</glyph>
<glyph name="p" format="1">
  <advance width="509"/>
  <unicode hex="0070"/>
  <outline>
    <contour>
      <point x="194" y="136" type="curve" smooth="yes"/>
      <point x="208" y="81"/>
      <point x="241" y="54"/>
      <point x="292" y="54" type="curve" smooth="yes"/>
      <point x="345" y="54"/>
      <point x="394" y="94"/>
      <point x="406" y="165" type="curve" smooth="yes"/>
      <point x="408" y="174"/>
      <point x="409" y="184"/>
      <point x="409" y="193" type="curve" smooth="yes"/>
      <point x="409" y="272"/>
      <point x="348" y="321"/>
      <point x="269" y="321" type="curve" smooth="yes"/>
      <point x="219" y="321"/>
      <point x="179" y="310"/>
      <point x="149" y="289" type="curve" smooth="yes"/>
      <point x="114" y="265"/>
      <point x="97" y="229"/>
      <point x="97" y="181" type="curve" smooth="yes"/>
      <point x="97" y="-167" type="line" smooth="yes"/>
      <point x="97" y="-191"/>
      <point x="85" y="-203"/>
      <point x="61" y="-203" type="curve" smooth="yes"/>
      <point x="35" y="-203"/>
      <point x="22" y="-190"/>
      <point x="22" y="-165" type="curve" smooth="yes"/>
      <point x="22" y="181" type="line" smooth="yes"/>
      <point x="22" y="251"/>
      <point x="47" y="305"/>
      <point x="97" y="344" type="curve" smooth="yes"/>
      <point x="142" y="379"/>
      <point x="199" y="396"/>
      <point x="270" y="396" type="curve" smooth="yes"/>
      <point x="350" y="396"/>
      <point x="410" y="365"/>
      <point x="450" y="302" type="curve" smooth="yes"/>
      <point x="489" y="243"/>
      <point x="496" y="181"/>
      <point x="473" y="116" type="curve" smooth="yes"/>
      <point x="448" y="45"/>
      <point x="394" y="0"/>
      <point x="311" y="-19" type="curve" smooth="yes"/>
      <point x="303" y="-21"/>
      <point x="295" y="-22"/>
      <point x="286" y="-22" type="curve" smooth="yes"/>
      <point x="251" y="-22"/>
      <point x="215" y="-6"/>
      <point x="177" y="27" type="curve" smooth="yes"/>
      <point x="139" y="60"/>
      <point x="120" y="94"/>
      <point x="120" y="128" type="curve" smooth="yes"/>
      <point x="120" y="149"/>
      <point x="138" y="164"/>
      <point x="159" y="164" type="curve" smooth="yes"/>
      <point x="178" y="164"/>
      <point x="189" y="155"/>
    </contour>
  </outline>
</glyph>
<glyph name="q" format="1">
  <advance width="509"/>
  <unicode hex="0071"/>
  <outline>
    <contour>
      <point x="303" y="137" type="curve" smooth="yes"/>
      <point x="308" y="156"/>
      <point x="319" y="165"/>
      <point x="338" y="165" type="curve" smooth="yes"/>
      <point x="359" y="165"/>
      <point x="377" y="150"/>
      <point x="377" y="129" type="curve" smooth="yes"/>
      <point x="377" y="95"/>
      <point x="358" y="61"/>
      <point x="320" y="28" type="curve" smooth="yes"/>
      <point x="282" y="-5"/>
      <point x="246" y="-21"/>
      <point x="211" y="-21" type="curve" smooth="yes"/>
      <point x="203" y="-21"/>
      <point x="195" y="-20"/>
      <point x="187" y="-18" type="curve" smooth="yes"/>
      <point x="100" y="2"/>
      <point x="44" y="49"/>
      <point x="20" y="122" type="curve" smooth="yes"/>
      <point x="-2" y="190"/>
      <point x="9" y="253"/>
      <point x="52" y="312" type="curve" smooth="yes"/>
      <point x="99" y="375"/>
      <point x="166" y="404"/>
      <point x="253" y="399" type="curve" smooth="yes"/>
      <point x="314" y="396"/>
      <point x="364" y="377"/>
      <point x="404" y="344" type="curve" smooth="yes"/>
      <point x="451" y="305"/>
      <point x="475" y="251"/>
      <point x="475" y="182" type="curve" smooth="yes"/>
      <point x="475" y="70" type="line" smooth="yes"/>
      <point x="475" y="-86"/>
      <point x="475" y="-164"/>
      <point x="475" y="-164" type="curve" smooth="yes"/>
      <point x="476" y="-189"/>
      <point x="463" y="-202"/>
      <point x="437" y="-202" type="curve" smooth="yes"/>
      <point x="413" y="-202"/>
      <point x="401" y="-190"/>
      <point x="400" y="-165" type="curve" smooth="yes"/>
      <point x="400" y="182" type="line" smooth="yes"/>
      <point x="400" y="224"/>
      <point x="383" y="258"/>
      <point x="349" y="284" type="curve" smooth="yes"/>
      <point x="321" y="305"/>
      <point x="288" y="318"/>
      <point x="249" y="321" type="curve" smooth="yes"/>
      <point x="204" y="325"/>
      <point x="166" y="315"/>
      <point x="135" y="292" type="curve" smooth="yes"/>
      <point x="104" y="269"/>
      <point x="88" y="236"/>
      <point x="88" y="194" type="curve" smooth="yes"/>
      <point x="88" y="185"/>
      <point x="89" y="175"/>
      <point x="91" y="166" type="curve" smooth="yes"/>
      <point x="97" y="131"/>
      <point x="111" y="103"/>
      <point x="134" y="83" type="curve" smooth="yes"/>
      <point x="155" y="64"/>
      <point x="178" y="55"/>
      <point x="205" y="55" type="curve" smooth="yes"/>
      <point x="256" y="55"/>
      <point x="289" y="82"/>
    </contour>
  </outline>
</glyph>
<glyph name="r" format="1">
  <advance width="377"/>
  <unicode hex="0072"/>
  <outline>
    <contour>
      <point x="184" y="409" type="curve" smooth="yes"/>
      <point x="229" y="409"/>
      <point x="268" y="395"/>
      <point x="301" y="367" type="curve" smooth="yes"/>
      <point x="334" y="339"/>
      <point x="351" y="303"/>
      <point x="351" y="260" type="curve" smooth="yes"/>
      <point x="351" y="230"/>
      <point x="338" y="215"/>
      <point x="313" y="215" type="curve" smooth="yes"/>
      <point x="292" y="215"/>
      <point x="273" y="232"/>
      <point x="273" y="260" type="curve" smooth="yes"/>
      <point x="273" y="300"/>
      <point x="237" y="334"/>
      <point x="184" y="334" type="curve" smooth="yes"/>
      <point x="128" y="334"/>
      <point x="89" y="299"/>
      <point x="89" y="260" type="curve" smooth="yes"/>
      <point x="89" y="2" type="line" smooth="yes"/>
      <point x="89" y="-23"/>
      <point x="76" y="-35"/>
      <point x="51" y="-35" type="curve" smooth="yes"/>
      <point x="26" y="-35"/>
      <point x="14" y="-23"/>
      <point x="14" y="2" type="curve" smooth="yes"/>
      <point x="14" y="260" type="line" smooth="yes"/>
      <point x="14" y="303"/>
      <point x="32" y="339"/>
      <point x="67" y="368" type="curve" smooth="yes"/>
      <point x="100" y="395"/>
      <point x="139" y="409"/>
    </contour>
  </outline>
</glyph>
<glyph name="s" format="1">
  <advance width="368"/>
  <unicode hex="0073"/>
  <outline>
    <contour>
      <point x="261" y="290" type="curve" smooth="yes"/>
      <point x="236" y="313"/>
      <point x="208" y="325"/>
      <point x="178" y="324" type="curve" smooth="yes"/>
      <point x="115" y="321"/>
      <point x="84" y="300"/>
      <point x="84" y="260" type="curve" smooth="yes"/>
      <point x="84" y="239"/>
      <point x="90" y="227"/>
      <point x="101" y="222" type="curve" smooth="yes"/>
      <point x="115" y="216"/>
      <point x="137" y="213"/>
      <point x="167" y="214" type="curve" smooth="yes"/>
      <point x="236" y="217" type="line" smooth="yes"/>
      <point x="273" y="218"/>
      <point x="302" y="206"/>
      <point x="324" y="181" type="curve" smooth="yes"/>
      <point x="343" y="158"/>
      <point x="353" y="130"/>
      <point x="353" y="97" type="curve" smooth="yes"/>
      <point x="353" y="62"/>
      <point x="342" y="32"/>
      <point x="321" y="7" type="curve" smooth="yes"/>
      <point x="298" y="-20"/>
      <point x="266" y="-34"/>
      <point x="226" y="-34" type="curve" smooth="yes"/>
      <point x="215" y="-34"/>
      <point x="203" y="-33"/>
      <point x="192" y="-31" type="curve" smooth="yes"/>
      <point x="160" y="-25"/>
      <point x="135" y="-18"/>
      <point x="117" y="-10" type="curve" smooth="yes"/>
      <point x="53" y="24" type="line" smooth="yes"/>
      <point x="39" y="31"/>
      <point x="32" y="43"/>
      <point x="32" y="58" type="curve" smooth="yes"/>
      <point x="32" y="81"/>
      <point x="49" y="102"/>
      <point x="70" y="102" type="curve" smooth="yes"/>
      <point x="76" y="102"/>
      <point x="82" y="100"/>
      <point x="87" y="97" type="curve" smooth="yes"/>
      <point x="131" y="72"/>
      <point x="175" y="41"/>
      <point x="228" y="40" type="curve" smooth="yes"/>
      <point x="259" y="40"/>
      <point x="279" y="69"/>
      <point x="279" y="100" type="curve" smooth="yes"/>
      <point x="279" y="129"/>
      <point x="265" y="143"/>
      <point x="238" y="142" type="curve" smooth="yes"/>
      <point x="176" y="141"/>
      <point x="150" y="140"/>
      <point x="159" y="140" type="curve"/>
      <point x="114" y="140"/>
      <point x="80" y="147"/>
      <point x="58" y="161" type="curve" smooth="yes"/>
      <point x="29" y="180"/>
      <point x="12" y="213"/>
      <point x="9" y="261" type="curve" smooth="yes"/>
      <point x="6" y="308"/>
      <point x="25" y="343"/>
      <point x="66" y="368" type="curve" smooth="yes"/>
      <point x="97" y="387"/>
      <point x="133" y="397"/>
      <point x="175" y="399" type="curve" smooth="yes"/>
      <point x="226" y="400"/>
      <point x="271" y="382"/>
      <point x="312" y="345" type="curve" smooth="yes"/>
      <point x="320" y="338"/>
      <point x="324" y="329"/>
      <point x="324" y="318" type="curve" smooth="yes"/>
      <point x="324" y="298"/>
      <point x="306" y="280"/>
      <point x="286" y="280" type="curve" smooth="yes"/>
      <point x="277" y="280"/>
      <point x="268" y="283"/>
    </contour>
  </outline>
</glyph>
<glyph name="t" format="1">
  <advance width="325"/>
  <unicode hex="0074"/>
  <outline>
    <contour>
      <point x="117" y="6" type="curve" smooth="yes"/>
      <point x="117" y="292" type="line"/>
      <point x="42" y="292" type="line" smooth="yes"/>
      <point x="17" y="292"/>
      <point x="5" y="304"/>
      <point x="5" y="329" type="curve" smooth="yes"/>
      <point x="5" y="354"/>
      <point x="17" y="367"/>
      <point x="42" y="367" type="curve" smooth="yes"/>
      <point x="118" y="367" type="line"/>
      <point x="118" y="372" type="line" smooth="yes"/>
      <point x="118" y="397"/>
      <point x="130" y="409"/>
      <point x="155" y="409" type="curve" smooth="yes"/>
      <point x="180" y="409"/>
      <point x="193" y="397"/>
      <point x="193" y="372" type="curve" smooth="yes"/>
      <point x="193" y="367" type="line"/>
      <point x="264" y="367" type="line" smooth="yes"/>
      <point x="289" y="367"/>
      <point x="302" y="354"/>
      <point x="302" y="329" type="curve" smooth="yes"/>
      <point x="302" y="304"/>
      <point x="289" y="292"/>
      <point x="264" y="292" type="curve" smooth="yes"/>
      <point x="192" y="292" type="line"/>
      <point x="192" y="6" type="line" smooth="yes"/>
      <point x="192" y="-19"/>
      <point x="180" y="-31"/>
      <point x="155" y="-31" type="curve" smooth="yes"/>
      <point x="130" y="-31"/>
      <point x="117" y="-19"/>
    </contour>
  </outline>
</glyph>
<glyph name="u" format="1">
  <advance width="377"/>
  <unicode hex="0075"/>
  <outline>
    <contour>
      <point x="16" y="374" type="line" smooth="yes"/>
      <point x="16" y="399"/>
      <point x="29" y="412"/>
      <point x="54" y="412" type="curve" smooth="yes"/>
      <point x="79" y="412"/>
      <point x="91" y="399"/>
      <point x="91" y="374" type="curve" smooth="yes"/>
      <point x="91" y="116" type="line" smooth="yes"/>
      <point x="91" y="79"/>
      <point x="131" y="43"/>
      <point x="187" y="43" type="curve" smooth="yes"/>
      <point x="240" y="43"/>
      <point x="276" y="76"/>
      <point x="276" y="116" type="curve" smooth="yes"/>
      <point x="276" y="538" type="line" smooth="yes"/>
      <point x="276" y="563"/>
      <point x="288" y="576"/>
      <point x="313" y="576" type="curve" smooth="yes"/>
      <point x="338" y="576"/>
      <point x="351" y="563"/>
      <point x="351" y="538" type="curve" smooth="yes"/>
      <point x="351" y="116" type="line" smooth="yes"/>
      <point x="351" y="73"/>
      <point x="335" y="37"/>
      <point x="302" y="9" type="curve" smooth="yes"/>
      <point x="270" y="-18"/>
      <point x="232" y="-32"/>
      <point x="187" y="-32" type="curve" smooth="yes"/>
      <point x="142" y="-32"/>
      <point x="103" y="-19"/>
      <point x="70" y="8" type="curve" smooth="yes"/>
      <point x="34" y="37"/>
      <point x="16" y="73"/>
      <point x="16" y="116" type="curve" smooth="yes"/>
    </contour>
  </outline>
</glyph>
<glyph name="v" format="1">
  <advance width="377"/>
  <unicode hex="0076"/>
  <outline>
    <contour>
      <point x="87" y="409" type="curve" smooth="yes"/>
      <point x="195" y="130" type="line"/>
      <point x="289" y="537" type="line" smooth="yes"/>
      <point x="294" y="556"/>
      <point x="306" y="566"/>
      <point x="325" y="566" type="curve" smooth="yes"/>
      <point x="345" y="566"/>
      <point x="363" y="551"/>
      <point x="363" y="530" type="curve" smooth="yes"/>
      <point x="363" y="527"/>
      <point x="363" y="523"/>
      <point x="362" y="520" type="curve" smooth="yes"/>
      <point x="241" y="-5" type="line" smooth="yes"/>
      <point x="236" y="-28"/>
      <point x="224" y="-40"/>
      <point x="206" y="-40" type="curve" smooth="yes"/>
      <point x="189" y="-40"/>
      <point x="177" y="-30"/>
      <point x="170" y="-10" type="curve" smooth="yes"/>
      <point x="17" y="382" type="line" smooth="yes"/>
      <point x="15" y="387"/>
      <point x="14" y="392"/>
      <point x="14" y="397" type="curve" smooth="yes"/>
      <point x="14" y="418"/>
      <point x="33" y="433"/>
      <point x="53" y="433" type="curve" smooth="yes"/>
      <point x="69" y="433"/>
      <point x="80" y="425"/>
    </contour>
  </outline>
</glyph>
<glyph name="w" format="1">
  <advance width="590"/>
  <unicode hex="0077"/>
  <outline>
    <contour>
      <point x="289" y="190" type="line"/>
      <point x="241" y="-5" type="line" smooth="yes"/>
      <point x="235" y="-28"/>
      <point x="223" y="-40"/>
      <point x="205" y="-40" type="curve" smooth="yes"/>
      <point x="189" y="-40"/>
      <point x="177" y="-30"/>
      <point x="170" y="-10" type="curve" smooth="yes"/>
      <point x="17" y="382" type="line" smooth="yes"/>
      <point x="15" y="387"/>
      <point x="14" y="392"/>
      <point x="14" y="397" type="curve" smooth="yes"/>
      <point x="14" y="418"/>
      <point x="33" y="433"/>
      <point x="53" y="433" type="curve" smooth="yes"/>
      <point x="69" y="433"/>
      <point x="80" y="425"/>
      <point x="87" y="409" type="curve" smooth="yes"/>
      <point x="195" y="130" type="line"/>
      <point x="240" y="314" type="line"/>
      <point x="219" y="370" type="line" smooth="yes"/>
      <point x="217" y="375"/>
      <point x="216" y="380"/>
      <point x="216" y="385" type="curve" smooth="yes"/>
      <point x="216" y="406"/>
      <point x="234" y="422"/>
      <point x="255" y="422" type="curve" smooth="yes"/>
      <point x="271" y="422"/>
      <point x="282" y="414"/>
      <point x="288" y="398" type="curve" smooth="yes"/>
      <point x="397" y="119" type="line"/>
      <point x="491" y="525" type="line" smooth="yes"/>
      <point x="496" y="544"/>
      <point x="507" y="554"/>
      <point x="526" y="554" type="curve" smooth="yes"/>
      <point x="547" y="554"/>
      <point x="565" y="539"/>
      <point x="565" y="518" type="curve" smooth="yes"/>
      <point x="565" y="515"/>
      <point x="565" y="511"/>
      <point x="564" y="508" type="curve" smooth="yes"/>
      <point x="443" y="-16" type="line" smooth="yes"/>
      <point x="438" y="-40"/>
      <point x="426" y="-52"/>
      <point x="407" y="-52" type="curve" smooth="yes"/>
      <point x="391" y="-52"/>
      <point x="379" y="-42"/>
      <point x="371" y="-22" type="curve" smooth="yes"/>
    </contour>
  </outline>
</glyph>
<glyph name="x" format="1">
  <advance width="475"/>
  <unicode hex="0078"/>
  <outline>
    <contour>
      <point x="141" y="175" type="line"/>
      <point x="15" y="384" type="line" smooth="yes"/>
      <point x="10" y="391"/>
      <point x="8" y="397"/>
      <point x="8" y="404" type="curve" smooth="yes"/>
      <point x="8" y="424"/>
      <point x="28" y="441"/>
      <point x="48" y="441" type="curve" smooth="yes"/>
      <point x="61" y="441"/>
      <point x="71" y="435"/>
      <point x="79" y="423" type="curve" smooth="yes"/>
      <point x="189" y="241" type="line"/>
      <point x="328" y="434" type="line" smooth="yes"/>
      <point x="335" y="445"/>
      <point x="345" y="450"/>
      <point x="357" y="450" type="curve" smooth="yes"/>
      <point x="377" y="450"/>
      <point x="396" y="432"/>
      <point x="396" y="412" type="curve" smooth="yes"/>
      <point x="396" y="405"/>
      <point x="393" y="397"/>
      <point x="388" y="390" type="curve" smooth="yes"/>
      <point x="231" y="172" type="line"/>
      <point x="429" y="-155" type="line" smooth="yes"/>
      <point x="433" y="-162"/>
      <point x="435" y="-168"/>
      <point x="435" y="-175" type="curve" smooth="yes"/>
      <point x="435" y="-196"/>
      <point x="416" y="-212"/>
      <point x="396" y="-212" type="curve" smooth="yes"/>
      <point x="383" y="-212"/>
      <point x="372" y="-206"/>
      <point x="365" y="-194" type="curve" smooth="yes"/>
      <point x="184" y="106" type="line"/>
      <point x="91" y="-22" type="line" smooth="yes"/>
      <point x="84" y="-33"/>
      <point x="74" y="-39"/>
      <point x="62" y="-39" type="curve" smooth="yes"/>
      <point x="42" y="-39"/>
      <point x="23" y="-21"/>
      <point x="23" y="-1" type="curve" smooth="yes"/>
      <point x="23" y="7"/>
      <point x="26" y="14"/>
      <point x="31" y="21" type="curve" smooth="yes"/>
    </contour>
  </outline>
</glyph>
<glyph name="z" format="1">
  <advance width="440"/>
  <unicode hex="007A"/>
  <outline>
    <contour>
      <point x="42" y="393" type="curve" smooth="yes"/>
      <point x="360" y="393" type="line" smooth="yes"/>
      <point x="387" y="393"/>
      <point x="401" y="382"/>
      <point x="401" y="361" type="curve" smooth="yes"/>
      <point x="401" y="351"/>
      <point x="397" y="341"/>
      <point x="388" y="331" type="curve" smooth="yes"/>
      <point x="154" y="47" type="line"/>
      <point x="391" y="47" type="line" smooth="yes"/>
      <point x="416" y="47"/>
      <point x="429" y="34"/>
      <point x="429" y="9" type="curve" smooth="yes"/>
      <point x="429" y="-16"/>
      <point x="416" y="-28"/>
      <point x="391" y="-28" type="curve" smooth="yes"/>
      <point x="74" y="-28" type="line" smooth="yes"/>
      <point x="47" y="-28"/>
      <point x="33" y="-18"/>
      <point x="33" y="3" type="curve" smooth="yes"/>
      <point x="33" y="13"/>
      <point x="37" y="23"/>
      <point x="45" y="33" type="curve" smooth="yes"/>
      <point x="280" y="318" type="line"/>
      <point x="42" y="318" type="line" smooth="yes"/>
      <point x="17" y="318"/>
      <point x="5" y="330"/>
      <point x="5" y="355" type="curve" smooth="yes"/>
      <point x="5" y="380"/>
      <point x="17" y="393"/>
    </contour>
  </outline>
</glyph>
<glyph name="braceleft" format="1">
  <advance width="447"/>
  <unicode hex="007B"/>
  <outline>
    <contour>
      <point x="194" y="270" type="curve" smooth="yes"/>
      <point x="180" y="224"/>
      <point x="173" y="178"/>
      <point x="173" y="131" type="curve" smooth="yes"/>
      <point x="173" y="30"/>
      <point x="209" y="-20"/>
      <point x="281" y="-19" type="curve" smooth="yes"/>
      <point x="306" y="-19"/>
      <point x="319" y="-32"/>
      <point x="319" y="-57" type="curve" smooth="yes"/>
      <point x="319" y="-82"/>
      <point x="307" y="-94"/>
      <point x="282" y="-94" type="curve" smooth="yes"/>
      <point x="217" y="-95"/>
      <point x="169" y="-72"/>
      <point x="138" y="-25" type="curve" smooth="yes"/>
      <point x="112" y="14"/>
      <point x="99" y="67"/>
      <point x="99" y="134" type="curve" smooth="yes"/>
      <point x="99" y="186"/>
      <point x="106" y="237"/>
      <point x="121" y="287" type="curve"/>
      <point x="61" y="317" type="line" smooth="yes"/>
      <point x="36" y="330"/>
      <point x="24" y="343"/>
      <point x="24" y="354" type="curve" smooth="yes"/>
      <point x="24" y="369"/>
      <point x="44" y="386"/>
      <point x="85" y="403" type="curve" smooth="yes"/>
      <point x="94" y="406"/>
      <point x="106" y="412"/>
      <point x="121" y="420" type="curve"/>
      <point x="106" y="469"/>
      <point x="98" y="515"/>
      <point x="98" y="557" type="curve" smooth="yes"/>
      <point x="98" y="617"/>
      <point x="114" y="663"/>
      <point x="145" y="696" type="curve" smooth="yes"/>
      <point x="179" y="731"/>
      <point x="229" y="747"/>
      <point x="296" y="742" type="curve" smooth="yes"/>
      <point x="319" y="740"/>
      <point x="331" y="727"/>
      <point x="331" y="704" type="curve" smooth="yes"/>
      <point x="331" y="683"/>
      <point x="315" y="664"/>
      <point x="290" y="667" type="curve" smooth="yes"/>
      <point x="216" y="672"/>
      <point x="179" y="645"/>
      <point x="179" y="586" type="curve" smooth="yes"/>
      <point x="179" y="571"/>
      <point x="182" y="547"/>
      <point x="187" y="513" type="curve" smooth="yes"/>
      <point x="192" y="480"/>
      <point x="195" y="455"/>
      <point x="195" y="439" type="curve" smooth="yes"/>
      <point x="195" y="398"/>
      <point x="182" y="369"/>
      <point x="155" y="353" type="curve"/>
      <point x="184" y="338"/>
      <point x="198" y="318"/>
      <point x="198" y="295" type="curve" smooth="yes"/>
      <point x="198" y="287"/>
      <point x="197" y="279"/>
    </contour>
  </outline>
</glyph>
<glyph name="bar" format="1">
  <advance width="447"/>
  <unicode hex="007C"/>
  <outline>
    <contour>
      <point x="143" y="4" type="curve" smooth="yes"/>
      <point x="143" y="629" type="line" smooth="yes"/>
      <point x="143" y="654"/>
      <point x="156" y="667"/>
      <point x="181" y="667" type="curve" smooth="yes"/>
      <point x="206" y="667"/>
      <point x="218" y="654"/>
      <point x="218" y="629" type="curve" smooth="yes"/>
      <point x="218" y="4" type="line" smooth="yes"/>
      <point x="218" y="-21"/>
      <point x="206" y="-34"/>
      <point x="181" y="-34" type="curve" smooth="yes"/>
      <point x="156" y="-34"/>
      <point x="143" y="-21"/>
    </contour>
  </outline>
</glyph>
<glyph name="braceright" format="1">
  <advance width="447"/>
  <unicode hex="007D"/>
  <outline>
    <contour>
      <point x="199" y="271" type="curve" smooth="yes"/>
      <point x="196" y="280"/>
      <point x="195" y="289"/>
      <point x="195" y="296" type="curve" smooth="yes"/>
      <point x="195" y="319"/>
      <point x="210" y="339"/>
      <point x="239" y="354" type="curve"/>
      <point x="212" y="371"/>
      <point x="199" y="399"/>
      <point x="199" y="440" type="curve" smooth="yes"/>
      <point x="199" y="457"/>
      <point x="201" y="482"/>
      <point x="206" y="515" type="curve" smooth="yes"/>
      <point x="211" y="549"/>
      <point x="214" y="573"/>
      <point x="214" y="587" type="curve" smooth="yes"/>
      <point x="214" y="647"/>
      <point x="177" y="674"/>
      <point x="103" y="668" type="curve" smooth="yes"/>
      <point x="78" y="667"/>
      <point x="62" y="685"/>
      <point x="62" y="706" type="curve" smooth="yes"/>
      <point x="62" y="729"/>
      <point x="74" y="741"/>
      <point x="97" y="743" type="curve" smooth="yes"/>
      <point x="164" y="748"/>
      <point x="214" y="733"/>
      <point x="248" y="697" type="curve" smooth="yes"/>
      <point x="279" y="665"/>
      <point x="295" y="619"/>
      <point x="295" y="558" type="curve" smooth="yes"/>
      <point x="295" y="516"/>
      <point x="287" y="470"/>
      <point x="272" y="421" type="curve"/>
      <point x="287" y="413"/>
      <point x="299" y="407"/>
      <point x="308" y="404" type="curve" smooth="yes"/>
      <point x="349" y="387"/>
      <point x="369" y="370"/>
      <point x="369" y="355" type="curve" smooth="yes"/>
      <point x="369" y="344"/>
      <point x="357" y="331"/>
      <point x="332" y="318" type="curve" smooth="yes"/>
      <point x="272" y="288" type="line"/>
      <point x="287" y="238"/>
      <point x="294" y="187"/>
      <point x="294" y="136" type="curve" smooth="yes"/>
      <point x="294" y="69"/>
      <point x="281" y="16"/>
      <point x="255" y="-23" type="curve" smooth="yes"/>
      <point x="224" y="-71"/>
      <point x="176" y="-94"/>
      <point x="111" y="-93" type="curve" smooth="yes"/>
      <point x="86" y="-93"/>
      <point x="74" y="-81"/>
      <point x="74" y="-56" type="curve" smooth="yes"/>
      <point x="74" y="-31"/>
      <point x="87" y="-18"/>
      <point x="112" y="-18" type="curve" smooth="yes"/>
      <point x="184" y="-19"/>
      <point x="220" y="31"/>
      <point x="220" y="132" type="curve" smooth="yes"/>
      <point x="220" y="179"/>
      <point x="213" y="225"/>
    </contour>
  </outline>
</glyph>
<glyph name="asciitilde" format="1">
  <advance width="602"/>
  <unicode hex="007E"/>
  <outline>
    <contour>
      <point x="44" y="163" type="curve" smooth="yes"/>
      <point x="63" y="186"/>
      <point x="81" y="210"/>
      <point x="100" y="234" type="curve" smooth="yes"/>
      <point x="122" y="257"/>
      <point x="149" y="272"/>
      <point x="182" y="278" type="curve" smooth="yes"/>
      <point x="189" y="279"/>
      <point x="197" y="280"/>
      <point x="204" y="280" type="curve" smooth="yes"/>
      <point x="230" y="280"/>
      <point x="253" y="270"/>
      <point x="274" y="250" type="curve" smooth="yes"/>
      <point x="280" y="245"/>
      <point x="295" y="226"/>
      <point x="318" y="194" type="curve" smooth="yes"/>
      <point x="333" y="173"/>
      <point x="346" y="163"/>
      <point x="359" y="163" type="curve" smooth="yes"/>
      <point x="383" y="163"/>
      <point x="405" y="196"/>
      <point x="469" y="260" type="curve" smooth="yes"/>
      <point x="478" y="269"/>
      <point x="489" y="273"/>
      <point x="500" y="273" type="curve" smooth="yes"/>
      <point x="525" y="273"/>
      <point x="548" y="249"/>
      <point x="548" y="224" type="curve" smooth="yes"/>
      <point x="548" y="211"/>
      <point x="542" y="199"/>
      <point x="531" y="190" type="curve" smooth="yes"/>
      <point x="458" y="113" type="line" smooth="yes"/>
      <point x="430" y="86"/>
      <point x="397" y="72"/>
      <point x="358" y="70" type="curve" smooth="yes"/>
      <point x="327" y="68"/>
      <point x="300" y="77"/>
      <point x="278" y="97" type="curve" smooth="yes"/>
      <point x="267" y="106"/>
      <point x="253" y="125"/>
      <point x="234" y="153" type="curve" smooth="yes"/>
      <point x="221" y="174"/>
      <point x="209" y="184"/>
      <point x="199" y="184" type="curve" smooth="yes"/>
      <point x="184" y="184"/>
      <point x="165" y="168"/>
      <point x="142" y="136" type="curve" smooth="yes"/>
      <point x="117" y="102"/>
      <point x="94" y="85"/>
      <point x="73" y="85" type="curve" smooth="yes"/>
      <point x="49" y="85"/>
      <point x="34" y="108"/>
      <point x="34" y="133" type="curve" smooth="yes"/>
      <point x="34" y="146"/>
      <point x="37" y="156"/>
    </contour>
  </outline>
</glyph>
<glyph name="exclamdown" format="1">
  <advance width="244"/>
  <unicode hex="00A1"/>
  <outline>
    <contour>
      <point x="77" y="425" type="line" smooth="yes"/>
      <point x="77" y="450"/>
      <point x="89" y="462"/>
      <point x="114" y="462" type="curve" smooth="yes"/>
      <point x="139" y="462"/>
      <point x="152" y="450"/>
      <point x="152" y="425" type="curve" smooth="yes"/>
      <point x="152" y="9" type="line" smooth="yes"/>
      <point x="152" y="-15"/>
      <point x="140" y="-27"/>
      <point x="116" y="-27" type="curve" smooth="yes"/>
      <point x="90" y="-27"/>
      <point x="77" y="-14"/>
      <point x="77" y="12" type="curve" smooth="yes"/>
    </contour>
    <contour>
      <point x="54" y="557" type="curve" smooth="yes"/>
      <point x="54" y="588"/>
      <point x="79" y="612"/>
      <point x="110" y="612" type="curve" smooth="yes"/>
      <point x="141" y="612"/>
      <point x="166" y="588"/>
      <point x="166" y="557" type="curve" smooth="yes"/>
      <point x="166" y="526"/>
      <point x="141" y="502"/>
      <point x="110" y="502" type="curve" smooth="yes"/>
      <point x="79" y="502"/>
      <point x="54" y="526"/>
    </contour>
  </outline>
</glyph>
<glyph name="cent" format="1">
  <advance width="443"/>
  <unicode hex="00A2"/>
  <outline>
    <contour>
      <point x="377" y="174" type="curve" smooth="yes"/>
      <point x="336" y="151"/>
      <point x="300" y="137"/>
      <point x="267" y="132" type="curve"/>
      <point x="267" y="76" type="line" smooth="yes"/>
      <point x="267" y="51"/>
      <point x="255" y="38"/>
      <point x="230" y="38" type="curve" smooth="yes"/>
      <point x="205" y="38"/>
      <point x="192" y="51"/>
      <point x="192" y="76" type="curve" smooth="yes"/>
      <point x="193" y="135" type="line"/>
      <point x="139" y="147"/>
      <point x="96" y="181"/>
      <point x="65" y="236" type="curve" smooth="yes"/>
      <point x="36" y="287"/>
      <point x="21" y="347"/>
      <point x="21" y="414" type="curve" smooth="yes"/>
      <point x="21" y="479"/>
      <point x="35" y="536"/>
      <point x="63" y="586" type="curve" smooth="yes"/>
      <point x="94" y="641"/>
      <point x="137" y="677"/>
      <point x="193" y="695" type="curve"/>
      <point x="192" y="742" type="line" smooth="yes"/>
      <point x="192" y="767"/>
      <point x="205" y="779"/>
      <point x="230" y="779" type="curve" smooth="yes"/>
      <point x="255" y="779"/>
      <point x="267" y="767"/>
      <point x="267" y="742" type="curve" smooth="yes"/>
      <point x="268" y="702" type="line"/>
      <point x="323" y="691"/>
      <point x="367" y="648"/>
      <point x="400" y="571" type="curve" smooth="yes"/>
      <point x="403" y="563"/>
      <point x="405" y="555"/>
      <point x="405" y="548" type="curve" smooth="yes"/>
      <point x="405" y="523"/>
      <point x="392" y="510"/>
      <point x="365" y="510" type="curve" smooth="yes"/>
      <point x="343" y="510"/>
      <point x="327" y="522"/>
      <point x="316" y="545" type="curve" smooth="yes"/>
      <point x="305" y="571"/>
      <point x="289" y="589"/>
      <point x="268" y="598" type="curve"/>
      <point x="267" y="216" type="line"/>
      <point x="292" y="223"/>
      <point x="317" y="238"/>
      <point x="344" y="263" type="curve" smooth="yes"/>
      <point x="353" y="268"/>
      <point x="362" y="270"/>
      <point x="371" y="270" type="curve" smooth="yes"/>
      <point x="395" y="270"/>
      <point x="411" y="251"/>
      <point x="411" y="227" type="curve" smooth="yes"/>
      <point x="411" y="205"/>
      <point x="400" y="187"/>
    </contour>
    <contour>
      <point x="192" y="595" type="curve"/>
      <point x="193" y="223" type="line"/>
      <point x="138" y="250"/>
      <point x="103" y="323"/>
      <point x="103" y="402" type="curve" smooth="yes"/>
      <point x="103" y="413"/>
      <point x="104" y="425"/>
      <point x="106" y="437" type="curve" smooth="yes"/>
      <point x="118" y="518"/>
      <point x="147" y="571"/>
    </contour>
  </outline>
</glyph>
<glyph name="sterling" format="1">
  <advance width="567"/>
  <unicode hex="00A3"/>
  <outline>
    <contour>
      <point x="285" y="347" type="line"/>
      <point x="365" y="347" type="line" smooth="yes"/>
      <point x="390" y="347"/>
      <point x="403" y="334"/>
      <point x="403" y="309" type="curve" smooth="yes"/>
      <point x="403" y="284"/>
      <point x="390" y="272"/>
      <point x="365" y="272" type="curve" smooth="yes"/>
      <point x="248" y="272" type="line"/>
      <point x="130" y="44" type="line"/>
      <point x="414" y="44" type="line" smooth="yes"/>
      <point x="439" y="44"/>
      <point x="452" y="32"/>
      <point x="452" y="7" type="curve" smooth="yes"/>
      <point x="452" y="-18"/>
      <point x="439" y="-31"/>
      <point x="414" y="-31" type="curve" smooth="yes"/>
      <point x="68" y="-31" type="line" smooth="yes"/>
      <point x="42" y="-31"/>
      <point x="29" y="-20"/>
      <point x="29" y="1" type="curve" smooth="yes"/>
      <point x="29" y="8"/>
      <point x="31" y="16"/>
      <point x="35" y="24" type="curve" smooth="yes"/>
      <point x="58" y="67"/>
      <point x="100" y="150"/>
      <point x="163" y="272" type="curve"/>
      <point x="83" y="272" type="line" smooth="yes"/>
      <point x="58" y="272"/>
      <point x="45" y="284"/>
      <point x="45" y="309" type="curve" smooth="yes"/>
      <point x="45" y="334"/>
      <point x="58" y="347"/>
      <point x="83" y="347" type="curve" smooth="yes"/>
      <point x="201" y="347" type="line"/>
      <point x="309" y="559" type="line" smooth="yes"/>
      <point x="336" y="614"/>
      <point x="376" y="641"/>
      <point x="428" y="641" type="curve" smooth="yes"/>
      <point x="485" y="641"/>
      <point x="534" y="598"/>
      <point x="541" y="523" type="curve" smooth="yes"/>
      <point x="546" y="470"/>
      <point x="534" y="444"/>
      <point x="505" y="444" type="curve" smooth="yes"/>
      <point x="482" y="444"/>
      <point x="470" y="456"/>
      <point x="469" y="480" type="curve" smooth="yes"/>
      <point x="468" y="509"/>
      <point x="466" y="527"/>
      <point x="465" y="532" type="curve" smooth="yes"/>
      <point x="460" y="554"/>
      <point x="449" y="565"/>
      <point x="432" y="565" type="curve" smooth="yes"/>
      <point x="407" y="565"/>
      <point x="389" y="552"/>
      <point x="376" y="526" type="curve" smooth="yes"/>
    </contour>
  </outline>
</glyph>
<glyph name="currency" format="1">
  <advance width="642"/>
  <unicode hex="00A4"/>
  <outline>
    <contour>
      <point x="89" y="295" type="curve" smooth="yes"/>
      <point x="89" y="343"/>
      <point x="102" y="385"/>
      <point x="129" y="421" type="curve"/>
      <point x="39" y="510" type="line" smooth="yes"/>
      <point x="32" y="518"/>
      <point x="28" y="527"/>
      <point x="28" y="537" type="curve" smooth="yes"/>
      <point x="28" y="557"/>
      <point x="46" y="575"/>
      <point x="66" y="575" type="curve" smooth="yes"/>
      <point x="76" y="575"/>
      <point x="85" y="571"/>
      <point x="93" y="563" type="curve" smooth="yes"/>
      <point x="181" y="475" type="line"/>
      <point x="220" y="505"/>
      <point x="266" y="520"/>
      <point x="321" y="520" type="curve" smooth="yes"/>
      <point x="372" y="520"/>
      <point x="419" y="505"/>
      <point x="460" y="474" type="curve"/>
      <point x="550" y="563" type="line" smooth="yes"/>
      <point x="557" y="571"/>
      <point x="566" y="575"/>
      <point x="576" y="575" type="curve" smooth="yes"/>
      <point x="596" y="575"/>
      <point x="614" y="557"/>
      <point x="614" y="537" type="curve" smooth="yes"/>
      <point x="614" y="527"/>
      <point x="610" y="518"/>
      <point x="603" y="510" type="curve" smooth="yes"/>
      <point x="513" y="420" type="line"/>
      <point x="540" y="383"/>
      <point x="553" y="341"/>
      <point x="553" y="295" type="curve" smooth="yes"/>
      <point x="553" y="239"/>
      <point x="536" y="191"/>
      <point x="501" y="152" type="curve"/>
      <point x="603" y="50" type="line" smooth="yes"/>
      <point x="610" y="43"/>
      <point x="614" y="34"/>
      <point x="614" y="24" type="curve" smooth="yes"/>
      <point x="614" y="4"/>
      <point x="596" y="-14"/>
      <point x="576" y="-14" type="curve" smooth="yes"/>
      <point x="566" y="-14"/>
      <point x="557" y="-10"/>
      <point x="550" y="-3" type="curve" smooth="yes"/>
      <point x="443" y="105" type="line"/>
      <point x="406" y="82"/>
      <point x="366" y="70"/>
      <point x="321" y="70" type="curve" smooth="yes"/>
      <point x="276" y="70"/>
      <point x="235" y="81"/>
      <point x="199" y="104" type="curve"/>
      <point x="93" y="-3" type="line" smooth="yes"/>
      <point x="85" y="-10"/>
      <point x="76" y="-14"/>
      <point x="66" y="-14" type="curve" smooth="yes"/>
      <point x="46" y="-14"/>
      <point x="28" y="4"/>
      <point x="28" y="24" type="curve" smooth="yes"/>
      <point x="28" y="34"/>
      <point x="32" y="43"/>
      <point x="39" y="50" type="curve" smooth="yes"/>
      <point x="139" y="151" type="line"/>
      <point x="106" y="190"/>
      <point x="89" y="238"/>
    </contour>
    <contour>
      <point x="185" y="370" type="curve" smooth="yes"/>
      <point x="171" y="347"/>
      <point x="164" y="322"/>
      <point x="164" y="295" type="curve" smooth="yes"/>
      <point x="164" y="254"/>
      <point x="179" y="218"/>
      <point x="209" y="189" type="curve" smooth="yes"/>
      <point x="240" y="160"/>
      <point x="277" y="145"/>
      <point x="321" y="145" type="curve" smooth="yes"/>
      <point x="365" y="145"/>
      <point x="402" y="160"/>
      <point x="432" y="189" type="curve" smooth="yes"/>
      <point x="463" y="218"/>
      <point x="478" y="254"/>
      <point x="478" y="295" type="curve" smooth="yes"/>
      <point x="478" y="336"/>
      <point x="463" y="371"/>
      <point x="432" y="400" type="curve" smooth="yes"/>
      <point x="402" y="430"/>
      <point x="365" y="445"/>
      <point x="321" y="445" type="curve" smooth="yes"/>
      <point x="260" y="445"/>
      <point x="215" y="420"/>
    </contour>
  </outline>
</glyph>
<glyph name="yen" format="1">
  <advance width="485"/>
  <unicode hex="00A5"/>
  <outline>
    <contour>
      <point x="292" y="226" type="line"/>
      <point x="292" y="176" type="line"/>
      <point x="366" y="176" type="line" smooth="yes"/>
      <point x="391" y="176"/>
      <point x="403" y="164"/>
      <point x="403" y="139" type="curve" smooth="yes"/>
      <point x="403" y="114"/>
      <point x="391" y="101"/>
      <point x="366" y="101" type="curve" smooth="yes"/>
      <point x="292" y="101" type="line"/>
      <point x="292" y="5" type="line" smooth="yes"/>
      <point x="292" y="-21"/>
      <point x="279" y="-34"/>
      <point x="253" y="-34" type="curve" smooth="yes"/>
      <point x="229" y="-34"/>
      <point x="217" y="-22"/>
      <point x="217" y="2" type="curve" smooth="yes"/>
      <point x="217" y="101" type="line"/>
      <point x="119" y="101" type="line" smooth="yes"/>
      <point x="94" y="101"/>
      <point x="82" y="114"/>
      <point x="82" y="139" type="curve" smooth="yes"/>
      <point x="82" y="164"/>
      <point x="94" y="176"/>
      <point x="119" y="176" type="curve" smooth="yes"/>
      <point x="217" y="176" type="line"/>
      <point x="217" y="226" type="line"/>
      <point x="119" y="226" type="line" smooth="yes"/>
      <point x="94" y="226"/>
      <point x="82" y="239"/>
      <point x="82" y="264" type="curve" smooth="yes"/>
      <point x="82" y="289"/>
      <point x="94" y="301"/>
      <point x="119" y="301" type="curve" smooth="yes"/>
      <point x="217" y="301" type="line"/>
      <point x="217" y="323" type="line"/>
      <point x="188" y="365"/>
      <point x="123" y="456"/>
      <point x="22" y="595" type="curve" smooth="yes"/>
      <point x="17" y="602"/>
      <point x="14" y="610"/>
      <point x="14" y="618" type="curve" smooth="yes"/>
      <point x="14" y="638"/>
      <point x="33" y="655"/>
      <point x="54" y="655" type="curve" smooth="yes"/>
      <point x="65" y="655"/>
      <point x="75" y="650"/>
      <point x="83" y="639" type="curve" smooth="yes"/>
      <point x="252" y="410" type="line"/>
      <point x="400" y="638" type="line" smooth="yes"/>
      <point x="407" y="649"/>
      <point x="417" y="655"/>
      <point x="430" y="655" type="curve" smooth="yes"/>
      <point x="450" y="655"/>
      <point x="469" y="638"/>
      <point x="469" y="618" type="curve" smooth="yes"/>
      <point x="469" y="611"/>
      <point x="467" y="604"/>
      <point x="462" y="597" type="curve" smooth="yes"/>
      <point x="413" y="518"/>
      <point x="357" y="426"/>
      <point x="292" y="323" type="curve"/>
      <point x="292" y="301" type="line"/>
      <point x="370" y="301" type="line" smooth="yes"/>
      <point x="395" y="301"/>
      <point x="408" y="289"/>
      <point x="408" y="264" type="curve" smooth="yes"/>
      <point x="408" y="239"/>
      <point x="395" y="226"/>
      <point x="370" y="226" type="curve" smooth="yes"/>
    </contour>
  </outline>
</glyph>
<glyph name="brokenbar" format="1">
  <advance width="235"/>
  <unicode hex="00A6"/>
  <outline>
    <contour>
      <point x="155" y="661" type="curve" smooth="yes"/>
      <point x="155" y="433" type="line" smooth="yes"/>
      <point x="155" y="408"/>
      <point x="142" y="396"/>
      <point x="117" y="396" type="curve" smooth="yes"/>
      <point x="92" y="396"/>
      <point x="80" y="408"/>
      <point x="80" y="433" type="curve" smooth="yes"/>
      <point x="80" y="661" type="line" smooth="yes"/>
      <point x="80" y="686"/>
      <point x="92" y="698"/>
      <point x="117" y="698" type="curve" smooth="yes"/>
      <point x="142" y="698"/>
      <point x="155" y="686"/>
    </contour>
    <contour>
      <point x="155" y="321" type="curve" smooth="yes"/>
      <point x="155" y="61" type="line" smooth="yes"/>
      <point x="155" y="36"/>
      <point x="142" y="24"/>
      <point x="117" y="24" type="curve" smooth="yes"/>
      <point x="92" y="24"/>
      <point x="80" y="36"/>
      <point x="80" y="61" type="curve" smooth="yes"/>
      <point x="80" y="321" type="line" smooth="yes"/>
      <point x="80" y="346"/>
      <point x="92" y="358"/>
      <point x="117" y="358" type="curve" smooth="yes"/>
      <point x="142" y="358"/>
      <point x="155" y="346"/>
    </contour>
  </outline>
</glyph>
<glyph name="section" format="1">
  <advance width="441"/>
  <unicode hex="00A7"/>
  <outline>
    <contour>
      <point x="300" y="202" type="curve" smooth="yes"/>
      <point x="310" y="215"/>
      <point x="315" y="226"/>
      <point x="315" y="237" type="curve" smooth="yes"/>
      <point x="315" y="253"/>
      <point x="304" y="268"/>
      <point x="282" y="281" type="curve" smooth="yes"/>
      <point x="224" y="310" type="line"/>
      <point x="168" y="333" type="line"/>
      <point x="139" y="302"/>
      <point x="126" y="280"/>
      <point x="127" y="266" type="curve" smooth="yes"/>
      <point x="127" y="261"/>
      <point x="133" y="251"/>
      <point x="145" y="238" type="curve" smooth="yes"/>
      <point x="158" y="225"/>
      <point x="170" y="216"/>
      <point x="181" y="212" type="curve" smooth="yes"/>
      <point x="196" y="207"/>
      <point x="215" y="203"/>
      <point x="238" y="202" type="curve" smooth="yes"/>
      <point x="295" y="196" type="line" smooth="yes"/>
      <point x="295" y="197"/>
      <point x="297" y="199"/>
    </contour>
    <contour>
      <point x="400" y="121" type="curve" smooth="yes"/>
      <point x="407" y="106"/>
      <point x="411" y="90"/>
      <point x="411" y="74" type="curve" smooth="yes"/>
      <point x="411" y="45"/>
      <point x="399" y="16"/>
      <point x="375" y="-14" type="curve" smooth="yes"/>
      <point x="347" y="-48"/>
      <point x="304" y="-65"/>
      <point x="245" y="-65" type="curve" smooth="yes"/>
      <point x="212" y="-65"/>
      <point x="179" y="-56"/>
      <point x="146" y="-37" type="curve" smooth="yes"/>
      <point x="116" y="-19"/>
      <point x="91" y="4"/>
      <point x="70" y="33" type="curve" smooth="yes"/>
      <point x="65" y="42"/>
      <point x="55" y="56"/>
      <point x="40" y="75" type="curve" smooth="yes"/>
      <point x="34" y="83"/>
      <point x="31" y="91"/>
      <point x="31" y="99" type="curve" smooth="yes"/>
      <point x="31" y="120"/>
      <point x="49" y="137"/>
      <point x="70" y="137" type="curve" smooth="yes"/>
      <point x="81" y="137"/>
      <point x="90" y="132"/>
      <point x="98" y="123" type="curve" smooth="yes"/>
      <point x="117" y="98"/>
      <point x="137" y="73"/>
      <point x="157" y="48" type="curve" smooth="yes"/>
      <point x="182" y="23"/>
      <point x="212" y="10"/>
      <point x="245" y="10" type="curve" smooth="yes"/>
      <point x="280" y="10"/>
      <point x="304" y="18"/>
      <point x="317" y="34" type="curve" smooth="yes"/>
      <point x="330" y="50"/>
      <point x="336" y="64"/>
      <point x="336" y="76" type="curve" smooth="yes"/>
      <point x="336" y="96"/>
      <point x="317" y="110"/>
      <point x="278" y="119" type="curve" smooth="yes"/>
      <point x="190" y="133" type="line" smooth="yes"/>
      <point x="157" y="142"/>
      <point x="126" y="159"/>
      <point x="97" y="185" type="curve" smooth="yes"/>
      <point x="65" y="214"/>
      <point x="49" y="243"/>
      <point x="49" y="272" type="curve" smooth="yes"/>
      <point x="49" y="294"/>
      <point x="58" y="315"/>
      <point x="77" y="334" type="curve" smooth="yes"/>
      <point x="84" y="340"/>
      <point x="93" y="348"/>
      <point x="104" y="359" type="curve"/>
      <point x="57" y="384"/>
      <point x="37" y="422"/>
      <point x="42" y="471" type="curve" smooth="yes"/>
      <point x="46" y="506"/>
      <point x="53" y="531"/>
      <point x="62" y="547" type="curve" smooth="yes"/>
      <point x="77" y="573"/>
      <point x="105" y="593"/>
      <point x="146" y="606" type="curve" smooth="yes"/>
      <point x="165" y="612"/>
      <point x="184" y="615"/>
      <point x="201" y="615" type="curve" smooth="yes"/>
      <point x="230" y="615"/>
      <point x="258" y="607"/>
      <point x="286" y="590" type="curve" smooth="yes"/>
      <point x="303" y="580"/>
      <point x="327" y="561"/>
      <point x="358" y="533" type="curve" smooth="yes"/>
      <point x="369" y="524"/>
      <point x="375" y="512"/>
      <point x="375" y="497" type="curve" smooth="yes"/>
      <point x="375" y="474"/>
      <point x="362" y="456"/>
      <point x="345" y="456" type="curve" smooth="yes"/>
      <point x="338" y="456"/>
      <point x="332" y="459"/>
      <point x="325" y="465" type="curve" smooth="yes"/>
      <point x="307" y="481"/>
      <point x="285" y="496"/>
      <point x="258" y="510" type="curve" smooth="yes"/>
      <point x="225" y="528"/>
      <point x="197" y="537"/>
      <point x="175" y="537" type="curve" smooth="yes"/>
      <point x="158" y="537"/>
      <point x="145" y="531"/>
      <point x="138" y="520" type="curve" smooth="yes"/>
      <point x="125" y="501"/>
      <point x="119" y="485"/>
      <point x="119" y="470" type="curve" smooth="yes"/>
      <point x="119" y="448"/>
      <point x="133" y="430"/>
      <point x="161" y="416" type="curve" smooth="yes"/>
      <point x="166" y="414"/>
      <point x="191" y="405"/>
      <point x="236" y="390" type="curve" smooth="yes"/>
      <point x="339" y="355"/>
      <point x="390" y="304"/>
      <point x="390" y="238" type="curve" smooth="yes"/>
      <point x="390" y="226"/>
      <point x="389" y="213"/>
      <point x="386" y="200" type="curve" smooth="yes"/>
      <point x="382" y="185"/>
      <point x="376" y="173"/>
      <point x="367" y="166" type="curve"/>
      <point x="379" y="156"/>
      <point x="390" y="141"/>
    </contour>
  </outline>
</glyph>
